SplineFontDB: 3.0
FontName: CheyenneSans-ExtraLight
FullName: Cheyenne Sans ExtraLight
FamilyName: Cheyenne Sans ExtraLight
Weight: Extra-Light
Copyright: 
Version: 1.000; ttfautohint (v1.8.2)
ItalicAngle: 0
UnderlinePosition: -150
UnderlineWidth: 50
Ascent: 800
Descent: 200
InvalidEm: 0
sfntRevision: 0x00010000
LayerCount: 2
Layer: 0 1 "Back" 1
Layer: 1 1 "Fore" 0
XUID: [1021 646 1163163066 3933785]
StyleMap: 0x0040
FSType: 0
OS2Version: 3
OS2_WeightWidthSlopeOnly: 0
OS2_UseTypoMetrics: 0
CreationTime: 1513572760
ModificationTime: 1543765540
PfmFamily: 81
TTFWeight: 200
TTFWidth: 5
LineGap: 0
VLineGap: 0
Panose: 0 0 3 0 0 0 0 0 0 0
OS2TypoAscent: 743
OS2TypoAOffset: 0
OS2TypoDescent: -161
OS2TypoDOffset: 0
OS2TypoLinegap: 0
OS2WinAscent: 822
OS2WinAOffset: 0
OS2WinDescent: 178
OS2WinDOffset: 0
HheadAscent: 822
HheadAOffset: 0
HheadDescent: -178
HheadDOffset: 0
OS2SubXSize: 650
OS2SubYSize: 600
OS2SubXOff: 0
OS2SubYOff: 75
OS2SupXSize: 650
OS2SupYSize: 600
OS2SupXOff: 0
OS2SupYOff: 350
OS2StrikeYSize: 50
OS2StrikeYPos: 310
OS2CapHeight: 723
OS2XHeight: 517
OS2Vendor: 'IMPA'
OS2CodePages: 20000193.00000000
OS2UnicodeRanges: 00000007.00000000.00000000.00000000
Lookup: 1 0 0 "'aalt' Access All Alternates in Latin lookup 0" { "'aalt' Access All Alternates in Latin lookup 0 subtable"  } ['aalt' ('DFLT' <'dflt' > 'latn' <'AZE ' 'CAT ' 'CRT ' 'KAZ ' 'MOL ' 'ROM ' 'TAT ' 'TRK ' 'dflt' > ) ]
Lookup: 3 0 0 "'aalt' Access All Alternates in Latin lookup 1" { "'aalt' Access All Alternates in Latin lookup 1 subtable"  } ['aalt' ('DFLT' <'dflt' > 'latn' <'AZE ' 'CAT ' 'CRT ' 'KAZ ' 'MOL ' 'ROM ' 'TAT ' 'TRK ' 'dflt' > ) ]
Lookup: 6 0 0 "'ccmp' Glyph Composition/Decomposition in Latin lookup 2" { "'ccmp' Glyph Composition/Decomposition in Latin lookup 2 contextual 0"  "'ccmp' Glyph Composition/Decomposition in Latin lookup 2 contextual 1"  } ['ccmp' ('DFLT' <'dflt' > 'latn' <'AZE ' 'CAT ' 'CRT ' 'KAZ ' 'MOL ' 'ROM ' 'TAT ' 'TRK ' 'dflt' > ) ]

StartChar: .notdef
Encoding: 65536 -1 0
Width: 698
Flags: W
LayerCount: 2
Fore
SplineSet
596 805 m 2,0,-1
 596 -133 l 2,1,2
 596 -148 596 -148 588.5 -154.5 c 128,-1,3
 581 -161 581 -161 564 -161 c 2,4,-1
 128 -161 l 2,5,6
 113 -161 113 -161 107 -155.5 c 128,-1,7
 101 -150 101 -150 101 -137 c 2,8,-1
 101 803 l 2,9,10
 101 814 101 814 106 820 c 128,-1,11
 111 826 111 826 120 826 c 2,12,-1
 579 826 l 2,13,14
 596 826 596 826 596 805 c 2,0,-1
542 772.5 m 128,-1,16
 538 777 538 777 531 777 c 2,17,-1
 187 777 l 1,18,-1
 546 -57 l 1,19,-1
 546 760 l 2,20,15
 546 768 546 768 542 772.5 c 128,-1,16
157 -107 m 128,-1,22
 162 -112 162 -112 174 -112 c 2,23,-1
 509 -112 l 1,24,-1
 152 716 l 1,25,-1
 152 -92 l 2,26,21
 152 -102 152 -102 157 -107 c 128,-1,22
EndSplineSet
EndChar

StartChar: exclam
Encoding: 33 33 4
Width: 237
GlyphClass: 2
Flags: W
LayerCount: 2
Fore
SplineSet
141 162 m 1,0,-1
 95 162 l 1,1,-1
 79 723 l 1,2,-1
 157 723 l 1,3,-1
 141 162 l 1,0,-1
159 0 m 1,4,-1
 76 0 l 1,5,-1
 76 95 l 1,6,-1
 159 95 l 1,7,-1
 159 0 l 1,4,-1
EndSplineSet
EndChar

StartChar: quotedbl
Encoding: 34 34 5
Width: 388
GlyphClass: 2
Flags: W
LayerCount: 2
Fore
SplineSet
298 515 m 1,0,-1
 256 515 l 1,1,-1
 232 723 l 1,2,-1
 324 723 l 1,3,-1
 298 515 l 1,0,-1
143 515 m 1,4,-1
 101 515 l 1,5,-1
 77 723 l 1,6,-1
 169 723 l 1,7,-1
 143 515 l 1,4,-1
EndSplineSet
EndChar

StartChar: numbersign
Encoding: 35 35 6
Width: 593
GlyphClass: 2
Flags: W
LayerCount: 2
Fore
SplineSet
437 445 m 1,0,-1
 413 286 l 1,1,-1
 520 286 l 1,2,-1
 520 240 l 1,3,-1
 406 240 l 1,4,-1
 369 -1 l 1,5,-1
 323 6 l 1,6,-1
 359 240 l 1,7,-1
 205 240 l 1,8,-1
 168 -1 l 1,9,-1
 122 6 l 1,10,-1
 158 240 l 1,11,-1
 39 240 l 1,12,-1
 39 286 l 1,13,-1
 165 286 l 1,14,-1
 189 445 l 1,15,-1
 71 445 l 1,16,-1
 71 491 l 1,17,-1
 196 491 l 1,18,-1
 232 724 l 1,19,-1
 278 719 l 1,20,-1
 243 491 l 1,21,-1
 397 491 l 1,22,-1
 433 724 l 1,23,-1
 479 719 l 1,24,-1
 444 491 l 1,25,-1
 552 491 l 1,26,-1
 552 445 l 1,27,-1
 437 445 l 1,0,-1
390 445 m 1,28,-1
 236 445 l 1,29,-1
 212 286 l 1,30,-1
 366 286 l 1,31,-1
 390 445 l 1,28,-1
EndSplineSet
EndChar

StartChar: dollar
Encoding: 36 36 7
Width: 581
GlyphClass: 2
Flags: W
LayerCount: 2
Fore
SplineSet
514.5 80.5 m 128,-1,1
 489 40 489 40 443 16 c 128,-1,2
 397 -8 397 -8 338 -9 c 0,3,4
 332 -9 332 -9 330 -10.5 c 128,-1,5
 328 -12 328 -12 328 -17 c 2,6,-1
 328 -88 l 1,7,-1
 278 -88 l 1,8,-1
 278 -9 l 1,9,10
 191 -8 191 -8 133 22.5 c 128,-1,11
 75 53 75 53 32 116 c 1,12,-1
 77 152 l 1,13,14
 118 100 118 100 164 74.5 c 128,-1,15
 210 49 210 49 278 47 c 1,16,-1
 278 330 l 1,17,18
 195 361 195 361 149 390 c 128,-1,19
 103 419 103 419 82.5 454 c 128,-1,20
 62 489 62 489 62 538 c 0,21,22
 62 617 62 617 119 669 c 128,-1,23
 176 721 176 721 268 730 c 0,24,25
 278 732 278 732 278 739 c 2,26,-1
 278 798 l 1,27,-1
 327 798 l 1,28,-1
 327 731 l 1,29,30
 388 724 388 724 436.5 699.5 c 128,-1,31
 485 675 485 675 527 633 c 1,32,-1
 483 592 l 1,33,34
 459 622 459 622 420.5 643.5 c 128,-1,35
 382 665 382 665 337 672 c 1,36,-1
 334 672 l 2,37,38
 327 672 327 672 327 665 c 2,39,-1
 327 384 l 1,40,-1
 371 368 l 1,41,42
 456 332 456 332 498 285.5 c 128,-1,43
 540 239 540 239 540 171 c 0,44,0
 540 121 540 121 514.5 80.5 c 128,-1,1
281 674 m 1,45,46
 248 674 248 674 212 658.5 c 128,-1,47
 176 643 176 643 151.5 612.5 c 128,-1,48
 127 582 127 582 127 540 c 0,49,50
 127 500 127 500 151 472.5 c 128,-1,51
 175 445 175 445 203 431 c 128,-1,52
 231 417 231 417 278 398 c 1,53,-1
 281 674 l 1,45,46
434.5 83 m 128,-1,55
 475 118 475 118 475 170 c 0,56,57
 475 220 475 220 441 253 c 128,-1,58
 407 286 407 286 328 316 c 1,59,-1
 328 47 l 1,60,54
 394 48 394 48 434.5 83 c 128,-1,55
EndSplineSet
EndChar

StartChar: percent
Encoding: 37 37 8
Width: 889
GlyphClass: 2
Flags: W
LayerCount: 2
Fore
SplineSet
342 678.5 m 128,-1,1
 387 623 387 623 387 527 c 0,2,3
 387 430 387 430 342 375 c 128,-1,4
 297 320 297 320 224 320 c 0,5,6
 150 320 150 320 104.5 375 c 128,-1,7
 59 430 59 430 59 527 c 0,8,9
 59 591 59 591 80 638 c 128,-1,10
 101 685 101 685 138.5 709.5 c 128,-1,11
 176 734 176 734 224 734 c 0,12,0
 297 734 297 734 342 678.5 c 128,-1,1
241 -4 m 1,13,-1
 192 -4 l 1,14,-1
 679 731 l 1,15,-1
 727 731 l 1,16,-1
 241 -4 l 1,13,-1
306.5 405.5 m 128,-1,18
 337 452 337 452 337 527 c 0,19,20
 337 601 337 601 306 648 c 128,-1,21
 275 695 275 695 223 695 c 128,-1,22
 171 695 171 695 140.5 648 c 128,-1,23
 110 601 110 601 110 527 c 0,24,25
 110 452 110 452 140.5 405.5 c 128,-1,26
 171 359 171 359 223 359 c 0,27,17
 276 359 276 359 306.5 405.5 c 128,-1,18
783 349.5 m 128,-1,29
 828 294 828 294 828 198 c 0,30,31
 828 100 828 100 783.5 45 c 128,-1,32
 739 -10 739 -10 665 -10 c 128,-1,33
 591 -10 591 -10 545.5 45 c 128,-1,34
 500 100 500 100 500 198 c 0,35,36
 500 262 500 262 521 308.5 c 128,-1,37
 542 355 542 355 579.5 380 c 128,-1,38
 617 405 617 405 665 405 c 0,39,28
 738 405 738 405 783 349.5 c 128,-1,29
746 77.5 m 128,-1,41
 778 125 778 125 778 197 c 0,42,43
 778 270 778 270 746.5 317.5 c 128,-1,44
 715 365 715 365 664 365 c 0,45,46
 614 365 614 365 582.5 317 c 128,-1,47
 551 269 551 269 551 197 c 128,-1,48
 551 125 551 125 582.5 77.5 c 128,-1,49
 614 30 614 30 664 30 c 128,-1,40
 714 30 714 30 746 77.5 c 128,-1,41
EndSplineSet
EndChar

StartChar: ampersand
Encoding: 38 38 9
Width: 665
GlyphClass: 2
Flags: W
LayerCount: 2
Fore
SplineSet
377.5 715.5 m 128,-1,1
 420 697 420 697 445.5 662 c 128,-1,2
 471 627 471 627 471 582 c 0,3,4
 471 538 471 538 434 487.5 c 128,-1,5
 397 437 397 437 294 384 c 1,6,-1
 478 170 l 1,7,8
 501 198 501 198 523.5 252.5 c 128,-1,9
 546 307 546 307 549 378 c 1,10,-1
 608 378 l 1,11,12
 602 301 602 301 577.5 243.5 c 128,-1,13
 553 186 553 186 511 130 c 1,14,-1
 622 0 l 1,15,-1
 546 0 l 1,16,-1
 471 86 l 1,17,18
 370 -5 370 -5 250 -5 c 0,19,20
 152 -5 152 -5 96 46 c 128,-1,21
 40 97 40 97 40 182 c 0,22,23
 40 250 40 250 80.5 302 c 128,-1,24
 121 354 121 354 206 399 c 1,25,26
 160 448 160 448 137 491 c 128,-1,27
 114 534 114 534 114 580 c 0,28,29
 114 623 114 623 136 658 c 128,-1,30
 158 693 158 693 197 713.5 c 128,-1,31
 236 734 236 734 286 734 c 0,32,0
 335 734 335 734 377.5 715.5 c 128,-1,1
208.5 655 m 128,-1,34
 179 626 179 626 179 584 c 0,35,36
 179 545 179 545 201 507 c 128,-1,37
 223 469 223 469 247 442 c 2,38,-1
 263 424 l 1,39,40
 349 473 349 473 379.5 508.5 c 128,-1,41
 410 544 410 544 410 582 c 0,42,43
 410 634 410 634 375 659 c 128,-1,44
 340 684 340 684 290 684 c 0,45,33
 238 684 238 684 208.5 655 c 128,-1,34
144 281 m 128,-1,47
 109 237 109 237 109 185 c 0,48,49
 109 125 109 125 153 87 c 128,-1,50
 197 49 197 49 261 49 c 0,51,52
 308 49 308 49 355 70 c 128,-1,53
 402 91 402 91 438 127 c 1,54,-1
 240 358 l 1,55,46
 179 325 179 325 144 281 c 128,-1,47
EndSplineSet
EndChar

StartChar: quotesingle
Encoding: 39 39 10
Width: 244
GlyphClass: 2
Flags: W
LayerCount: 2
Fore
SplineSet
142 515 m 1,0,-1
 100 515 l 1,1,-1
 76 723 l 1,2,-1
 168 723 l 1,3,-1
 142 515 l 1,0,-1
EndSplineSet
EndChar

StartChar: parenleft
Encoding: 40 40 11
Width: 286
GlyphClass: 2
Flags: W
LayerCount: 2
Fore
SplineSet
176 505.5 m 128,-1,1
 144 390 144 390 144 277 c 0,2,3
 144 167 144 167 171 60 c 128,-1,4
 198 -47 198 -47 252 -161 c 1,5,-1
 210 -161 l 1,6,7
 143 -47 143 -47 110 55.5 c 128,-1,8
 77 158 77 158 77 278 c 0,9,10
 77 396 77 396 115.5 511 c 128,-1,11
 154 626 154 626 220 723 c 1,12,-1
 262 723 l 1,13,0
 208 621 208 621 176 505.5 c 128,-1,1
EndSplineSet
EndChar

StartChar: parenright
Encoding: 41 41 12
Width: 295
GlyphClass: 2
Flags: W
LayerCount: 2
Fore
SplineSet
107 505.5 m 128,-1,1
 139 390 139 390 139 277 c 0,2,3
 139 167 139 167 112 60 c 128,-1,4
 85 -47 85 -47 31 -161 c 1,5,-1
 73 -161 l 1,6,7
 140 -47 140 -47 173 55.5 c 128,-1,8
 206 158 206 158 206 278 c 0,9,10
 206 396 206 396 167.5 511 c 128,-1,11
 129 626 129 626 63 723 c 1,12,-1
 21 723 l 1,13,0
 75 621 75 621 107 505.5 c 128,-1,1
EndSplineSet
EndChar

StartChar: asterisk
Encoding: 42 42 13
Width: 353
GlyphClass: 2
Flags: W
LayerCount: 2
Fore
SplineSet
181 538 m 1,0,-1
 103 414 l 1,1,-1
 60 442 l 1,2,-1
 150 556 l 1,3,-1
 27 592 l 1,4,-1
 43 636 l 1,5,-1
 161 590 l 1,6,-1
 153 723 l 1,7,-1
 206 723 l 1,8,-1
 199 590 l 1,9,-1
 319 641 l 1,10,-1
 333 597 l 1,11,-1
 212 557 l 1,12,-1
 299 448 l 1,13,-1
 257 417 l 1,14,-1
 181 538 l 1,0,-1
EndSplineSet
EndChar

StartChar: plus
Encoding: 43 43 14
Width: 540
GlyphClass: 2
Flags: W
LayerCount: 2
Fore
SplineSet
474 337 m 1,0,-1
 297 337 l 1,1,-1
 297 159 l 1,2,-1
 244 159 l 1,3,-1
 244 336 l 1,4,-1
 65 336 l 1,5,-1
 65 389 l 1,6,-1
 243 389 l 1,7,-1
 243 568 l 1,8,-1
 296 568 l 1,9,-1
 296 390 l 1,10,-1
 474 390 l 1,11,-1
 474 337 l 1,0,-1
EndSplineSet
EndChar

StartChar: comma
Encoding: 44 44 15
Width: 219
GlyphClass: 2
Flags: W
LayerCount: 2
Fore
SplineSet
95 -1 m 1,0,-1
 56 0 l 1,1,-1
 56 94 l 1,2,-1
 153 94 l 1,3,-1
 153 13 l 1,4,-1
 77 -118 l 1,5,-1
 40 -118 l 1,6,-1
 95 -1 l 1,0,-1
EndSplineSet
Substitution2: "'tnum' Tabular Numbers in Latin lookup 23 subtable" comma.tf
Substitution2: "'aalt' Access All Alternates in Latin lookup 0 subtable" comma.tf
EndChar

StartChar: hyphen
Encoding: 45 45 16
Width: 376
GlyphClass: 2
Flags: W
LayerCount: 2
Fore
SplineSet
309 232 m 1,0,-1
 65 231 l 1,1,-1
 65 285 l 1,2,-1
 309 286 l 1,3,-1
 309 232 l 1,0,-1
EndSplineSet
EndChar

StartChar: period
Encoding: 46 46 17
Width: 205
GlyphClass: 2
Flags: W
LayerCount: 2
Fore
SplineSet
143 0 m 1,0,-1
 60 0 l 1,1,-1
 60 96 l 1,2,-1
 143 96 l 1,3,-1
 143 0 l 1,0,-1
EndSplineSet
Substitution2: "'tnum' Tabular Numbers in Latin lookup 23 subtable" period.tf
Substitution2: "'aalt' Access All Alternates in Latin lookup 0 subtable" period.tf
EndChar

StartChar: slash
Encoding: 47 47 18
Width: 333
GlyphClass: 2
Flags: W
LayerCount: 2
Fore
SplineSet
262 723 m 1,0,-1
 318 723 l 1,1,-1
 69 -50 l 1,2,-1
 13 -50 l 1,3,-1
 262 723 l 1,0,-1
EndSplineSet
Substitution2: "'frac' Diagonal Fractions in Latin lookup 16 subtable" fraction
Substitution2: "'aalt' Access All Alternates in Latin lookup 0 subtable" fraction
EndChar

StartChar: zero
Encoding: 48 48 19
Width: 627
GlyphClass: 2
Flags: W
LayerCount: 2
Fore
SplineSet
448 691 m 128,-1,1
 507 649 507 649 541 565 c 128,-1,2
 575 481 575 481 575 360 c 128,-1,3
 575 239 575 239 541.5 156 c 128,-1,4
 508 73 508 73 448.5 31.5 c 128,-1,5
 389 -10 389 -10 313 -10 c 128,-1,6
 237 -10 237 -10 178 31.5 c 128,-1,7
 119 73 119 73 85.5 155.5 c 128,-1,8
 52 238 52 238 52 358 c 0,9,10
 52 480 52 480 86 564.5 c 128,-1,11
 120 649 120 649 179 691 c 128,-1,12
 238 733 238 733 314 733 c 0,13,0
 389 733 389 733 448 691 c 128,-1,1
454 125.5 m 128,-1,15
 505 202 505 202 505 360 c 0,16,17
 505 520 505 520 453.5 597.5 c 128,-1,18
 402 675 402 675 314 675 c 128,-1,19
 226 675 226 675 174 597 c 128,-1,20
 122 519 122 519 122 360 c 0,21,22
 122 202 122 202 174 125.5 c 128,-1,23
 226 49 226 49 315 49 c 0,24,14
 403 49 403 49 454 125.5 c 128,-1,15
EndSplineSet
Substitution2: "'onum' Oldstyle Figures in Latin lookup 24 subtable" zero.osf
Substitution2: "'tnum' Tabular Numbers in Latin lookup 23 subtable" zero.tf
Substitution2: "'frac' Diagonal Fractions in Latin lookup 17 subtable" zero.numr
Substitution2: "'dnom' Denominators in Latin lookup 15 subtable" zero.dnom
Substitution2: "'numr' Numerators in Latin lookup 14 subtable" zero.numr
Substitution2: "'sups' Superscript in Latin lookup 13 subtable" uni2070
Substitution2: "'sinf' Scientific Inferiors in Latin lookup 12 subtable" zero.subs
Substitution2: "'subs' Subscript in Latin lookup 11 subtable" zero.subs
AlternateSubs2: "'aalt' Access All Alternates in Latin lookup 1 subtable" zero.subs uni2070 zero.numr zero.dnom zero.tf zero.osf
EndChar

StartChar: one
Encoding: 49 49 20
Width: 374
GlyphClass: 2
Flags: W
LayerCount: 2
Fore
SplineSet
184 644 m 1,0,-1
 38 589 l 1,1,-1
 38 643 l 1,2,-1
 200 723 l 1,3,-1
 250 723 l 1,4,-1
 250 0 l 1,5,-1
 184 0 l 1,6,-1
 184 644 l 1,0,-1
EndSplineSet
Substitution2: "'onum' Oldstyle Figures in Latin lookup 24 subtable" one.osf
Substitution2: "'tnum' Tabular Numbers in Latin lookup 23 subtable" one.tf
Substitution2: "'frac' Diagonal Fractions in Latin lookup 17 subtable" one.numr
Substitution2: "'dnom' Denominators in Latin lookup 15 subtable" one.dnom
Substitution2: "'numr' Numerators in Latin lookup 14 subtable" one.numr
Substitution2: "'sups' Superscript in Latin lookup 13 subtable" uni00B9
Substitution2: "'sinf' Scientific Inferiors in Latin lookup 12 subtable" one.subs
Substitution2: "'subs' Subscript in Latin lookup 11 subtable" one.subs
AlternateSubs2: "'aalt' Access All Alternates in Latin lookup 1 subtable" one.subs uni00B9 one.numr one.dnom one.tf one.osf
EndChar

StartChar: two
Encoding: 50 50 21
Width: 561
GlyphClass: 2
Flags: W
LayerCount: 2
Fore
SplineSet
45 63 m 1,0,-1
 282 300 l 2,1,2
 365 382 365 382 398 431.5 c 128,-1,3
 431 481 431 481 431 535 c 0,4,5
 431 583 431 583 407.5 614 c 128,-1,6
 384 645 384 645 348.5 659 c 128,-1,7
 313 673 313 673 276 673 c 0,8,9
 222 673 222 673 174.5 648.5 c 128,-1,10
 127 624 127 624 98 572 c 1,11,-1
 43 595 l 1,12,13
 77 663 77 663 137.5 698 c 128,-1,14
 198 733 198 733 280 733 c 0,15,16
 342 733 342 733 391.5 710 c 128,-1,17
 441 687 441 687 469.5 642.5 c 128,-1,18
 498 598 498 598 498 536 c 0,19,20
 498 492 498 492 482.5 454.5 c 128,-1,21
 467 417 467 417 433 375 c 128,-1,22
 399 333 399 333 337 270 c 2,23,-1
 129 60 l 1,24,-1
 506 60 l 1,25,-1
 506 0 l 1,26,-1
 45 0 l 1,27,-1
 45 63 l 1,0,-1
EndSplineSet
Substitution2: "'onum' Oldstyle Figures in Latin lookup 24 subtable" two.osf
Substitution2: "'tnum' Tabular Numbers in Latin lookup 23 subtable" two.tf
Substitution2: "'frac' Diagonal Fractions in Latin lookup 17 subtable" two.numr
Substitution2: "'dnom' Denominators in Latin lookup 15 subtable" two.dnom
Substitution2: "'numr' Numerators in Latin lookup 14 subtable" two.numr
Substitution2: "'sups' Superscript in Latin lookup 13 subtable" uni00B2
Substitution2: "'sinf' Scientific Inferiors in Latin lookup 12 subtable" two.subs
Substitution2: "'subs' Subscript in Latin lookup 11 subtable" two.subs
AlternateSubs2: "'aalt' Access All Alternates in Latin lookup 1 subtable" two.subs uni00B2 two.numr two.dnom two.tf two.osf
EndChar

StartChar: three
Encoding: 51 51 22
Width: 619
GlyphClass: 2
Flags: W
LayerCount: 2
Fore
SplineSet
165 702 m 128,-1,1
 229 733 229 733 305 733 c 0,2,3
 375 733 375 733 428.5 709 c 128,-1,4
 482 685 482 685 512 644 c 128,-1,5
 542 603 542 603 542 552 c 0,6,7
 542 434 542 434 400 385 c 1,8,9
 478 364 478 364 521 315 c 128,-1,10
 564 266 564 266 564 197 c 0,11,12
 564 139 564 139 531 91.5 c 128,-1,13
 498 44 498 44 437 17 c 128,-1,14
 376 -10 376 -10 294 -10 c 0,15,16
 209 -10 209 -10 149.5 18 c 128,-1,17
 90 46 90 46 47 111 c 1,18,-1
 103 136 l 1,19,20
 140 89 140 89 188 68.5 c 128,-1,21
 236 48 236 48 296 48 c 0,22,23
 387 48 387 48 440 89 c 128,-1,24
 493 130 493 130 493 195 c 0,25,26
 493 243 493 243 465 278.5 c 128,-1,27
 437 314 437 314 392 332 c 128,-1,28
 347 350 347 350 296 350 c 2,29,-1
 199 351 l 1,30,-1
 199 407 l 1,31,-1
 280 408 l 2,32,33
 333 408 333 408 377 426.5 c 128,-1,34
 421 445 421 445 446.5 477 c 128,-1,35
 472 509 472 509 472 549 c 0,36,37
 472 585 472 585 450.5 614 c 128,-1,38
 429 643 429 643 391 659.5 c 128,-1,39
 353 676 353 676 305 676 c 0,40,41
 245 676 245 676 201.5 654.5 c 128,-1,42
 158 633 158 633 127 589 c 1,43,-1
 73 613 l 1,44,0
 101 671 101 671 165 702 c 128,-1,1
EndSplineSet
Substitution2: "'onum' Oldstyle Figures in Latin lookup 24 subtable" three.osf
Substitution2: "'tnum' Tabular Numbers in Latin lookup 23 subtable" three.tf
Substitution2: "'frac' Diagonal Fractions in Latin lookup 17 subtable" three.numr
Substitution2: "'dnom' Denominators in Latin lookup 15 subtable" three.dnom
Substitution2: "'numr' Numerators in Latin lookup 14 subtable" three.numr
Substitution2: "'sups' Superscript in Latin lookup 13 subtable" uni00B3
Substitution2: "'sinf' Scientific Inferiors in Latin lookup 12 subtable" three.subs
Substitution2: "'subs' Subscript in Latin lookup 11 subtable" three.subs
AlternateSubs2: "'aalt' Access All Alternates in Latin lookup 1 subtable" three.subs uni00B3 three.numr three.dnom three.tf three.osf
EndChar

StartChar: four
Encoding: 52 52 23
Width: 615
GlyphClass: 2
Flags: W
LayerCount: 2
Fore
SplineSet
457 723 m 1,0,-1
 457 258 l 1,1,-1
 571 258 l 1,2,-1
 571 198 l 1,3,-1
 457 198 l 1,4,-1
 457 0 l 1,5,-1
 393 0 l 1,6,-1
 393 198 l 1,7,-1
 50 198 l 1,8,-1
 50 264 l 1,9,-1
 390 723 l 1,10,-1
 457 723 l 1,0,-1
390 258 m 1,11,-1
 390 625 l 1,12,-1
 117 258 l 1,13,-1
 390 258 l 1,11,-1
EndSplineSet
Substitution2: "'onum' Oldstyle Figures in Latin lookup 24 subtable" four.osf
Substitution2: "'tnum' Tabular Numbers in Latin lookup 23 subtable" four.tf
Substitution2: "'frac' Diagonal Fractions in Latin lookup 17 subtable" four.numr
Substitution2: "'dnom' Denominators in Latin lookup 15 subtable" four.dnom
Substitution2: "'numr' Numerators in Latin lookup 14 subtable" four.numr
Substitution2: "'sups' Superscript in Latin lookup 13 subtable" uni2074
Substitution2: "'sinf' Scientific Inferiors in Latin lookup 12 subtable" four.subs
Substitution2: "'subs' Subscript in Latin lookup 11 subtable" four.subs
AlternateSubs2: "'aalt' Access All Alternates in Latin lookup 1 subtable" four.subs uni2074 four.numr four.dnom four.tf four.osf
EndChar

StartChar: five
Encoding: 53 53 24
Width: 638
GlyphClass: 2
Flags: W
LayerCount: 2
Fore
SplineSet
542 723 m 1,0,-1
 537 665 l 1,1,-1
 180 665 l 1,2,-1
 159 399 l 1,3,4
 208 427 208 427 246.5 441 c 128,-1,5
 285 455 285 455 339 455 c 0,6,7
 404 455 404 455 457.5 432 c 128,-1,8
 511 409 511 409 543.5 360 c 128,-1,9
 576 311 576 311 576 237 c 0,10,11
 576 161 576 161 541 105 c 128,-1,12
 506 49 506 49 444.5 19.5 c 128,-1,13
 383 -10 383 -10 304 -10 c 0,14,15
 231 -10 231 -10 166 17 c 128,-1,16
 101 44 101 44 54 96 c 1,17,-1
 101 137 l 1,18,19
 150 90 150 90 191 68.5 c 128,-1,20
 232 47 232 47 294 47 c 0,21,22
 393 47 393 47 449.5 98.5 c 128,-1,23
 506 150 506 150 506 235 c 0,24,25
 506 315 506 315 456 356.5 c 128,-1,26
 406 398 406 398 330 398 c 0,27,28
 280 398 280 398 240.5 382 c 128,-1,29
 201 366 201 366 151 336 c 0,30,31
 146 332 146 332 143 332 c 0,32,33
 142 332 142 332 140.5 333.5 c 128,-1,34
 139 335 139 335 136 337 c 2,35,-1
 92 363 l 1,36,-1
 121 723 l 1,37,-1
 542 723 l 1,0,-1
EndSplineSet
Substitution2: "'onum' Oldstyle Figures in Latin lookup 24 subtable" five.osf
Substitution2: "'tnum' Tabular Numbers in Latin lookup 23 subtable" five.tf
Substitution2: "'frac' Diagonal Fractions in Latin lookup 17 subtable" five.numr
Substitution2: "'dnom' Denominators in Latin lookup 15 subtable" five.dnom
Substitution2: "'numr' Numerators in Latin lookup 14 subtable" five.numr
Substitution2: "'sups' Superscript in Latin lookup 13 subtable" uni2075
Substitution2: "'sinf' Scientific Inferiors in Latin lookup 12 subtable" five.subs
Substitution2: "'subs' Subscript in Latin lookup 11 subtable" five.subs
AlternateSubs2: "'aalt' Access All Alternates in Latin lookup 1 subtable" five.subs uni2075 five.numr five.dnom five.tf five.osf
EndChar

StartChar: six
Encoding: 54 54 25
Width: 601
GlyphClass: 2
Flags: W
LayerCount: 2
Fore
SplineSet
465 705.5 m 128,-1,1
 519 671 519 671 541 616 c 1,2,-1
 490 590 l 1,3,4
 459 636 459 636 426 659.5 c 128,-1,5
 393 683 393 683 334 683 c 0,6,7
 233 683 233 683 177.5 594.5 c 128,-1,8
 122 506 122 506 122 337 c 0,9,10
 122 309 122 309 123 295 c 1,11,12
 141 359 141 359 196.5 397.5 c 128,-1,13
 252 436 252 436 324 436 c 128,-1,14
 396 436 396 436 447 407 c 128,-1,15
 498 378 498 378 524 328.5 c 128,-1,16
 550 279 550 279 550 218 c 0,17,18
 550 151 550 151 519 101 c 128,-1,19
 488 51 488 51 434 24 c 128,-1,20
 380 -3 380 -3 312 -3 c 0,21,22
 189 -3 189 -3 120 92 c 128,-1,23
 51 187 51 187 51 359 c 0,24,25
 51 477 51 477 84.5 563 c 128,-1,26
 118 649 118 649 181.5 694.5 c 128,-1,27
 245 740 245 740 333 740 c 0,28,0
 411 740 411 740 465 705.5 c 128,-1,1
191.5 340 m 128,-1,30
 139 301 139 301 139 234 c 1,31,32
 155 144 155 144 199.5 99 c 128,-1,33
 244 54 244 54 313 54 c 0,34,35
 361 54 361 54 399.5 74.5 c 128,-1,36
 438 95 438 95 459.5 132 c 128,-1,37
 481 169 481 169 481 215 c 0,38,39
 481 260 481 260 461.5 297 c 128,-1,40
 442 334 442 334 405.5 356.5 c 128,-1,41
 369 379 369 379 320 379 c 0,42,29
 244 379 244 379 191.5 340 c 128,-1,30
EndSplineSet
Substitution2: "'onum' Oldstyle Figures in Latin lookup 24 subtable" six.osf
Substitution2: "'tnum' Tabular Numbers in Latin lookup 23 subtable" six.tf
Substitution2: "'frac' Diagonal Fractions in Latin lookup 17 subtable" six.numr
Substitution2: "'dnom' Denominators in Latin lookup 15 subtable" six.dnom
Substitution2: "'numr' Numerators in Latin lookup 14 subtable" six.numr
Substitution2: "'sups' Superscript in Latin lookup 13 subtable" uni2076
Substitution2: "'sinf' Scientific Inferiors in Latin lookup 12 subtable" six.subs
Substitution2: "'subs' Subscript in Latin lookup 11 subtable" six.subs
AlternateSubs2: "'aalt' Access All Alternates in Latin lookup 1 subtable" six.subs uni2076 six.numr six.dnom six.tf six.osf
EndChar

StartChar: seven
Encoding: 55 55 26
Width: 567
GlyphClass: 2
Flags: W
LayerCount: 2
Fore
SplineSet
531 723 m 1,0,-1
 531 658 l 1,1,2
 466 565 466 565 403 438 c 128,-1,3
 340 311 340 311 296 191.5 c 128,-1,4
 252 72 252 72 240 0 c 1,5,-1
 168 0 l 1,6,7
 184 78 184 78 222 189 c 128,-1,8
 260 300 260 300 320 425.5 c 128,-1,9
 380 551 380 551 457 665 c 1,10,-1
 38 665 l 1,11,-1
 38 723 l 1,12,-1
 531 723 l 1,0,-1
EndSplineSet
Substitution2: "'onum' Oldstyle Figures in Latin lookup 24 subtable" seven.osf
Substitution2: "'tnum' Tabular Numbers in Latin lookup 23 subtable" seven.tf
Substitution2: "'frac' Diagonal Fractions in Latin lookup 17 subtable" seven.numr
Substitution2: "'dnom' Denominators in Latin lookup 15 subtable" seven.dnom
Substitution2: "'numr' Numerators in Latin lookup 14 subtable" seven.numr
Substitution2: "'sups' Superscript in Latin lookup 13 subtable" uni2077
Substitution2: "'sinf' Scientific Inferiors in Latin lookup 12 subtable" seven.subs
Substitution2: "'subs' Subscript in Latin lookup 11 subtable" seven.subs
AlternateSubs2: "'aalt' Access All Alternates in Latin lookup 1 subtable" seven.subs uni2077 seven.numr seven.dnom seven.tf seven.osf
EndChar

StartChar: eight
Encoding: 56 56 27
Width: 614
GlyphClass: 2
Flags: W
LayerCount: 2
Fore
SplineSet
427 708 m 128,-1,1
 479 683 479 683 507.5 638 c 128,-1,2
 536 593 536 593 536 534 c 0,3,4
 536 429 536 429 423 366 c 1,5,6
 428 364 428 364 467.5 348.5 c 128,-1,7
 507 333 507 333 537.5 290.5 c 128,-1,8
 568 248 568 248 568 188 c 128,-1,9
 568 128 568 128 535 83.5 c 128,-1,10
 502 39 502 39 442 14.5 c 128,-1,11
 382 -10 382 -10 303 -10 c 0,12,13
 184 -10 184 -10 115.5 40 c 128,-1,14
 47 90 47 90 47 180 c 0,15,16
 47 231 47 231 79 281 c 128,-1,17
 111 331 111 331 183 365 c 1,18,19
 144 379 144 379 105 416 c 128,-1,20
 66 453 66 453 66 527 c 0,21,22
 66 585 66 585 97 632 c 128,-1,23
 128 679 128 679 182.5 706 c 128,-1,24
 237 733 237 733 306 733 c 128,-1,0
 375 733 375 733 427 708 c 128,-1,1
220 657.5 m 128,-1,26
 181 639 181 639 158.5 606 c 128,-1,27
 136 573 136 573 136 532 c 0,28,29
 136 435 136 435 245 412 c 2,30,-1
 351 387 l 2,31,32
 370 383 370 383 399 405 c 128,-1,33
 428 427 428 427 449.5 463.5 c 128,-1,34
 471 500 471 500 471 537 c 0,35,36
 471 599 471 599 426 637.5 c 128,-1,37
 381 676 381 676 307 676 c 0,38,25
 259 676 259 676 220 657.5 c 128,-1,26
446 85 m 128,-1,40
 498 123 498 123 498 187 c 0,41,42
 498 237 498 237 471.5 267 c 128,-1,43
 445 297 445 297 388 310 c 2,44,-1
 252 342 l 2,45,46
 232 347 232 347 198 326.5 c 128,-1,47
 164 306 164 306 138.5 268 c 128,-1,48
 113 230 113 230 113 186 c 0,49,50
 113 120 113 120 163.5 83.5 c 128,-1,51
 214 47 214 47 306 47 c 0,52,39
 394 47 394 47 446 85 c 128,-1,40
EndSplineSet
Substitution2: "'onum' Oldstyle Figures in Latin lookup 24 subtable" eight.osf
Substitution2: "'tnum' Tabular Numbers in Latin lookup 23 subtable" eight.tf
Substitution2: "'frac' Diagonal Fractions in Latin lookup 17 subtable" eight.numr
Substitution2: "'dnom' Denominators in Latin lookup 15 subtable" eight.dnom
Substitution2: "'numr' Numerators in Latin lookup 14 subtable" eight.numr
Substitution2: "'sups' Superscript in Latin lookup 13 subtable" uni2078
Substitution2: "'sinf' Scientific Inferiors in Latin lookup 12 subtable" eight.subs
Substitution2: "'subs' Subscript in Latin lookup 11 subtable" eight.subs
AlternateSubs2: "'aalt' Access All Alternates in Latin lookup 1 subtable" eight.subs uni2078 eight.numr eight.dnom eight.tf eight.osf
EndChar

StartChar: nine
Encoding: 57 57 28
Width: 601
GlyphClass: 2
Flags: W
LayerCount: 2
Fore
SplineSet
133 25 m 128,-1,1
 79 60 79 60 56 115 c 1,2,-1
 108 141 l 1,3,4
 138 95 138 95 171 71 c 128,-1,5
 204 47 204 47 263 47 c 0,6,7
 366 47 366 47 422.5 135 c 128,-1,8
 479 223 479 223 479 395 c 0,9,10
 479 423 479 423 478 437 c 1,11,12
 461 372 461 372 405 332.5 c 128,-1,13
 349 293 349 293 276 293 c 0,14,15
 205 293 205 293 153.5 322 c 128,-1,16
 102 351 102 351 75 401 c 128,-1,17
 48 451 48 451 48 513 c 0,18,19
 48 579 48 579 79 629 c 128,-1,20
 110 679 110 679 164 706 c 128,-1,21
 218 733 218 733 286 733 c 0,22,23
 367 733 367 733 426 690.5 c 128,-1,24
 485 648 485 648 516.5 567 c 128,-1,25
 548 486 548 486 548 372 c 0,26,27
 548 191 548 191 473 90.5 c 128,-1,28
 398 -10 398 -10 264 -10 c 0,29,0
 187 -10 187 -10 133 25 c 128,-1,1
368 369.5 m 128,-1,31
 410 388 410 388 434.5 421.5 c 128,-1,32
 459 455 459 455 459 497 c 1,33,34
 443 586 443 586 398.5 631 c 128,-1,35
 354 676 354 676 285 676 c 0,36,37
 212 676 212 676 165.5 631 c 128,-1,38
 119 586 119 586 119 516 c 0,39,40
 119 472 119 472 138 434 c 128,-1,41
 157 396 157 396 193 373.5 c 128,-1,42
 229 351 229 351 278 351 c 0,43,30
 326 351 326 351 368 369.5 c 128,-1,31
EndSplineSet
Substitution2: "'onum' Oldstyle Figures in Latin lookup 24 subtable" nine.osf
Substitution2: "'tnum' Tabular Numbers in Latin lookup 23 subtable" nine.tf
Substitution2: "'frac' Diagonal Fractions in Latin lookup 17 subtable" nine.numr
Substitution2: "'dnom' Denominators in Latin lookup 15 subtable" nine.dnom
Substitution2: "'numr' Numerators in Latin lookup 14 subtable" nine.numr
Substitution2: "'sups' Superscript in Latin lookup 13 subtable" uni2079
Substitution2: "'sinf' Scientific Inferiors in Latin lookup 12 subtable" nine.subs
Substitution2: "'subs' Subscript in Latin lookup 11 subtable" nine.subs
AlternateSubs2: "'aalt' Access All Alternates in Latin lookup 1 subtable" nine.subs uni2079 nine.numr nine.dnom nine.tf nine.osf
EndChar

StartChar: colon
Encoding: 58 58 29
Width: 205
GlyphClass: 2
Flags: W
LayerCount: 2
Fore
SplineSet
143 396 m 1,0,-1
 60 396 l 1,1,-1
 60 492 l 1,2,-1
 143 492 l 1,3,-1
 143 396 l 1,0,-1
143 3 m 1,4,-1
 60 3 l 1,5,-1
 60 98 l 1,6,-1
 143 98 l 1,7,-1
 143 3 l 1,4,-1
EndSplineSet
EndChar

StartChar: semicolon
Encoding: 59 59 30
Width: 231
GlyphClass: 2
Flags: W
LayerCount: 2
Fore
SplineSet
61 491 m 1,0,-1
 145 491 l 1,1,-1
 145 395 l 1,2,-1
 61 395 l 1,3,-1
 61 491 l 1,0,-1
100 0 m 1,4,-1
 65 0 l 1,5,-1
 65 95 l 1,6,-1
 149 95 l 1,7,-1
 149 11 l 1,8,-1
 77 -136 l 1,9,-1
 47 -136 l 1,10,-1
 100 0 l 1,4,-1
EndSplineSet
EndChar

StartChar: less
Encoding: 60 60 31
Width: 534
GlyphClass: 2
Flags: W
LayerCount: 2
Fore
SplineSet
460 158 m 1,0,-1
 60 315 l 1,1,-1
 60 379 l 1,2,-1
 461 540 l 1,3,-1
 461 473 l 1,4,-1
 142 347 l 1,5,-1
 460 221 l 1,6,-1
 460 158 l 1,0,-1
EndSplineSet
EndChar

StartChar: equal
Encoding: 61 61 32
Width: 540
GlyphClass: 2
Flags: W
LayerCount: 2
Fore
SplineSet
474 435 m 1,0,-1
 65 434 l 1,1,-1
 65 487 l 1,2,-1
 474 487 l 1,3,-1
 474 435 l 1,0,-1
474 216 m 1,4,-1
 65 216 l 1,5,-1
 65 268 l 1,6,-1
 474 269 l 1,7,-1
 474 216 l 1,4,-1
EndSplineSet
EndChar

StartChar: greater
Encoding: 62 62 33
Width: 534
GlyphClass: 2
Flags: W
LayerCount: 2
Fore
SplineSet
390 347 m 1,0,-1
 71 473 l 1,1,-1
 71 540 l 1,2,-1
 472 379 l 1,3,-1
 472 315 l 1,4,-1
 72 158 l 1,5,-1
 72 221 l 1,6,-1
 390 347 l 1,0,-1
EndSplineSet
EndChar

StartChar: question
Encoding: 63 63 34
Width: 513
GlyphClass: 2
Flags: W
LayerCount: 2
Fore
SplineSet
123.5 697 m 128,-1,1
 185 733 185 733 259 733 c 0,2,3
 323 733 323 733 371.5 711 c 128,-1,4
 420 689 420 689 446.5 649.5 c 128,-1,5
 473 610 473 610 473 558 c 0,6,7
 473 500 473 500 447.5 458 c 128,-1,8
 422 416 422 416 372 363 c 0,9,10
 321 308 321 308 295.5 265.5 c 128,-1,11
 270 223 270 223 270 164 c 1,12,-1
 211 164 l 1,13,14
 211 212 211 212 225.5 251 c 128,-1,15
 240 290 240 290 261 319 c 128,-1,16
 282 348 282 348 317 387 c 0,17,18
 361 436 361 436 383 472.5 c 128,-1,19
 405 509 405 509 405 556 c 0,20,21
 405 613 405 613 365 646 c 128,-1,22
 325 679 325 679 259 679 c 0,23,24
 206 679 206 679 157 649 c 128,-1,25
 108 619 108 619 91 578 c 1,26,-1
 31 599 l 1,27,0
 62 661 62 661 123.5 697 c 128,-1,1
282 0 m 1,28,-1
 199 0 l 1,29,-1
 199 95 l 1,30,-1
 282 95 l 1,31,-1
 282 0 l 1,28,-1
EndSplineSet
EndChar

StartChar: at
Encoding: 64 64 35
Width: 817
GlyphClass: 2
Flags: W
LayerCount: 2
Fore
SplineSet
426 -110 m 0,0,1
 311 -110 311 -110 226 -61.5 c 128,-1,2
 141 -13 141 -13 95.5 70 c 128,-1,3
 50 153 50 153 50 254 c 0,4,5
 50 359 50 359 99.5 448.5 c 128,-1,6
 149 538 149 538 237.5 591 c 128,-1,7
 326 644 326 644 439 644 c 0,8,9
 527 644 527 644 605 610 c 128,-1,10
 683 576 683 576 732 506 c 128,-1,11
 781 436 781 436 781 332 c 0,12,13
 781 258 781 258 756.5 200.5 c 128,-1,14
 732 143 732 143 689.5 111 c 128,-1,15
 647 79 647 79 594 79 c 0,16,17
 556 79 556 79 535.5 91.5 c 128,-1,18
 515 104 515 104 508 133 c 0,19,20
 507 140 507 140 504 140 c 0,21,22
 502 140 502 140 497 134 c 0,23,24
 446 65 446 65 360 65 c 0,25,26
 324 65 324 65 293 86.5 c 128,-1,27
 262 108 262 108 243.5 147.5 c 128,-1,28
 225 187 225 187 225 237 c 0,29,30
 225 299 225 299 249 351 c 128,-1,31
 273 403 273 403 315.5 433 c 128,-1,32
 358 463 358 463 411 463 c 0,33,34
 450 463 450 463 479.5 445.5 c 128,-1,35
 509 428 509 428 526 398 c 0,36,37
 527 395 527 395 529 396 c 128,-1,38
 531 397 531 397 532 401 c 2,39,-1
 542 438 l 1,40,-1
 593 438 l 1,41,-1
 555 212 l 2,42,43
 552 194 552 194 552 180 c 0,44,45
 552 153 552 153 563 141.5 c 128,-1,46
 574 130 574 130 597 130 c 0,47,48
 631 130 631 130 660 154.5 c 128,-1,49
 689 179 689 179 706 223.5 c 128,-1,50
 723 268 723 268 723 326 c 0,51,52
 723 417 723 417 681.5 477.5 c 128,-1,53
 640 538 640 538 575 566 c 128,-1,54
 510 594 510 594 438 594 c 0,55,56
 337 594 337 594 262 548 c 128,-1,57
 187 502 187 502 147 424 c 128,-1,58
 107 346 107 346 107 253 c 0,59,60
 107 166 107 166 145 94.5 c 128,-1,61
 183 23 183 23 258 -18.5 c 128,-1,62
 333 -60 333 -60 438 -60 c 0,63,64
 480 -60 480 -60 511.5 -51.5 c 128,-1,65
 543 -43 543 -43 565 -31 c 128,-1,66
 587 -19 587 -19 622 5 c 1,67,-1
 652 -35 l 1,68,69
 551 -110 551 -110 426 -110 c 0,0,1
308 150.5 m 128,-1,71
 330 118 330 118 370 118 c 0,72,73
 419 118 419 118 458 160.5 c 128,-1,74
 497 203 497 203 506 262 c 0,75,76
 509 280 509 280 509 295 c 0,77,78
 509 350 509 350 481 380 c 128,-1,79
 453 410 453 410 415 410 c 0,80,81
 358 410 358 410 322 361 c 128,-1,82
 286 312 286 312 286 240 c 0,83,70
 286 183 286 183 308 150.5 c 128,-1,71
EndSplineSet
EndChar

StartChar: A
Encoding: 65 65 36
Width: 690
GlyphClass: 2
Flags: W
AnchorPoint: "Anchor-5" 0 0 basechar 0
AnchorPoint: "Anchor-4" 0 0 basechar 0
AnchorPoint: "Anchor-3" 347 723 basechar 0
AnchorPoint: "Anchor-2" 639 11 basechar 0
LayerCount: 2
Fore
SplineSet
307 723 m 1,0,-1
 384 723 l 1,1,-1
 647 0 l 1,2,-1
 581 0 l 1,3,-1
 503 214 l 1,4,-1
 188 214 l 1,5,-1
 109 0 l 1,6,-1
 43 0 l 1,7,-1
 307 723 l 1,0,-1
484 276 m 1,8,-1
 346 659 l 1,9,-1
 207 276 l 1,10,-1
 484 276 l 1,8,-1
EndSplineSet
Substitution2: "Single Substitution lookup 30 subtable" ordfeminine
Substitution2: "'aalt' Access All Alternates in Latin lookup 0 subtable" ordfeminine
EndChar

StartChar: B
Encoding: 66 66 37
Width: 660
GlyphClass: 2
Flags: W
LayerCount: 2
Fore
SplineSet
101 723 m 1,0,-1
 318 723 l 2,1,2
 444 723 444 723 511.5 674.5 c 128,-1,3
 579 626 579 626 579 535 c 0,4,5
 579 473 579 473 546.5 432 c 128,-1,6
 514 391 514 391 440 368 c 1,7,8
 520 353 520 353 558.5 308 c 128,-1,9
 597 263 597 263 597 194 c 0,10,11
 597 97 597 97 527 48.5 c 128,-1,12
 457 0 457 0 323 0 c 2,13,-1
 101 0 l 1,14,-1
 101 723 l 1,0,-1
332 395 m 2,15,16
 408 395 408 395 462.5 425 c 128,-1,17
 517 455 517 455 517 527 c 0,18,19
 517 597 517 597 463.5 631.5 c 128,-1,20
 410 666 410 666 318 666 c 2,21,-1
 165 666 l 1,22,-1
 165 395 l 1,23,-1
 332 395 l 2,15,16
320 57 m 2,24,25
 426 57 426 57 479.5 89.5 c 128,-1,26
 533 122 533 122 533 192 c 0,27,28
 533 266 533 266 477.5 301.5 c 128,-1,29
 422 337 422 337 332 337 c 2,30,-1
 165 337 l 1,31,-1
 165 57 l 1,32,-1
 320 57 l 2,24,25
EndSplineSet
EndChar

StartChar: C
Encoding: 67 67 38
Width: 670
GlyphClass: 2
Flags: W
AnchorPoint: "Anchor-5" 0 0 basechar 0
AnchorPoint: "Anchor-4" 355 0 basechar 0
AnchorPoint: "Anchor-3" 355 723 basechar 0
AnchorPoint: "Anchor-2" 0 0 basechar 0
LayerCount: 2
Fore
SplineSet
480 705 m 128,-1,1
 538 677 538 677 573 629.5 c 128,-1,2
 608 582 608 582 614 525 c 1,3,-1
 546 519 l 1,4,5
 532 590 532 590 482 632 c 128,-1,6
 432 674 432 674 349 674 c 0,7,8
 239 674 239 674 183 595 c 128,-1,9
 127 516 127 516 127 360 c 0,10,11
 127 207 127 207 184 128 c 128,-1,12
 241 49 241 49 356 49 c 0,13,14
 427 49 427 49 477.5 88.5 c 128,-1,15
 528 128 528 128 544 197 c 1,16,-1
 611 188 l 1,17,18
 605 133 605 133 569.5 87.5 c 128,-1,19
 534 42 534 42 478 16 c 128,-1,20
 422 -10 422 -10 355 -10 c 0,21,22
 212 -10 212 -10 134 88 c 128,-1,23
 56 186 56 186 56 361 c 128,-1,24
 56 536 56 536 132.5 634.5 c 128,-1,25
 209 733 209 733 348 733 c 0,26,0
 422 733 422 733 480 705 c 128,-1,1
EndSplineSet
EndChar

StartChar: D
Encoding: 68 68 39
Width: 675
GlyphClass: 2
Flags: W
AnchorPoint: "Anchor-5" 0 0 basechar 0
AnchorPoint: "Anchor-4" 0 0 basechar 0
AnchorPoint: "Anchor-3" 330 723 basechar 0
AnchorPoint: "Anchor-2" 0 0 basechar 0
LayerCount: 2
Fore
SplineSet
243 722 m 2,0,1
 440 721 440 721 530 633.5 c 128,-1,2
 620 546 620 546 620 367 c 0,3,4
 620 180 620 180 525 90 c 128,-1,5
 430 0 430 0 231 0 c 2,6,-1
 101 0 l 1,7,-1
 101 723 l 1,8,-1
 243 722 l 2,0,1
168 59 m 1,9,-1
 230 59 l 2,10,11
 392 59 392 59 472.5 130 c 128,-1,12
 553 201 553 201 553 364 c 0,13,14
 553 477 553 477 516.5 543 c 128,-1,15
 480 609 480 609 410.5 637 c 128,-1,16
 341 665 341 665 235 665 c 2,17,-1
 168 665 l 1,18,-1
 168 59 l 1,9,-1
EndSplineSet
EndChar

StartChar: E
Encoding: 69 69 40
Width: 615
GlyphClass: 2
Flags: W
AnchorPoint: "Anchor-5" 0 0 basechar 0
AnchorPoint: "Anchor-4" 346 0 basechar 0
AnchorPoint: "Anchor-3" 330 723 basechar 0
AnchorPoint: "Anchor-2" 539 10 basechar 0
LayerCount: 2
Fore
SplineSet
101 723 m 1,0,-1
 535 723 l 1,1,-1
 535 664 l 1,2,-1
 165 664 l 1,3,-1
 165 395 l 1,4,-1
 504 395 l 1,5,-1
 504 336 l 1,6,-1
 165 336 l 1,7,-1
 165 61 l 1,8,-1
 547 60 l 1,9,-1
 547 0 l 1,10,-1
 101 0 l 1,11,-1
 101 723 l 1,0,-1
EndSplineSet
EndChar

StartChar: F
Encoding: 70 70 41
Width: 572
GlyphClass: 2
Flags: W
LayerCount: 2
Fore
SplineSet
529 723 m 1,0,-1
 529 664 l 1,1,-1
 168 664 l 1,2,-1
 168 394 l 1,3,-1
 499 394 l 1,4,-1
 499 336 l 1,5,-1
 168 336 l 1,6,-1
 168 0 l 1,7,-1
 101 0 l 1,8,-1
 101 723 l 1,9,-1
 529 723 l 1,0,-1
EndSplineSet
EndChar

StartChar: G
Encoding: 71 71 42
Width: 715
GlyphClass: 2
Flags: W
AnchorPoint: "Anchor-5" 0 0 basechar 0
AnchorPoint: "Anchor-4" 358 0 basechar 0
AnchorPoint: "Anchor-3" 354 723 basechar 0
AnchorPoint: "Anchor-2" 0 0 basechar 0
LayerCount: 2
Fore
SplineSet
194 34 m 128,-1,1
 127 78 127 78 91.5 161 c 128,-1,2
 56 244 56 244 56 359 c 0,3,4
 56 476 56 476 93 560.5 c 128,-1,5
 130 645 130 645 197 689 c 128,-1,6
 264 733 264 733 355 733 c 0,7,8
 420 733 420 733 477.5 705 c 128,-1,9
 535 677 535 677 572 629.5 c 128,-1,10
 609 582 609 582 614 527 c 1,11,-1
 544 520 l 1,12,13
 533 586 533 586 480 629.5 c 128,-1,14
 427 673 427 673 355 673 c 0,15,16
 246 673 246 673 185 592.5 c 128,-1,17
 124 512 124 512 124 365 c 0,18,19
 124 210 124 210 185 129.5 c 128,-1,20
 246 49 246 49 356 49 c 0,21,22
 421 49 421 49 467 79.5 c 128,-1,23
 513 110 513 110 536.5 155.5 c 128,-1,24
 560 201 560 201 561 246 c 2,25,-1
 563 321 l 1,26,-1
 373 321 l 1,27,-1
 373 371 l 1,28,-1
 628 370 l 1,29,-1
 628 0 l 1,30,-1
 575 0 l 1,31,-1
 575 119 l 1,32,33
 543 61 543 61 487.5 25.5 c 128,-1,34
 432 -10 432 -10 353 -10 c 0,35,0
 261 -10 261 -10 194 34 c 128,-1,1
EndSplineSet
EndChar

StartChar: H
Encoding: 72 72 43
Width: 700
GlyphClass: 2
Flags: W
AnchorPoint: "Anchor-5" 0 0 basechar 0
AnchorPoint: "Anchor-4" 350 0 basechar 0
AnchorPoint: "Anchor-3" 350 723 basechar 0
AnchorPoint: "Anchor-2" 0 0 basechar 0
LayerCount: 2
Fore
SplineSet
165 346 m 1,0,-1
 165 0 l 1,1,-1
 101 0 l 1,2,-1
 101 723 l 1,3,-1
 165 723 l 1,4,-1
 165 405 l 1,5,-1
 536 405 l 1,6,-1
 536 723 l 1,7,-1
 599 723 l 1,8,-1
 599 0 l 1,9,-1
 536 0 l 1,10,-1
 536 346 l 1,11,-1
 165 346 l 1,0,-1
EndSplineSet
EndChar

StartChar: I
Encoding: 73 73 44
Width: 266
GlyphClass: 2
Flags: W
AnchorPoint: "Anchor-5" 0 0 basechar 0
AnchorPoint: "Anchor-4" 136 0 basechar 0
AnchorPoint: "Anchor-3" 137 723 basechar 0
AnchorPoint: "Anchor-2" 155 9 basechar 0
LayerCount: 2
Fore
SplineSet
165 723 m 1,0,-1
 165 0 l 1,1,-1
 101 0 l 1,2,-1
 101 723 l 1,3,-1
 165 723 l 1,0,-1
EndSplineSet
EndChar

StartChar: J
Encoding: 74 74 45
Width: 374
GlyphClass: 2
Flags: W
AnchorPoint: "Anchor-5" 0 0 basechar 0
AnchorPoint: "Anchor-4" 0 0 basechar 0
AnchorPoint: "Anchor-3" 236 723 basechar 0
AnchorPoint: "Anchor-2" 0 0 basechar 0
LayerCount: 2
Fore
SplineSet
243 31 m 128,-1,1
 213 -10 213 -10 137 -10 c 0,2,3
 101 -10 101 -10 69 -1 c 128,-1,4
 37 8 37 8 24 16 c 1,5,-1
 32 80 l 1,6,-1
 53 70 l 2,7,8
 68 62 68 62 86 57.5 c 128,-1,9
 104 53 104 53 125 53 c 0,10,11
 173 53 173 53 191.5 80 c 128,-1,12
 210 107 210 107 210 174 c 2,13,-1
 210 723 l 1,14,-1
 273 723 l 1,15,-1
 273 154 l 2,16,0
 273 72 273 72 243 31 c 128,-1,1
EndSplineSet
EndChar

StartChar: K
Encoding: 75 75 46
Width: 659
GlyphClass: 2
Flags: W
AnchorPoint: "Anchor-5" 0 0 basechar 0
AnchorPoint: "Anchor-4" 334 0 basechar 0
AnchorPoint: "Anchor-3" 359 723 basechar 0
AnchorPoint: "Anchor-2" 0 0 basechar 0
LayerCount: 2
Fore
SplineSet
547 0 m 1,0,-1
 302 391 l 1,1,-1
 167 239 l 1,2,-1
 167 0 l 1,3,-1
 101 0 l 1,4,-1
 101 723 l 1,5,-1
 167 723 l 1,6,-1
 167 326 l 1,7,-1
 524 723 l 1,8,-1
 604 723 l 1,9,-1
 353 439 l 1,10,-1
 623 0 l 1,11,-1
 547 0 l 1,0,-1
EndSplineSet
EndChar

StartChar: L
Encoding: 76 76 47
Width: 557
GlyphClass: 2
Flags: W
AnchorPoint: "Anchor-5" 420 723 basechar 0
AnchorPoint: "Anchor-4" 307 0 basechar 0
AnchorPoint: "Anchor-3" 136 723 basechar 0
AnchorPoint: "Anchor-2" 0 0 basechar 0
LayerCount: 2
Fore
SplineSet
168 723 m 1,0,-1
 168 61 l 1,1,-1
 525 61 l 1,2,-1
 525 0 l 1,3,-1
 101 0 l 1,4,-1
 101 723 l 1,5,-1
 168 723 l 1,0,-1
EndSplineSet
EndChar

StartChar: M
Encoding: 77 77 48
Width: 864
GlyphClass: 2
Flags: W
LayerCount: 2
Fore
SplineSet
101 723 m 1,0,-1
 184 723 l 1,1,-1
 431 81 l 1,2,-1
 681 723 l 1,3,-1
 762 723 l 1,4,-1
 762 0 l 1,5,-1
 696 0 l 1,6,-1
 696 602 l 1,7,-1
 466 0 l 1,8,-1
 395 0 l 1,9,-1
 168 595 l 1,10,-1
 168 0 l 1,11,-1
 101 0 l 1,12,-1
 101 723 l 1,0,-1
EndSplineSet
EndChar

StartChar: N
Encoding: 78 78 49
Width: 735
GlyphClass: 2
Flags: W
AnchorPoint: "Anchor-5" 0 0 basechar 0
AnchorPoint: "Anchor-4" 347 0 basechar 0
AnchorPoint: "Anchor-3" 379 723 basechar 0
AnchorPoint: "Anchor-2" 0 0 basechar 0
LayerCount: 2
Fore
SplineSet
633 723 m 1,0,-1
 633 0 l 1,1,-1
 577 0 l 1,2,-1
 165 610 l 1,3,-1
 165 0 l 1,4,-1
 101 0 l 1,5,-1
 101 723 l 1,6,-1
 159 723 l 1,7,-1
 570 116 l 1,8,-1
 570 723 l 1,9,-1
 633 723 l 1,0,-1
EndSplineSet
EndChar

StartChar: O
Encoding: 79 79 50
Width: 717
GlyphClass: 2
Flags: W
AnchorPoint: "Anchor-5" 0 0 basechar 0
AnchorPoint: "Anchor-4" 361 0 basechar 0
AnchorPoint: "Anchor-3" 361 723 basechar 0
AnchorPoint: "Anchor-2" 432 9 basechar 0
LayerCount: 2
Fore
SplineSet
136 86 m 128,-1,1
 56 182 56 182 56 358 c 0,2,3
 56 477 56 477 93 561.5 c 128,-1,4
 130 646 130 646 198 689.5 c 128,-1,5
 266 733 266 733 360 733 c 0,6,7
 453 733 453 733 520.5 689.5 c 128,-1,8
 588 646 588 646 624.5 562.5 c 128,-1,9
 661 479 661 479 661 360 c 0,10,11
 661 183 661 183 581 86.5 c 128,-1,12
 501 -10 501 -10 359 -10 c 0,13,0
 216 -10 216 -10 136 86 c 128,-1,1
532.5 126 m 128,-1,15
 591 203 591 203 591 360 c 0,16,17
 591 518 591 518 532 596 c 128,-1,18
 473 674 473 674 360 674 c 128,-1,19
 247 674 247 674 187 595.5 c 128,-1,20
 127 517 127 517 127 360 c 0,21,22
 127 204 127 204 187 126.5 c 128,-1,23
 247 49 247 49 361 49 c 0,24,14
 474 49 474 49 532.5 126 c 128,-1,15
EndSplineSet
Substitution2: "Single Substitution lookup 30 subtable" ordmasculine
Substitution2: "'aalt' Access All Alternates in Latin lookup 0 subtable" ordmasculine
EndChar

StartChar: P
Encoding: 80 80 51
Width: 631
GlyphClass: 2
Flags: W
LayerCount: 2
Fore
SplineSet
101 723 m 1,0,-1
 334 723 l 2,1,2
 455 723 455 723 526.5 672 c 128,-1,3
 598 621 598 621 598 516 c 128,-1,4
 598 411 598 411 529 358.5 c 128,-1,5
 460 306 460 306 343 306 c 2,6,-1
 168 306 l 1,7,-1
 168 0 l 1,8,-1
 101 0 l 1,9,-1
 101 723 l 1,0,-1
342 365 m 2,10,11
 431 365 431 365 482 403 c 128,-1,12
 533 441 533 441 533 520 c 0,13,14
 533 598 533 598 482 631.5 c 128,-1,15
 431 665 431 665 336 665 c 2,16,-1
 168 665 l 1,17,-1
 168 365 l 1,18,-1
 342 365 l 2,10,11
EndSplineSet
EndChar

StartChar: Q
Encoding: 81 81 52
Width: 721
GlyphClass: 2
Flags: W
LayerCount: 2
Fore
SplineSet
133.5 636 m 128,-1,1
 214 733 214 733 356 733 c 128,-1,2
 498 733 498 733 578 636.5 c 128,-1,3
 658 540 658 540 658 360 c 0,4,5
 658 238 658 238 621.5 155.5 c 128,-1,6
 585 73 585 73 505 28 c 1,7,8
 526 -16 526 -16 564 -38 c 128,-1,9
 602 -60 602 -60 650 -62 c 1,10,-1
 650 -120 l 1,11,12
 594 -120 594 -120 537.5 -93.5 c 128,-1,13
 481 -67 481 -67 443 0 c 1,14,15
 388 -10 388 -10 356 -10 c 0,16,17
 214 -10 214 -10 133.5 85 c 128,-1,18
 53 180 53 180 53 360 c 0,19,0
 53 539 53 539 133.5 636 c 128,-1,1
182.5 125.5 m 128,-1,21
 242 49 242 49 356 49 c 0,22,23
 469 49 469 49 528.5 126 c 128,-1,24
 588 203 588 203 588 360 c 0,25,26
 588 515 588 515 529 594.5 c 128,-1,27
 470 674 470 674 356 674 c 128,-1,28
 242 674 242 674 182.5 594.5 c 128,-1,29
 123 515 123 515 123 358 c 0,30,20
 123 202 123 202 182.5 125.5 c 128,-1,21
EndSplineSet
EndChar

StartChar: R
Encoding: 82 82 53
Width: 668
GlyphClass: 2
Flags: W
AnchorPoint: "Anchor-5" 0 0 basechar 0
AnchorPoint: "Anchor-4" 329 0 basechar 0
AnchorPoint: "Anchor-3" 322 723 basechar 0
AnchorPoint: "Anchor-2" 0 0 basechar 0
LayerCount: 2
Fore
SplineSet
525 0 m 1,0,-1
 386 329 l 1,1,-1
 165 329 l 1,2,-1
 165 0 l 1,3,-1
 101 0 l 1,4,-1
 101 723 l 1,5,-1
 368 723 l 2,6,7
 478 723 478 723 537 674.5 c 128,-1,8
 596 626 596 626 596 536 c 0,9,10
 596 454 596 454 553 407.5 c 128,-1,11
 510 361 510 361 448 342 c 1,12,-1
 594 0 l 1,13,-1
 525 0 l 1,0,-1
530 529 m 0,14,15
 530 667 530 667 363 667 c 2,16,-1
 165 667 l 1,17,-1
 165 386 l 1,18,-1
 336 386 l 2,19,20
 530 386 530 386 530 529 c 0,14,15
EndSplineSet
EndChar

StartChar: S
Encoding: 83 83 54
Width: 657
GlyphClass: 2
Flags: W
AnchorPoint: "Anchor-5" 0 0 basechar 0
AnchorPoint: "Anchor-4" 324 0 basechar 0
AnchorPoint: "Anchor-3" 329 723 basechar 0
AnchorPoint: "Anchor-2" 0 0 basechar 0
LayerCount: 2
Fore
SplineSet
206 12 m 128,-1,1
 146 34 146 34 106 75.5 c 128,-1,2
 66 117 66 117 56 175 c 1,3,-1
 123 183 l 1,4,5
 138 117 138 117 196.5 81.5 c 128,-1,6
 255 46 255 46 334 46 c 0,7,8
 392 46 392 46 437 63 c 128,-1,9
 482 80 482 80 507.5 110.5 c 128,-1,10
 533 141 533 141 533 180 c 0,11,12
 533 234 533 234 501 267 c 128,-1,13
 469 300 469 300 403 316 c 2,14,-1
 250 353 l 2,15,16
 167 372 167 372 123 415.5 c 128,-1,17
 79 459 79 459 79 527 c 0,18,19
 79 586 79 586 110.5 632.5 c 128,-1,20
 142 679 142 679 199.5 705.5 c 128,-1,21
 257 732 257 732 330 732 c 0,22,23
 410 732 410 732 466.5 705 c 128,-1,24
 523 678 523 678 553 633 c 128,-1,25
 583 588 583 588 588 534 c 1,26,-1
 524 528 l 1,27,28
 511 604 511 604 458.5 639 c 128,-1,29
 406 674 406 674 329 674 c 0,30,31
 285 674 285 674 243 658 c 128,-1,32
 201 642 201 642 174.5 610 c 128,-1,33
 148 578 148 578 148 532 c 128,-1,34
 148 486 148 486 179.5 456 c 128,-1,35
 211 426 211 426 287 407 c 2,36,-1
 435 370 l 2,37,38
 601 331 601 331 601 181 c 0,39,40
 601 128 601 128 570 84.5 c 128,-1,41
 539 41 539 41 478.5 15.5 c 128,-1,42
 418 -10 418 -10 334 -10 c 0,43,0
 266 -10 266 -10 206 12 c 128,-1,1
EndSplineSet
EndChar

StartChar: T
Encoding: 84 84 55
Width: 558
GlyphClass: 2
Flags: W
AnchorPoint: "Anchor-5" 0 0 basechar 0
AnchorPoint: "Anchor-4" 290 0 basechar 0
AnchorPoint: "Anchor-3" 290 723 basechar 0
AnchorPoint: "Anchor-2" 0 0 basechar 0
LayerCount: 2
Fore
SplineSet
15 723 m 1,0,-1
 544 723 l 1,1,-1
 544 663 l 1,2,-1
 319 663 l 1,3,-1
 319 0 l 1,4,-1
 256 0 l 1,5,-1
 256 663 l 1,6,-1
 15 663 l 1,7,-1
 15 723 l 1,0,-1
EndSplineSet
EndChar

StartChar: U
Encoding: 85 85 56
Width: 704
GlyphClass: 2
Flags: W
AnchorPoint: "Anchor-5" 0 0 basechar 0
AnchorPoint: "Anchor-4" 0 0 basechar 0
AnchorPoint: "Anchor-3" 351 723 basechar 0
AnchorPoint: "Anchor-2" 423 9 basechar 0
LayerCount: 2
Fore
SplineSet
541.5 52 m 128,-1,1
 480 -10 480 -10 352 -10 c 0,2,3
 222 -10 222 -10 161.5 53.5 c 128,-1,4
 101 117 101 117 101 248 c 2,5,-1
 101 723 l 1,6,-1
 168 723 l 1,7,-1
 168 233 l 2,8,9
 168 141 168 141 214.5 94.5 c 128,-1,10
 261 48 261 48 352 48 c 0,11,12
 444 48 444 48 491.5 94.5 c 128,-1,13
 539 141 539 141 539 233 c 2,14,-1
 539 723 l 1,15,-1
 603 723 l 1,16,-1
 603 236 l 2,17,0
 603 114 603 114 541.5 52 c 128,-1,1
EndSplineSet
EndChar

StartChar: V
Encoding: 86 86 57
Width: 622
GlyphClass: 2
Flags: W
LayerCount: 2
Fore
SplineSet
350 0 m 1,0,-1
 268 0 l 1,1,-1
 14 723 l 1,2,-1
 79 723 l 1,3,-1
 309 70 l 1,4,-1
 545 723 l 1,5,-1
 609 723 l 1,6,-1
 350 0 l 1,0,-1
EndSplineSet
EndChar

StartChar: W
Encoding: 87 87 58
Width: 947
GlyphClass: 2
Flags: W
AnchorPoint: "Anchor-5" 0 0 basechar 0
AnchorPoint: "Anchor-4" 0 0 basechar 0
AnchorPoint: "Anchor-3" 478 723 basechar 0
AnchorPoint: "Anchor-2" 0 0 basechar 0
LayerCount: 2
Fore
SplineSet
712 0 m 1,0,-1
 643 0 l 1,1,-1
 472 608 l 1,2,-1
 298 0 l 1,3,-1
 232 0 l 1,4,-1
 26 723 l 1,5,-1
 93 723 l 1,6,-1
 266 94 l 1,7,-1
 445 723 l 1,8,-1
 499 723 l 1,9,-1
 676 94 l 1,10,-1
 855 723 l 1,11,-1
 921 723 l 1,12,-1
 712 0 l 1,0,-1
EndSplineSet
EndChar

StartChar: X
Encoding: 88 88 59
Width: 630
GlyphClass: 2
Flags: W
LayerCount: 2
Fore
SplineSet
523 0 m 1,0,-1
 312 316 l 1,1,-1
 101 0 l 1,2,-1
 26 0 l 1,3,-1
 274 370 l 1,4,-1
 37 723 l 1,5,-1
 118 723 l 1,6,-1
 314 427 l 1,7,-1
 512 723 l 1,8,-1
 586 723 l 1,9,-1
 352 374 l 1,10,-1
 604 0 l 1,11,-1
 523 0 l 1,0,-1
EndSplineSet
EndChar

StartChar: Y
Encoding: 89 89 60
Width: 566
GlyphClass: 2
Flags: W
AnchorPoint: "Anchor-5" 0 0 basechar 0
AnchorPoint: "Anchor-4" 0 0 basechar 0
AnchorPoint: "Anchor-3" 284 723 basechar 0
AnchorPoint: "Anchor-2" 0 0 basechar 0
LayerCount: 2
Fore
SplineSet
316 309 m 1,0,-1
 316 0 l 1,1,-1
 253 0 l 1,2,-1
 253 310 l 1,3,-1
 9 723 l 1,4,-1
 79 723 l 1,5,-1
 285 369 l 1,6,-1
 488 723 l 1,7,-1
 557 723 l 1,8,-1
 316 309 l 1,0,-1
EndSplineSet
EndChar

StartChar: Z
Encoding: 90 90 61
Width: 605
GlyphClass: 2
Flags: W
AnchorPoint: "Anchor-5" 0 0 basechar 0
AnchorPoint: "Anchor-4" 314 0 basechar 0
AnchorPoint: "Anchor-3" 311 723 basechar 0
AnchorPoint: "Anchor-2" 0 0 basechar 0
LayerCount: 2
Fore
SplineSet
54 40 m 1,0,-1
 466 665 l 1,1,-1
 66 665 l 1,2,-1
 66 723 l 1,3,-1
 552 723 l 1,4,-1
 552 684 l 1,5,-1
 138 58 l 1,6,-1
 551 58 l 1,7,-1
 551 0 l 1,8,-1
 54 0 l 1,9,-1
 54 40 l 1,0,-1
EndSplineSet
EndChar

StartChar: bracketleft
Encoding: 91 91 62
Width: 284
GlyphClass: 2
Flags: W
LayerCount: 2
Fore
SplineSet
262 723 m 1,0,-1
 262 676 l 1,1,-1
 159 676 l 1,2,-1
 159 -114 l 1,3,-1
 261 -114 l 1,4,-1
 261 -161 l 1,5,-1
 100 -161 l 1,6,-1
 99 723 l 1,7,-1
 262 723 l 1,0,-1
EndSplineSet
EndChar

StartChar: backslash
Encoding: 92 92 63
Width: 333
GlyphClass: 2
Flags: W
LayerCount: 2
Fore
SplineSet
12 723 m 1,0,-1
 68 723 l 1,1,-1
 317 -50 l 1,2,-1
 260 -50 l 1,3,-1
 12 723 l 1,0,-1
EndSplineSet
EndChar

StartChar: bracketright
Encoding: 93 93 64
Width: 300
GlyphClass: 2
Flags: W
LayerCount: 2
Fore
SplineSet
23 723 m 1,0,-1
 23 676 l 1,1,-1
 126 676 l 1,2,-1
 126 -114 l 1,3,-1
 24 -114 l 1,4,-1
 24 -161 l 1,5,-1
 185 -161 l 1,6,-1
 186 723 l 1,7,-1
 23 723 l 1,0,-1
EndSplineSet
EndChar

StartChar: asciicircum
Encoding: 94 94 65
Width: 468
GlyphClass: 2
Flags: W
LayerCount: 2
Fore
SplineSet
232 444 m 1,0,-1
 108 133 l 1,1,-1
 51 133 l 1,2,-1
 196 491 l 2,3,4
 210 526 210 526 232 526 c 0,5,6
 242 526 242 526 252 517 c 128,-1,7
 262 508 262 508 268 491 c 2,8,-1
 415 131 l 1,9,-1
 355 131 l 1,10,-1
 232 444 l 1,0,-1
EndSplineSet
EndChar

StartChar: underscore
Encoding: 95 95 66
Width: 502
GlyphClass: 2
Flags: W
LayerCount: 2
Fore
SplineSet
435 -107 m 1,0,-1
 65 -108 l 1,1,-1
 65 -54 l 1,2,-1
 435 -53 l 1,3,-1
 435 -107 l 1,0,-1
EndSplineSet
EndChar

StartChar: grave
Encoding: 96 96 67
Width: 276
GlyphClass: 2
Flags: W
LayerCount: 2
Fore
SplineSet
266 637 m 1,0,-1
 253 599 l 1,1,-1
 8 675 l 1,2,-1
 27 732 l 1,3,-1
 266 637 l 1,0,-1
EndSplineSet
EndChar

StartChar: a
Encoding: 97 97 68
Width: 554
GlyphClass: 2
Flags: W
AnchorPoint: "Anchor-5" 0 0 basechar 0
AnchorPoint: "Anchor-4" 0 0 basechar 0
AnchorPoint: "Anchor-3" 276 517 basechar 0
AnchorPoint: "Anchor-2" 460 13 basechar 0
LayerCount: 2
Fore
SplineSet
100.5 29 m 128,-1,1
 55 68 55 68 55 136 c 0,2,3
 55 194 55 194 80 228.5 c 128,-1,4
 105 263 105 263 158 281 c 128,-1,5
 211 299 211 299 301 305 c 2,6,-1
 408 313 l 1,7,-1
 408 354 l 2,8,9
 408 410 408 410 372.5 442.5 c 128,-1,10
 337 475 337 475 276 475 c 0,11,12
 182 475 182 475 121 387 c 1,13,-1
 69 404 l 1,14,15
 97 461 97 461 151 494 c 128,-1,16
 205 527 205 527 279 527 c 0,17,18
 369 527 369 527 419 482.5 c 128,-1,19
 469 438 469 438 469 359 c 2,20,-1
 469 0 l 1,21,-1
 414 0 l 1,22,-1
 410 77 l 1,23,24
 332 -10 332 -10 223 -10 c 0,25,0
 146 -10 146 -10 100.5 29 c 128,-1,1
316.5 58.5 m 128,-1,27
 356 77 356 77 382 107 c 128,-1,28
 408 137 408 137 408 168 c 2,29,-1
 408 268 l 1,30,-1
 318 261 l 2,31,32
 243 256 243 256 200.5 243.5 c 128,-1,33
 158 231 158 231 138 207 c 128,-1,34
 118 183 118 183 118 141 c 0,35,36
 118 94 118 94 150.5 67 c 128,-1,37
 183 40 183 40 238 40 c 0,38,26
 277 40 277 40 316.5 58.5 c 128,-1,27
EndSplineSet
Substitution2: "Single Substitution lookup 30 subtable" ordfeminine
Substitution2: "'aalt' Access All Alternates in Latin lookup 0 subtable" ordfeminine
EndChar

StartChar: b
Encoding: 98 98 69
Width: 587
GlyphClass: 2
Flags: W
LayerCount: 2
Fore
SplineSet
201.5 19 m 128,-1,1
 158 48 158 48 142 77 c 1,2,-1
 136 0 l 1,3,-1
 85 0 l 1,4,-1
 85 743 l 1,5,-1
 148 743 l 1,6,-1
 148 447 l 1,7,8
 166 473 166 473 211 500 c 128,-1,9
 256 527 256 527 322 527 c 0,10,11
 427 527 427 527 479.5 453 c 128,-1,12
 532 379 532 379 532 260 c 0,13,14
 532 134 532 134 473.5 62 c 128,-1,15
 415 -10 415 -10 310 -10 c 0,16,0
 245 -10 245 -10 201.5 19 c 128,-1,1
419 97 m 128,-1,18
 466 152 466 152 466 261 c 0,19,20
 466 362 466 362 424 418 c 128,-1,21
 382 474 382 474 305 474 c 0,22,23
 256 474 256 474 215 449 c 128,-1,24
 174 424 174 424 148 383 c 1,25,-1
 148 187 l 2,26,27
 148 148 148 148 169.5 114.5 c 128,-1,28
 191 81 191 81 226 61.5 c 128,-1,29
 261 42 261 42 298 42 c 0,30,17
 372 42 372 42 419 97 c 128,-1,18
EndSplineSet
EndChar

StartChar: c
Encoding: 99 99 70
Width: 538
GlyphClass: 2
Flags: W
AnchorPoint: "Anchor-5" 0 0 basechar 0
AnchorPoint: "Anchor-4" 285 0 basechar 0
AnchorPoint: "Anchor-3" 283 517 basechar 0
AnchorPoint: "Anchor-2" 0 0 basechar 0
LayerCount: 2
Fore
SplineSet
398.5 493.5 m 128,-1,1
 445 460 445 460 477 398 c 1,2,-1
 424 380 l 1,3,4
 385 432 385 432 357.5 452 c 128,-1,5
 330 472 330 472 289 472 c 0,6,7
 210 472 210 472 163.5 413.5 c 128,-1,8
 117 355 117 355 117 258 c 0,9,10
 117 159 117 159 163 100.5 c 128,-1,11
 209 42 209 42 288 42 c 0,12,13
 336 42 336 42 368.5 67 c 128,-1,14
 401 92 401 92 431 143 c 1,15,-1
 483 124 l 1,16,17
 418 -10 418 -10 284 -10 c 0,18,19
 214 -10 214 -10 162 23.5 c 128,-1,20
 110 57 110 57 82 117 c 128,-1,21
 54 177 54 177 54 256 c 128,-1,22
 54 335 54 335 82 396.5 c 128,-1,23
 110 458 110 458 162.5 492.5 c 128,-1,24
 215 527 215 527 284 527 c 0,25,0
 352 527 352 527 398.5 493.5 c 128,-1,1
EndSplineSet
EndChar

StartChar: d
Encoding: 100 100 71
Width: 576
GlyphClass: 2
Flags: W
AnchorPoint: "Anchor-5" 597 691 basechar 0
AnchorPoint: "Anchor-4" 286 0 basechar 0
AnchorPoint: "Anchor-3" 0 0 basechar 0
AnchorPoint: "Anchor-2" 0 0 basechar 0
LayerCount: 2
Fore
SplineSet
111 57.5 m 128,-1,1
 54 125 54 125 54 251 c 128,-1,2
 54 377 54 377 112 452 c 128,-1,3
 170 527 170 527 273 527 c 0,4,5
 317 527 317 527 354 511 c 128,-1,6
 391 495 391 495 428 462 c 1,7,-1
 428 743 l 1,8,-1
 491 743 l 1,9,-1
 491 0 l 1,10,-1
 439 0 l 1,11,-1
 436 76 l 1,12,13
 369 -10 369 -10 266 -10 c 0,14,0
 168 -10 168 -10 111 57.5 c 128,-1,1
353.5 62.5 m 128,-1,16
 388 83 388 83 408 114.5 c 128,-1,17
 428 146 428 146 428 177 c 2,18,-1
 428 395 l 1,19,20
 366 474 366 474 284 474 c 0,21,22
 207 474 207 474 162.5 417 c 128,-1,23
 118 360 118 360 118 255 c 0,24,25
 118 149 118 149 162 95.5 c 128,-1,26
 206 42 206 42 278 42 c 0,27,15
 319 42 319 42 353.5 62.5 c 128,-1,16
EndSplineSet
EndChar

StartChar: e
Encoding: 101 101 72
Width: 554
GlyphClass: 2
Flags: W
AnchorPoint: "Anchor-5" 0 0 basechar 0
AnchorPoint: "Anchor-4" 276 0 basechar 0
AnchorPoint: "Anchor-3" 283 517 basechar 0
AnchorPoint: "Anchor-2" 381 19 basechar 0
LayerCount: 2
Fore
SplineSet
164 100 m 128,-1,1
 208 44 208 44 292 44 c 0,2,3
 400 44 400 44 433 130 c 1,4,-1
 491 117 l 1,5,6
 472 57 472 57 418.5 23.5 c 128,-1,7
 365 -10 365 -10 292 -10 c 0,8,9
 222 -10 222 -10 168 21.5 c 128,-1,10
 114 53 114 53 84 112.5 c 128,-1,11
 54 172 54 172 54 254 c 0,12,13
 54 380 54 380 114.5 453.5 c 128,-1,14
 175 527 175 527 283 527 c 0,15,16
 386 527 386 527 443 460 c 128,-1,17
 500 393 500 393 500 274 c 2,18,-1
 500 243 l 1,19,-1
 120 243 l 1,20,0
 120 156 120 156 164 100 c 128,-1,1
437 293 m 1,21,22
 437 374 437 374 397.5 424 c 128,-1,23
 358 474 358 474 282 474 c 0,24,25
 228 474 228 474 191.5 448 c 128,-1,26
 155 422 155 422 137.5 380.5 c 128,-1,27
 120 339 120 339 120 293 c 1,28,-1
 437 293 l 1,21,22
EndSplineSet
EndChar

StartChar: f
Encoding: 102 102 73
Width: 383
GlyphClass: 2
Flags: W
LayerCount: 2
Fore
SplineSet
346 468 m 1,0,-1
 211 468 l 1,1,-1
 211 0 l 1,2,-1
 148 0 l 1,3,-1
 148 468 l 1,4,-1
 31 468 l 1,5,-1
 31 517 l 1,6,-1
 148 517 l 1,7,-1
 148 600 l 2,8,9
 148 662 148 662 176.5 692.5 c 128,-1,10
 205 723 205 723 265 723 c 2,11,-1
 351 723 l 1,12,-1
 351 675 l 1,13,-1
 269 675 l 2,14,15
 236 675 236 675 223.5 657 c 128,-1,16
 211 639 211 639 211 601 c 2,17,-1
 211 517 l 1,18,-1
 346 517 l 1,19,-1
 346 468 l 1,0,-1
EndSplineSet
EndChar

StartChar: g
Encoding: 103 103 74
Width: 591
GlyphClass: 2
Flags: W
AnchorPoint: "Anchor-5" 0 0 basechar 0
AnchorPoint: "Anchor-4" 0 0 basechar 0
AnchorPoint: "Anchor-3" 291 517 basechar 0
AnchorPoint: "Anchor-2" 0 0 basechar 0
LayerCount: 2
Fore
SplineSet
103.5 -133.5 m 128,-1,1
 40 -96 40 -96 40 -30 c 0,2,3
 40 11 40 11 65 37 c 128,-1,4
 90 63 90 63 110.5 75 c 128,-1,5
 131 87 131 87 136 90 c 1,6,7
 132 93 132 93 118 101 c 128,-1,8
 104 109 104 109 96 121 c 128,-1,9
 88 133 88 133 88 149 c 0,10,11
 88 172 88 172 110 191 c 128,-1,12
 132 210 132 210 172 220 c 1,13,14
 122 246 122 246 100.5 279 c 128,-1,15
 79 312 79 312 79 361 c 0,16,17
 79 438 79 438 137 481.5 c 128,-1,18
 195 525 195 525 294 525 c 0,19,20
 341 525 341 525 376 513.5 c 128,-1,21
 411 502 411 502 441 478 c 1,22,-1
 562 529 l 1,23,-1
 562 458 l 1,24,-1
 471 440 l 1,25,26
 479 424 479 424 485 401 c 128,-1,27
 491 378 491 378 491 361 c 0,28,29
 491 291 491 291 439 246 c 128,-1,30
 387 201 387 201 286 201 c 1,31,-1
 266 202 l 1,32,33
 205 201 205 201 177.5 189 c 128,-1,34
 150 177 150 177 150 160 c 0,35,36
 150 145 150 145 172 138 c 128,-1,37
 194 131 194 131 254 127 c 2,38,-1
 369 120 l 2,39,40
 527 110 527 110 527 -16 c 0,41,42
 527 -89 527 -89 463.5 -130 c 128,-1,43
 400 -171 400 -171 285 -171 c 0,44,0
 167 -171 167 -171 103.5 -133.5 c 128,-1,1
394 277.5 m 128,-1,46
 430 306 430 306 430 361 c 0,47,48
 430 418 430 418 393.5 448.5 c 128,-1,49
 357 479 357 479 288 479 c 128,-1,50
 219 479 219 479 181 448 c 128,-1,51
 143 417 143 417 143 361 c 0,52,53
 143 306 143 306 180.5 277.5 c 128,-1,54
 218 249 218 249 288 249 c 128,-1,45
 358 249 358 249 394 277.5 c 128,-1,46
464 -22 m 0,55,56
 464 16 464 16 440 37 c 128,-1,57
 416 58 416 58 361 62 c 2,58,-1
 201 72 l 2,59,60
 183 73 183 73 160 60.5 c 128,-1,61
 137 48 137 48 120.5 26 c 128,-1,62
 104 4 104 4 104 -23 c 0,63,64
 104 -72 104 -72 154 -98 c 128,-1,65
 204 -124 204 -124 297 -124 c 0,66,67
 464 -124 464 -124 464 -22 c 0,55,56
EndSplineSet
EndChar

StartChar: h
Encoding: 104 104 75
Width: 579
GlyphClass: 2
Flags: W
AnchorPoint: "Anchor-5" 0 0 basechar 0
AnchorPoint: "Anchor-4" 299 0 basechar 0
AnchorPoint: "Anchor-3" 338 517 basechar 0
AnchorPoint: "Anchor-2" 0 0 basechar 0
LayerCount: 2
Fore
SplineSet
85 743 m 1,0,-1
 145 743 l 1,1,-1
 145 442 l 1,2,3
 206 488 206 488 243.5 506.5 c 128,-1,4
 281 525 281 525 333 525 c 0,5,6
 409 525 409 525 452 484.5 c 128,-1,7
 495 444 495 444 495 377 c 2,8,-1
 495 0 l 1,9,-1
 431 0 l 1,10,-1
 431 361 l 2,11,12
 431 470 431 470 320 470 c 0,13,14
 276 470 276 470 239 451.5 c 128,-1,15
 202 433 202 433 148 388 c 1,16,-1
 148 0 l 1,17,-1
 85 0 l 1,18,-1
 85 743 l 1,0,-1
EndSplineSet
EndChar

StartChar: i
Encoding: 105 105 76
Width: 240
GlyphClass: 2
Flags: W
LayerCount: 2
Fore
SplineSet
156 636 m 1,0,-1
 85 636 l 1,1,-1
 85 743 l 1,2,-1
 156 743 l 1,3,-1
 156 636 l 1,0,-1
152 0 m 1,4,-1
 89 0 l 1,5,-1
 89 517 l 1,6,-1
 152 517 l 1,7,-1
 152 0 l 1,4,-1
EndSplineSet
Substitution2: "Single Substitution lookup 28 subtable" dotlessi
Substitution2: "'locl' Localized Forms in Latin lookup 10 subtable" i.loclTRK
Substitution2: "'locl' Localized Forms in Latin lookup 9 subtable" i.loclTRK
Substitution2: "'locl' Localized Forms in Latin lookup 8 subtable" i.loclTRK
Substitution2: "'locl' Localized Forms in Latin lookup 7 subtable" i.loclTRK
Substitution2: "'locl' Localized Forms in Latin lookup 6 subtable" i.loclTRK
AlternateSubs2: "'aalt' Access All Alternates in Latin lookup 1 subtable" dotlessi i.loclTRK
EndChar

StartChar: j
Encoding: 106 106 77
Width: 264
GlyphClass: 2
Flags: W
LayerCount: 2
Fore
SplineSet
170 636 m 1,0,-1
 98 636 l 1,1,-1
 98 743 l 1,2,-1
 170 743 l 1,3,-1
 170 636 l 1,0,-1
138 -136 m 128,-1,5
 111 -166 111 -166 41 -166 c 0,6,7
 5 -166 5 -166 -9 -162 c 128,-1,8
 -23 -158 -23 -158 -23 -156 c 2,9,-1
 -23 -114 l 1,10,-1
 34 -112 l 2,11,12
 71 -111 71 -111 86.5 -93 c 128,-1,13
 102 -75 102 -75 102 -34 c 2,14,-1
 102 517 l 1,15,-1
 165 517 l 1,16,-1
 165 -38 l 2,17,4
 165 -106 165 -106 138 -136 c 128,-1,5
EndSplineSet
Substitution2: "Single Substitution lookup 28 subtable" uni0237
Substitution2: "'aalt' Access All Alternates in Latin lookup 0 subtable" uni0237
EndChar

StartChar: k
Encoding: 107 107 78
Width: 550
GlyphClass: 2
Flags: W
AnchorPoint: "Anchor-5" 0 0 basechar 0
AnchorPoint: "Anchor-4" 274 0 basechar 0
AnchorPoint: "Anchor-3" 0 0 basechar 0
AnchorPoint: "Anchor-2" 0 0 basechar 0
LayerCount: 2
Fore
SplineSet
443 0 m 1,0,-1
 269 279 l 1,1,-1
 148 156 l 1,2,-1
 148 0 l 1,3,-1
 85 0 l 1,4,-1
 85 743 l 1,5,-1
 148 743 l 1,6,-1
 148 232 l 1,7,-1
 422 517 l 1,8,-1
 498 517 l 1,9,-1
 313 325 l 1,10,-1
 514 0 l 1,11,-1
 443 0 l 1,0,-1
EndSplineSet
EndChar

StartChar: l
Encoding: 108 108 79
Width: 277
GlyphClass: 2
Flags: W
AnchorPoint: "Anchor-5" 271 730 basechar 0
AnchorPoint: "Anchor-4" 111 0 basechar 0
AnchorPoint: "Anchor-3" 113 762 basechar 0
AnchorPoint: "Anchor-2" 0 0 basechar 0
LayerCount: 2
Fore
SplineSet
110 34.5 m 128,-1,1
 85 70 85 70 85 131 c 2,2,-1
 85 743 l 1,3,-1
 147 743 l 1,4,-1
 147 135 l 2,5,6
 147 92 147 92 163.5 70.5 c 128,-1,7
 180 49 180 49 205 48 c 2,8,-1
 236 48 l 1,9,-1
 236 5 l 1,10,11
 215 -1 215 -1 196 -1 c 0,12,0
 135 -1 135 -1 110 34.5 c 128,-1,1
EndSplineSet
Substitution2: "'ss01' Style Set 1 in Latin lookup 27 subtable" l.ss01
Substitution2: "'salt' Stylistic Alternatives in Latin lookup 26 subtable" l.ss01
Substitution2: "'aalt' Access All Alternates in Latin lookup 0 subtable" l.ss01
EndChar

StartChar: m
Encoding: 109 109 80
Width: 893
GlyphClass: 2
Flags: W
LayerCount: 2
Fore
SplineSet
85 517 m 1,0,-1
 145 517 l 1,1,-1
 145 442 l 1,2,3
 167 478 167 478 207.5 502.5 c 128,-1,4
 248 527 248 527 304 527 c 0,5,6
 362 527 362 527 406 505.5 c 128,-1,7
 450 484 450 484 468 443 c 1,8,9
 493 483 493 483 534 505 c 128,-1,10
 575 527 575 527 631 527 c 0,11,12
 706 527 706 527 757 486 c 128,-1,13
 808 445 808 445 808 340 c 2,14,-1
 808 0 l 1,15,-1
 745 0 l 1,16,-1
 745 336 l 2,17,18
 745 413 745 413 711 443 c 128,-1,19
 677 473 677 473 617 473 c 0,20,21
 558 473 558 473 518 445 c 128,-1,22
 478 417 478 417 478 352 c 2,23,-1
 478 0 l 1,24,-1
 414 0 l 1,25,-1
 414 371 l 2,26,27
 414 420 414 420 378 446.5 c 128,-1,28
 342 473 342 473 287 473 c 0,29,30
 254 473 254 473 222 460.5 c 128,-1,31
 190 448 190 448 169 422 c 128,-1,32
 148 396 148 396 148 357 c 2,33,-1
 148 0 l 1,34,-1
 85 0 l 1,35,-1
 85 517 l 1,0,-1
EndSplineSet
EndChar

StartChar: n
Encoding: 110 110 81
Width: 579
GlyphClass: 2
Flags: W
AnchorPoint: "Anchor-5" 0 0 basechar 0
AnchorPoint: "Anchor-4" 291 0 basechar 0
AnchorPoint: "Anchor-3" 299 517 basechar 0
AnchorPoint: "Anchor-2" 0 0 basechar 0
LayerCount: 2
Fore
SplineSet
85 517 m 1,0,-1
 145 517 l 1,1,-1
 145 442 l 1,2,3
 167 480 167 480 210.5 503 c 128,-1,4
 254 526 254 526 314 526 c 0,5,6
 394 526 394 526 444.5 477.5 c 128,-1,7
 495 429 495 429 495 337 c 2,8,-1
 495 0 l 1,9,-1
 431 0 l 1,10,-1
 431 333 l 2,11,12
 431 399 431 399 396.5 434.5 c 128,-1,13
 362 470 362 470 302 470 c 0,14,15
 236 470 236 470 192 440 c 128,-1,16
 148 410 148 410 148 354 c 2,17,-1
 148 0 l 1,18,-1
 85 0 l 1,19,-1
 85 517 l 1,0,-1
EndSplineSet
EndChar

StartChar: o
Encoding: 111 111 82
Width: 566
GlyphClass: 2
Flags: W
AnchorPoint: "Anchor-5" 0 0 basechar 0
AnchorPoint: "Anchor-4" 282 0 basechar 0
AnchorPoint: "Anchor-3" 285 517 basechar 0
AnchorPoint: "Anchor-2" 348 10 basechar 0
LayerCount: 2
Fore
SplineSet
114.5 62.5 m 128,-1,1
 54 135 54 135 54 255 c 0,2,3
 54 335 54 335 81.5 396.5 c 128,-1,4
 109 458 109 458 161 492.5 c 128,-1,5
 213 527 213 527 284 527 c 128,-1,6
 355 527 355 527 406.5 493 c 128,-1,7
 458 459 458 459 485 397.5 c 128,-1,8
 512 336 512 336 512 257 c 128,-1,9
 512 178 512 178 485 117.5 c 128,-1,10
 458 57 458 57 406 23.5 c 128,-1,11
 354 -10 354 -10 283 -10 c 0,12,0
 175 -10 175 -10 114.5 62.5 c 128,-1,1
406.5 101.5 m 128,-1,14
 448 160 448 160 448 258 c 128,-1,15
 448 356 448 356 406.5 414.5 c 128,-1,16
 365 473 365 473 284 473 c 128,-1,17
 203 473 203 473 161 414 c 128,-1,18
 119 355 119 355 119 258 c 128,-1,19
 119 161 119 161 161.5 102 c 128,-1,20
 204 43 204 43 285 43 c 0,21,13
 365 43 365 43 406.5 101.5 c 128,-1,14
EndSplineSet
Substitution2: "Single Substitution lookup 30 subtable" ordmasculine
Substitution2: "'aalt' Access All Alternates in Latin lookup 0 subtable" ordmasculine
EndChar

StartChar: p
Encoding: 112 112 83
Width: 586
GlyphClass: 2
Flags: W
LayerCount: 2
Fore
SplineSet
85 517 m 1,0,-1
 147 517 l 1,1,-1
 147 443 l 1,2,3
 173 476 173 476 210.5 501.5 c 128,-1,4
 248 527 248 527 312 527 c 0,5,6
 375 527 375 527 424.5 497.5 c 128,-1,7
 474 468 474 468 503 409.5 c 128,-1,8
 532 351 532 351 532 267 c 128,-1,9
 532 183 532 183 502.5 120 c 128,-1,10
 473 57 473 57 420.5 23.5 c 128,-1,11
 368 -10 368 -10 300 -10 c 0,12,13
 256 -10 256 -10 219.5 4 c 128,-1,14
 183 18 183 18 148 51 c 1,15,-1
 148 -161 l 1,16,-1
 85 -161 l 1,17,-1
 85 517 l 1,0,-1
383.5 68.5 m 128,-1,19
 424 95 424 95 446.5 145 c 128,-1,20
 469 195 469 195 469 263 c 0,21,22
 469 332 469 332 445.5 379.5 c 128,-1,23
 422 427 422 427 383.5 450.5 c 128,-1,24
 345 474 345 474 298 474 c 0,25,26
 256 474 256 474 221.5 454.5 c 128,-1,27
 187 435 187 435 167.5 405 c 128,-1,28
 148 375 148 375 148 346 c 2,29,-1
 148 120 l 1,30,31
 214 42 214 42 292 42 c 0,32,18
 343 42 343 42 383.5 68.5 c 128,-1,19
EndSplineSet
EndChar

StartChar: q
Encoding: 113 113 84
Width: 586
GlyphClass: 2
Flags: W
LayerCount: 2
Fore
SplineSet
438 -161 m 1,0,-1
 438 50 l 1,1,2
 400 18 400 18 363.5 4 c 128,-1,3
 327 -10 327 -10 284 -10 c 0,4,5
 215 -10 215 -10 163 23.5 c 128,-1,6
 111 57 111 57 82.5 119.5 c 128,-1,7
 54 182 54 182 54 267 c 0,8,9
 54 351 54 351 82.5 409.5 c 128,-1,10
 111 468 111 468 161 497.5 c 128,-1,11
 211 527 211 527 273 527 c 0,12,13
 318 527 318 527 351.5 512.5 c 128,-1,14
 385 498 385 498 397.5 487 c 128,-1,15
 410 476 410 476 440 446 c 1,16,-1
 440 517 l 1,17,-1
 501 517 l 1,18,-1
 501 -161 l 1,19,-1
 438 -161 l 1,0,-1
438 126 m 1,20,-1
 438 341 l 2,21,22
 438 373 438 373 418.5 404 c 128,-1,23
 399 435 399 435 365 455 c 128,-1,24
 331 475 331 475 289 475 c 0,25,26
 242 475 242 475 204 452 c 128,-1,27
 166 429 166 429 143 381.5 c 128,-1,28
 120 334 120 334 120 264 c 0,29,30
 120 196 120 196 142.5 145.5 c 128,-1,31
 165 95 165 95 204.5 68 c 128,-1,32
 244 41 244 41 295 41 c 0,33,34
 373 41 373 41 438 126 c 1,20,-1
EndSplineSet
EndChar

StartChar: r
Encoding: 114 114 85
Width: 371
GlyphClass: 2
Flags: W
AnchorPoint: "Anchor-5" 0 0 basechar 0
AnchorPoint: "Anchor-4" 118 0 basechar 0
AnchorPoint: "Anchor-3" 206 517 basechar 0
AnchorPoint: "Anchor-2" 0 0 basechar 0
LayerCount: 2
Fore
SplineSet
85 517 m 1,0,-1
 144 517 l 1,1,-1
 144 416 l 1,2,3
 172 464 172 464 227.5 495.5 c 128,-1,4
 283 527 283 527 338 527 c 1,5,-1
 338 465 l 1,6,7
 291 466 291 466 247 446 c 128,-1,8
 203 426 203 426 175.5 393 c 128,-1,9
 148 360 148 360 148 327 c 2,10,-1
 148 0 l 1,11,-1
 85 0 l 1,12,-1
 85 517 l 1,0,-1
EndSplineSet
EndChar

StartChar: s
Encoding: 115 115 86
Width: 502
GlyphClass: 2
Flags: W
AnchorPoint: "Anchor-5" 0 0 basechar 0
AnchorPoint: "Anchor-4" 248 0 basechar 0
AnchorPoint: "Anchor-3" 242 517 basechar 0
AnchorPoint: "Anchor-2" 0 0 basechar 0
LayerCount: 2
Fore
SplineSet
115 28 m 128,-1,1
 62 66 62 66 49 129 c 1,2,-1
 105 142 l 1,3,4
 134 41 134 41 249 41 c 0,5,6
 308 41 308 41 350.5 66.5 c 128,-1,7
 393 92 393 92 393 136 c 0,8,9
 393 204 393 204 310 225 c 2,10,-1
 197 250 l 2,11,12
 130 266 130 266 99 298 c 128,-1,13
 68 330 68 330 68 378 c 0,14,15
 68 448 68 448 118 487.5 c 128,-1,16
 168 527 168 527 254 527 c 0,17,18
 343 527 343 527 391.5 486 c 128,-1,19
 440 445 440 445 444 383 c 1,20,-1
 387 375 l 1,21,22
 368 476 368 476 253 476 c 0,23,24
 201 476 201 476 165 453.5 c 128,-1,25
 129 431 129 431 129 380 c 0,26,27
 129 354 129 354 148.5 335 c 128,-1,28
 168 316 168 316 219 303 c 2,29,-1
 333 274 l 2,30,31
 397 258 397 258 425 221.5 c 128,-1,32
 453 185 453 185 453 138 c 0,33,34
 453 95 453 95 427.5 61.5 c 128,-1,35
 402 28 402 28 355.5 9 c 128,-1,36
 309 -10 309 -10 249 -10 c 0,37,0
 168 -10 168 -10 115 28 c 128,-1,1
EndSplineSet
EndChar

StartChar: t
Encoding: 116 116 87
Width: 375
GlyphClass: 2
Flags: W
AnchorPoint: "Anchor-5" 370 745 basechar 0
AnchorPoint: "Anchor-4" 258 0 basechar 0
AnchorPoint: "Anchor-3" 0 0 basechar 0
AnchorPoint: "Anchor-2" 0 0 basechar 0
LayerCount: 2
Fore
SplineSet
198 468 m 1,0,-1
 198 126 l 2,1,2
 198 80 198 80 211 64 c 128,-1,3
 224 48 224 48 253 48 c 2,4,-1
 322 48 l 1,5,-1
 322 5 l 1,6,7
 301 -1 301 -1 252 -1 c 0,8,9
 186 -1 186 -1 160 27.5 c 128,-1,10
 134 56 134 56 134 120 c 2,11,-1
 134 468 l 1,12,-1
 50 468 l 1,13,-1
 50 517 l 1,14,-1
 135 517 l 1,15,-1
 140 690 l 1,16,-1
 198 690 l 1,17,-1
 198 517 l 1,18,-1
 316 517 l 1,19,-1
 316 468 l 1,20,-1
 198 468 l 1,0,-1
EndSplineSet
EndChar

StartChar: u
Encoding: 117 117 88
Width: 579
GlyphClass: 2
Flags: W
AnchorPoint: "Anchor-5" 0 0 basechar 0
AnchorPoint: "Anchor-4" 289 0 basechar 0
AnchorPoint: "Anchor-3" 279 517 basechar 0
AnchorPoint: "Anchor-2" 482 11 basechar 0
LayerCount: 2
Fore
SplineSet
188.5 9 m 128,-1,1
 144 27 144 27 114.5 67.5 c 128,-1,2
 85 108 85 108 85 171 c 2,3,-1
 85 519 l 1,4,-1
 148 519 l 1,5,-1
 148 175 l 2,6,7
 148 106 148 106 190 75 c 128,-1,8
 232 44 232 44 287 44 c 0,9,10
 346 44 346 44 388 80 c 128,-1,11
 430 116 430 116 431 182 c 2,12,-1
 431 519 l 1,13,-1
 495 519 l 1,14,-1
 494 1 l 1,15,-1
 441 1 l 1,16,-1
 439 83 l 1,17,18
 424 48 424 48 378 19.5 c 128,-1,19
 332 -9 332 -9 281 -9 c 0,20,0
 233 -9 233 -9 188.5 9 c 128,-1,1
EndSplineSet
EndChar

StartChar: v
Encoding: 118 118 89
Width: 522
GlyphClass: 2
Flags: W
LayerCount: 2
Fore
SplineSet
289 0 m 1,0,-1
 233 0 l 1,1,-1
 24 517 l 1,2,-1
 86 517 l 1,3,-1
 262 80 l 1,4,-1
 437 517 l 1,5,-1
 497 517 l 1,6,-1
 289 0 l 1,0,-1
EndSplineSet
EndChar

StartChar: w
Encoding: 119 119 90
Width: 766
GlyphClass: 2
Flags: W
AnchorPoint: "Anchor-5" 0 0 basechar 0
AnchorPoint: "Anchor-4" 0 0 basechar 0
AnchorPoint: "Anchor-3" 387 517 basechar 0
AnchorPoint: "Anchor-2" 0 0 basechar 0
LayerCount: 2
Fore
SplineSet
584 0 m 1,0,-1
 517 0 l 1,1,-1
 383 419 l 1,2,-1
 257 0 l 1,3,-1
 189 0 l 1,4,-1
 28 517 l 1,5,-1
 90 517 l 1,6,-1
 224 78 l 1,7,-1
 357 517 l 1,8,-1
 409 517 l 1,9,-1
 549 79 l 1,10,-1
 677 517 l 1,11,-1
 738 517 l 1,12,-1
 584 0 l 1,0,-1
EndSplineSet
EndChar

StartChar: x
Encoding: 120 120 91
Width: 520
GlyphClass: 2
Flags: W
LayerCount: 2
Fore
SplineSet
425 0 m 1,0,-1
 260 221 l 1,1,-1
 96 0 l 1,2,-1
 23 0 l 1,3,-1
 223 268 l 1,4,-1
 38 517 l 1,5,-1
 111 517 l 1,6,-1
 260 316 l 1,7,-1
 409 517 l 1,8,-1
 482 517 l 1,9,-1
 297 268 l 1,10,-1
 497 0 l 1,11,-1
 425 0 l 1,0,-1
EndSplineSet
EndChar

StartChar: y
Encoding: 121 121 92
Width: 509
GlyphClass: 2
Flags: W
AnchorPoint: "Anchor-5" 0 0 basechar 0
AnchorPoint: "Anchor-4" 0 0 basechar 0
AnchorPoint: "Anchor-3" 260 517 basechar 0
AnchorPoint: "Anchor-2" 0 0 basechar 0
LayerCount: 2
Fore
SplineSet
62 -161 m 128,-1,1
 44 -157 44 -157 44 -155 c 2,2,-1
 44 -113 l 1,3,-1
 98 -113 l 2,4,5
 145 -114 145 -114 168 -98 c 128,-1,6
 191 -82 191 -82 203 -53 c 2,7,-1
 226 7 l 1,8,-1
 24 517 l 1,9,-1
 89 517 l 1,10,-1
 257 84 l 1,11,-1
 423 517 l 1,12,-1
 485 517 l 1,13,-1
 263 -59 l 2,14,15
 239 -117 239 -117 202.5 -141 c 128,-1,16
 166 -165 166 -165 114 -165 c 0,17,0
 80 -165 80 -165 62 -161 c 128,-1,1
EndSplineSet
EndChar

StartChar: z
Encoding: 122 122 93
Width: 477
GlyphClass: 2
Flags: W
AnchorPoint: "Anchor-5" 0 0 basechar 0
AnchorPoint: "Anchor-4" 0 0 basechar 0
AnchorPoint: "Anchor-3" 255 517 basechar 0
AnchorPoint: "Anchor-2" 0 0 basechar 0
LayerCount: 2
Fore
SplineSet
45 46 m 1,0,-1
 357 470 l 1,1,-1
 66 470 l 1,2,-1
 66 517 l 1,3,-1
 431 517 l 1,4,-1
 431 469 l 1,5,-1
 119 48 l 1,6,-1
 437 48 l 1,7,-1
 437 0 l 1,8,-1
 45 0 l 1,9,-1
 45 46 l 1,0,-1
EndSplineSet
EndChar

StartChar: braceleft
Encoding: 123 123 94
Width: 294
GlyphClass: 2
Flags: W
LayerCount: 2
Fore
SplineSet
150 697.5 m 128,-1,1
 181 723 181 723 235 723 c 2,2,-1
 273 723 l 1,3,-1
 273 676 l 1,4,-1
 241 676 l 2,5,6
 207 676 207 676 193 664 c 128,-1,7
 179 652 179 652 179 625 c 2,8,-1
 179 405 l 2,9,10
 179 350 179 350 152 320 c 128,-1,11
 125 290 125 290 84 286 c 0,12,13
 78 285 78 285 77.5 282.5 c 128,-1,14
 77 280 77 280 84 279 c 0,15,16
 126 276 126 276 152.5 247.5 c 128,-1,17
 179 219 179 219 179 162 c 2,18,-1
 179 -61 l 2,19,20
 179 -90 179 -90 192.5 -102 c 128,-1,21
 206 -114 206 -114 242 -114 c 2,22,-1
 273 -114 l 1,23,-1
 273 -161 l 1,24,-1
 236 -161 l 2,25,26
 180 -161 180 -161 149.5 -134.5 c 128,-1,27
 119 -108 119 -108 119 -64 c 2,28,-1
 119 159 l 2,29,30
 119 198 119 198 89 228.5 c 128,-1,31
 59 259 59 259 6 259 c 1,32,-1
 6 305 l 1,33,34
 62 306 62 306 90.5 335 c 128,-1,35
 119 364 119 364 119 410 c 2,36,-1
 119 629 l 2,37,0
 119 672 119 672 150 697.5 c 128,-1,1
EndSplineSet
EndChar

StartChar: bar
Encoding: 124 124 95
Width: 256
GlyphClass: 2
Flags: W
LayerCount: 2
Fore
SplineSet
102 -161 m 1,0,-1
 101 826 l 1,1,-1
 155 826 l 1,2,-1
 155 -161 l 1,3,-1
 102 -161 l 1,0,-1
EndSplineSet
EndChar

StartChar: braceright
Encoding: 125 125 96
Width: 307
GlyphClass: 2
Flags: W
LayerCount: 2
Fore
SplineSet
145 697.5 m 128,-1,1
 114 723 114 723 60 723 c 2,2,-1
 22 723 l 1,3,-1
 22 676 l 1,4,-1
 54 676 l 2,5,6
 88 676 88 676 102 664 c 128,-1,7
 116 652 116 652 116 625 c 2,8,-1
 116 405 l 2,9,10
 116 350 116 350 143 320 c 128,-1,11
 170 290 170 290 211 286 c 0,12,13
 217 285 217 285 217.5 282.5 c 128,-1,14
 218 280 218 280 211 279 c 0,15,16
 169 276 169 276 142.5 247.5 c 128,-1,17
 116 219 116 219 116 162 c 2,18,-1
 116 -61 l 2,19,20
 116 -90 116 -90 102.5 -102 c 128,-1,21
 89 -114 89 -114 53 -114 c 2,22,-1
 22 -114 l 1,23,-1
 22 -161 l 1,24,-1
 59 -161 l 2,25,26
 115 -161 115 -161 145.5 -134.5 c 128,-1,27
 176 -108 176 -108 176 -64 c 2,28,-1
 176 159 l 2,29,30
 176 198 176 198 206 228.5 c 128,-1,31
 236 259 236 259 289 259 c 1,32,-1
 289 305 l 1,33,34
 233 306 233 306 204.5 335 c 128,-1,35
 176 364 176 364 176 410 c 2,36,-1
 176 629 l 2,37,0
 176 672 176 672 145 697.5 c 128,-1,1
EndSplineSet
EndChar

StartChar: asciitilde
Encoding: 126 126 97
Width: 546
GlyphClass: 2
Flags: W
LayerCount: 2
Fore
SplineSet
439 333 m 128,-1,1
 409 318 409 318 368 318 c 0,2,3
 341 318 341 318 320.5 324 c 128,-1,4
 300 330 300 330 269 343 c 0,5,6
 242 354 242 354 224.5 359.5 c 128,-1,7
 207 365 207 365 185 365 c 0,8,9
 150 365 150 365 125 351.5 c 128,-1,10
 100 338 100 338 79 316 c 1,11,-1
 60 357 l 1,12,13
 89 384 89 384 116.5 399 c 128,-1,14
 144 414 144 414 183 414 c 0,15,16
 208 414 208 414 229.5 407.5 c 128,-1,17
 251 401 251 401 278 389 c 0,18,19
 283 387 283 387 301 380 c 128,-1,20
 319 373 319 373 335.5 369.5 c 128,-1,21
 352 366 352 366 368 366 c 0,22,23
 403 366 403 366 424.5 379 c 128,-1,24
 446 392 446 392 465 414 c 1,25,-1
 484 371 l 1,26,0
 469 348 469 348 439 333 c 128,-1,1
EndSplineSet
EndChar

StartChar: exclamdown
Encoding: 161 161 99
Width: 237
GlyphClass: 2
Flags: W
LayerCount: 2
Fore
SplineSet
77 422 m 1,0,-1
 77 517 l 1,1,-1
 159 517 l 1,2,-1
 159 422 l 1,3,-1
 77 422 l 1,0,-1
79 -161 m 1,4,-1
 96 354 l 1,5,-1
 141 354 l 1,6,-1
 158 -161 l 1,7,-1
 79 -161 l 1,4,-1
EndSplineSet
EndChar

StartChar: cent
Encoding: 162 162 100
Width: 534
GlyphClass: 2
Flags: W
AnchorPoint: "Anchor-1" 286 628 basechar 0
AnchorPoint: "Anchor-0" 288 111 basechar 0
LayerCount: 2
Fore
SplineSet
308 102 m 1,0,-1
 308 0 l 1,1,-1
 255 0 l 1,2,-1
 255 103 l 1,3,4
 164 114 164 114 110.5 185.5 c 128,-1,5
 57 257 57 257 57 367 c 0,6,7
 57 478 57 478 110.5 551 c 128,-1,8
 164 624 164 624 255 636 c 1,9,-1
 255 723 l 1,10,-1
 308 723 l 1,11,-1
 308 637 l 1,12,13
 367 632 367 632 408.5 599 c 128,-1,14
 450 566 450 566 480 509 c 1,15,-1
 427 491 l 1,16,17
 388 543 388 543 360.5 563 c 128,-1,18
 333 583 333 583 292 583 c 0,19,20
 213 583 213 583 166.5 524.5 c 128,-1,21
 120 466 120 466 120 369 c 0,22,23
 120 270 120 270 166 211.5 c 128,-1,24
 212 153 212 153 291 153 c 0,25,26
 339 153 339 153 371.5 178 c 128,-1,27
 404 203 404 203 434 254 c 1,28,-1
 486 235 l 1,29,30
 427 112 427 112 308 102 c 1,0,-1
EndSplineSet
EndChar

StartChar: sterling
Encoding: 163 163 101
Width: 596
GlyphClass: 2
Flags: W
LayerCount: 2
Fore
SplineSet
13 57 m 1,0,-1
 53 57 l 2,1,2
 93 57 93 57 119 96.5 c 128,-1,3
 145 136 145 136 145 212 c 0,4,5
 145 267 145 267 133 347 c 1,6,-1
 33 347 l 1,7,-1
 33 394 l 1,8,-1
 125 394 l 1,9,-1
 108 472 l 2,10,11
 100 509 100 509 100 536 c 0,12,13
 100 596 100 596 127.5 640.5 c 128,-1,14
 155 685 155 685 201 709 c 128,-1,15
 247 733 247 733 301 733 c 0,16,17
 365 733 365 733 418 702 c 128,-1,18
 471 671 471 671 489 628 c 1,19,-1
 432 604 l 1,20,21
 413 640 413 640 384 657 c 128,-1,22
 355 674 355 674 308 674 c 0,23,24
 248 674 248 674 208.5 640.5 c 128,-1,25
 169 607 169 607 169 548 c 0,26,27
 169 516 169 516 176.5 474.5 c 128,-1,28
 184 433 184 433 196 395 c 1,29,-1
 365 395 l 1,30,-1
 365 348 l 1,31,-1
 203 348 l 1,32,33
 213 287 213 287 213 242 c 0,34,35
 213 169 213 169 195 125 c 128,-1,36
 177 81 177 81 155 58 c 1,37,-1
 350 58 l 2,38,39
 404 58 404 58 437 77 c 128,-1,40
 470 96 470 96 487 140 c 1,41,-1
 543 122 l 1,42,43
 497 0 497 0 353 0 c 2,44,-1
 13 0 l 1,45,-1
 13 57 l 1,0,-1
EndSplineSet
EndChar

StartChar: currency
Encoding: 164 164 102
Width: 517
GlyphClass: 2
Flags: W
LayerCount: 2
Fore
SplineSet
157 217 m 0,0,1
 151 223 151 223 145 216 c 2,2,-1
 94 164 l 1,3,-1
 58 202 l 1,4,-1
 114 257 l 1,5,6
 81 305 81 305 81 364 c 0,7,8
 81 419 81 419 111 462 c 0,9,10
 115 470 115 470 110 475 c 2,11,-1
 59 526 l 1,12,-1
 96 562 l 1,13,-1
 152 505 l 1,14,15
 173 521 173 521 200.5 530 c 128,-1,16
 228 539 228 539 257 539 c 0,17,18
 313 539 313 539 355 509 c 0,19,20
 361 504 361 504 367 510 c 2,21,-1
 420 563 l 1,22,-1
 455 526 l 1,23,-1
 398 468 l 1,24,25
 432 419 432 419 432 364 c 0,26,27
 432 307 432 307 402 266 c 0,28,29
 397 260 397 260 403 254 c 2,30,-1
 456 203 l 1,31,-1
 421 166 l 1,32,-1
 363 223 l 1,33,34
 312 187 312 187 257 187 c 0,35,36
 203 187 203 187 157 217 c 0,0,1
344.5 278 m 128,-1,38
 379 314 379 314 379 364 c 0,39,40
 379 396 379 396 363.5 424 c 128,-1,41
 348 452 348 452 320.5 469 c 128,-1,42
 293 486 293 486 259 486 c 128,-1,43
 225 486 225 486 197 469 c 128,-1,44
 169 452 169 452 153 424 c 128,-1,45
 137 396 137 396 137 364 c 128,-1,46
 137 332 137 332 153 304 c 128,-1,47
 169 276 169 276 197 259 c 128,-1,48
 225 242 225 242 259 242 c 0,49,37
 310 242 310 242 344.5 278 c 128,-1,38
EndSplineSet
EndChar

StartChar: yen
Encoding: 165 165 103
Width: 584
GlyphClass: 2
Flags: W
LayerCount: 2
Fore
SplineSet
339 333 m 1,0,-1
 486 333 l 1,1,-1
 486 287 l 1,2,-1
 331 287 l 1,3,-1
 331 192 l 1,4,-1
 486 192 l 1,5,-1
 486 145 l 1,6,-1
 331 145 l 1,7,-1
 331 0 l 1,8,-1
 259 0 l 1,9,-1
 259 144 l 1,10,-1
 104 144 l 1,11,-1
 104 191 l 1,12,-1
 259 191 l 1,13,-1
 259 286 l 1,14,-1
 104 286 l 1,15,-1
 104 333 l 1,16,-1
 241 333 l 1,17,-1
 10 723 l 1,18,-1
 92 723 l 1,19,-1
 298 370 l 1,20,-1
 505 723 l 1,21,-1
 575 723 l 1,22,-1
 339 333 l 1,0,-1
EndSplineSet
EndChar

StartChar: brokenbar
Encoding: 166 166 104
Width: 256
GlyphClass: 2
Flags: W
LayerCount: 2
Fore
SplineSet
102 429 m 1,0,-1
 101 826 l 1,1,-1
 155 826 l 1,2,-1
 155 429 l 1,3,-1
 102 429 l 1,0,-1
102 -161 m 1,4,-1
 101 236 l 1,5,-1
 155 236 l 1,6,-1
 155 -161 l 1,7,-1
 102 -161 l 1,4,-1
EndSplineSet
EndChar

StartChar: section
Encoding: 167 167 105
Width: 475
GlyphClass: 2
Flags: W
LayerCount: 2
Fore
SplineSet
123 -37 m 128,-1,1
 66 -5 66 -5 39 47 c 1,2,-1
 84 72 l 1,3,4
 109 31 109 31 152 6.5 c 128,-1,5
 195 -18 195 -18 248 -18 c 0,6,7
 302 -18 302 -18 336 3.5 c 128,-1,8
 370 25 370 25 370 63 c 0,9,10
 370 93 370 93 346.5 117.5 c 128,-1,11
 323 142 323 142 263 166 c 2,12,-1
 172 201 l 2,13,14
 109 225 109 225 80.5 259.5 c 128,-1,15
 52 294 52 294 52 340 c 0,16,17
 52 385 52 385 80.5 418.5 c 128,-1,18
 109 452 109 452 156 469 c 1,19,20
 97 499 97 499 75.5 530 c 128,-1,21
 54 561 54 561 54 601 c 0,22,23
 54 638 54 638 76.5 668.5 c 128,-1,24
 99 699 99 699 139.5 716 c 128,-1,25
 180 733 180 733 233 733 c 0,26,27
 293 733 293 733 341.5 705 c 128,-1,28
 390 677 390 677 418 635 c 1,29,-1
 372 609 l 1,30,31
 346 643 346 643 312 663 c 128,-1,32
 278 683 278 683 238 683 c 0,33,34
 181 683 181 683 148.5 662 c 128,-1,35
 116 641 116 641 116 605 c 0,36,37
 116 579 116 579 136 556.5 c 128,-1,38
 156 534 156 534 205 514 c 2,39,-1
 291 479 l 2,40,41
 365 449 365 449 398 410.5 c 128,-1,42
 431 372 431 372 431 322 c 0,43,44
 431 275 431 275 406 245.5 c 128,-1,45
 381 216 381 216 338 195 c 1,46,47
 385 168 385 168 409 137.5 c 128,-1,48
 433 107 433 107 433 67 c 0,49,50
 433 28 433 28 410 -3 c 128,-1,51
 387 -34 387 -34 344.5 -51.5 c 128,-1,52
 302 -69 302 -69 247 -69 c 0,53,0
 180 -69 180 -69 123 -37 c 128,-1,1
339.5 248 m 128,-1,55
 370 274 370 274 370 311 c 128,-1,56
 370 348 370 348 351.5 373 c 128,-1,57
 333 398 333 398 280 419 c 2,58,-1
 220 442 l 1,59,60
 176 438 176 438 144 410 c 128,-1,61
 112 382 112 382 112 347 c 0,62,63
 112 316 112 316 131 295.5 c 128,-1,64
 150 275 150 275 204 253 c 2,65,-1
 269 225 l 1,66,54
 309 222 309 222 339.5 248 c 128,-1,55
EndSplineSet
EndChar

StartChar: dieresis
Encoding: 168 168 106
Width: 218
GlyphClass: 2
Flags: W
LayerCount: 2
Fore
SplineSet
78 621 m 1,0,-1
 11 621 l 1,1,-1
 11 723 l 1,2,-1
 78 723 l 1,3,-1
 78 621 l 1,0,-1
206 621 m 1,4,-1
 139 621 l 1,5,-1
 139 723 l 1,6,-1
 206 723 l 1,7,-1
 206 621 l 1,4,-1
EndSplineSet
EndChar

StartChar: copyright
Encoding: 169 169 107
Width: 813
GlyphClass: 2
Flags: W
LayerCount: 2
Fore
SplineSet
219.5 39.5 m 128,-1,1
 134 89 134 89 84 174.5 c 128,-1,2
 34 260 34 260 34 362 c 0,3,4
 34 462 34 462 84 547.5 c 128,-1,5
 134 633 134 633 219.5 683 c 128,-1,6
 305 733 305 733 406 733 c 0,7,8
 506 733 506 733 591.5 683 c 128,-1,9
 677 633 677 633 727 547.5 c 128,-1,10
 777 462 777 462 777 362 c 0,11,12
 777 260 777 260 727 175 c 128,-1,13
 677 90 677 90 592 40 c 128,-1,14
 507 -10 507 -10 406 -10 c 128,-1,0
 305 -10 305 -10 219.5 39.5 c 128,-1,1
564 82 m 128,-1,16
 637 122 637 122 680 194.5 c 128,-1,17
 723 267 723 267 723 362 c 0,18,19
 723 455 723 455 680 528 c 128,-1,20
 637 601 637 601 564 641.5 c 128,-1,21
 491 682 491 682 406 682 c 0,22,23
 319 682 319 682 246 641.5 c 128,-1,24
 173 601 173 601 130.5 528.5 c 128,-1,25
 88 456 88 456 88 362 c 0,26,27
 88 267 88 267 130.5 194 c 128,-1,28
 173 121 173 121 245.5 81.5 c 128,-1,29
 318 42 318 42 406 42 c 0,30,15
 491 42 491 42 564 82 c 128,-1,16
568 473 m 1,31,-1
 517 454 l 1,32,33
 475 527 475 527 411 527 c 0,34,35
 354 527 354 527 317.5 482.5 c 128,-1,36
 281 438 281 438 281 366 c 0,37,38
 281 292 281 292 317.5 247 c 128,-1,39
 354 202 354 202 412 202 c 0,40,41
 450 202 450 202 480.5 223 c 128,-1,42
 511 244 511 244 530 281 c 1,43,-1
 571 262 l 1,44,45
 544 214 544 214 502.5 184.5 c 128,-1,46
 461 155 461 155 408 155 c 0,47,48
 353 155 353 155 310.5 181 c 128,-1,49
 268 207 268 207 244.5 254.5 c 128,-1,50
 221 302 221 302 221 364 c 0,51,52
 221 425 221 425 245 473 c 128,-1,53
 269 521 269 521 311.5 547.5 c 128,-1,54
 354 574 354 574 408 574 c 0,55,56
 506 574 506 574 568 473 c 1,31,-1
EndSplineSet
EndChar

StartChar: ordfeminine
Encoding: 170 170 108
Width: 419
GlyphClass: 2
Flags: W
LayerCount: 2
Fore
SplineSet
83.5 419 m 128,-1,1
 55 443 55 443 55 485 c 0,2,3
 55 532 55 532 95 559 c 128,-1,4
 135 586 135 586 213 592 c 2,5,-1
 277 598 l 1,6,-1
 277 622 l 2,7,8
 277 691 277 691 195 691 c 0,9,10
 165 691 165 691 144 680 c 128,-1,11
 123 669 123 669 105 641 c 1,12,-1
 63 655 l 1,13,14
 80 691 80 691 114.5 710.5 c 128,-1,15
 149 730 149 730 199 730 c 0,16,17
 260 730 260 730 292 701 c 128,-1,18
 324 672 324 672 324 620 c 2,19,-1
 324 507 l 2,20,21
 324 472 324 472 328 441 c 2,22,-1
 334 401 l 1,23,-1
 284 401 l 1,24,-1
 276 448 l 1,25,26
 248 420 248 420 222 407.5 c 128,-1,27
 196 395 196 395 163 395 c 0,28,0
 112 395 112 395 83.5 419 c 128,-1,1
250 461 m 0,29,30
 277 485 277 485 277 507 c 2,31,-1
 277 563 l 1,32,-1
 224 559 l 2,33,34
 164 555 164 555 134.5 536.5 c 128,-1,35
 105 518 105 518 105 487 c 0,36,37
 105 462 105 462 125 447.5 c 128,-1,38
 145 433 145 433 177 433 c 0,39,40
 219 433 219 433 250 461 c 0,29,30
EndSplineSet
EndChar

StartChar: guillemotleft
Encoding: 171 171 109
Width: 429
GlyphClass: 2
Flags: W
LayerCount: 2
Fore
SplineSet
210 73 m 1,0,-1
 172 73 l 1,1,-1
 35 251 l 1,2,-1
 173 437 l 1,3,-1
 212 437 l 1,4,-1
 101 251 l 1,5,-1
 210 73 l 1,0,-1
380 73 m 1,6,-1
 341 73 l 1,7,-1
 204 251 l 1,8,-1
 342 437 l 1,9,-1
 381 437 l 1,10,-1
 270 251 l 1,11,-1
 380 73 l 1,6,-1
EndSplineSet
EndChar

StartChar: logicalnot
Encoding: 172 172 110
Width: 540
GlyphClass: 2
Flags: W
LayerCount: 2
Fore
SplineSet
474 390 m 1,0,-1
 474 198 l 1,1,-1
 419 198 l 1,2,-1
 418 337 l 1,3,-1
 65 336 l 1,4,-1
 65 389 l 1,5,-1
 474 390 l 1,0,-1
EndSplineSet
EndChar

StartChar: uni00AD
Encoding: 173 173 111
Width: 363
GlyphClass: 2
Flags: W
LayerCount: 2
Fore
SplineSet
310 232 m 1,0,-1
 66 231 l 1,1,-1
 66 285 l 1,2,-1
 310 286 l 1,3,-1
 310 232 l 1,0,-1
EndSplineSet
EndChar

StartChar: registered
Encoding: 174 174 112
Width: 535
GlyphClass: 2
Flags: W
LayerCount: 2
Fore
SplineSet
149.5 299 m 128,-1,1
 96 330 96 330 65 383 c 128,-1,2
 34 436 34 436 34 500 c 128,-1,3
 34 564 34 564 65 617 c 128,-1,4
 96 670 96 670 149.5 701.5 c 128,-1,5
 203 733 203 733 267 733 c 0,6,7
 330 733 330 733 383.5 701.5 c 128,-1,8
 437 670 437 670 468 616.5 c 128,-1,9
 499 563 499 563 499 500 c 128,-1,10
 499 437 499 437 468 383.5 c 128,-1,11
 437 330 437 330 383.5 299 c 128,-1,12
 330 268 330 268 267 268 c 0,13,0
 203 268 203 268 149.5 299 c 128,-1,1
366 330.5 m 128,-1,15
 409 354 409 354 433.5 398 c 128,-1,16
 458 442 458 442 458 500 c 128,-1,17
 458 558 458 558 433.5 602 c 128,-1,18
 409 646 409 646 366 670 c 128,-1,19
 323 694 323 694 267 694 c 0,20,21
 181 694 181 694 128.5 641 c 128,-1,22
 76 588 76 588 76 500 c 128,-1,23
 76 412 76 412 128.5 359.5 c 128,-1,24
 181 307 181 307 267 307 c 0,25,14
 323 307 323 307 366 330.5 c 128,-1,15
180 614 m 1,26,-1
 282 614 l 2,27,28
 318 614 318 614 338 599.5 c 128,-1,29
 358 585 358 585 358 557 c 0,30,31
 358 512 358 512 308 495 c 1,32,-1
 353 383 l 1,33,-1
 314 383 l 1,34,-1
 274 492 l 1,35,-1
 215 492 l 1,36,-1
 215 383 l 1,37,-1
 180 383 l 1,38,-1
 180 614 l 1,26,-1
276 523 m 2,39,40
 321 523 321 523 321 553 c 0,41,42
 321 584 321 584 273 584 c 2,43,-1
 215 584 l 1,44,-1
 215 523 l 1,45,-1
 276 523 l 2,39,40
EndSplineSet
EndChar

StartChar: macron
Encoding: 175 175 113
Width: 293
GlyphClass: 2
Flags: W
LayerCount: 2
Fore
SplineSet
280 657 m 1,0,-1
 11 657 l 1,1,-1
 11 707 l 1,2,-1
 280 707 l 1,3,-1
 280 657 l 1,0,-1
EndSplineSet
EndChar

StartChar: degree
Encoding: 176 176 114
Width: 456
GlyphClass: 2
Flags: W
LayerCount: 2
Fore
SplineSet
335 576.5 m 128,-1,1
 292 534 292 534 227 534 c 0,2,3
 161 534 161 534 118.5 576.5 c 128,-1,4
 76 619 76 619 76 685 c 0,5,6
 76 752 76 752 118.5 794.5 c 128,-1,7
 161 837 161 837 227 837 c 128,-1,8
 293 837 293 837 335.5 794.5 c 128,-1,9
 378 752 378 752 378 685 c 0,10,0
 378 619 378 619 335 576.5 c 128,-1,1
298 759.5 m 128,-1,12
 271 788 271 788 225 788 c 0,13,14
 181 788 181 788 153.5 759.5 c 128,-1,15
 126 731 126 731 126 686 c 0,16,17
 126 638 126 638 153 609 c 128,-1,18
 180 580 180 580 226 580 c 128,-1,19
 272 580 272 580 298.5 608.5 c 128,-1,20
 325 637 325 637 325 684 c 128,-1,11
 325 731 325 731 298 759.5 c 128,-1,12
EndSplineSet
EndChar

StartChar: plusminus
Encoding: 177 177 115
Width: 540
GlyphClass: 2
Flags: W
LayerCount: 2
Fore
SplineSet
474 462 m 1,0,-1
 474 409 l 1,1,-1
 296 409 l 1,2,-1
 296 231 l 1,3,-1
 244 231 l 1,4,-1
 244 408 l 1,5,-1
 65 408 l 1,6,-1
 65 461 l 1,7,-1
 243 461 l 1,8,-1
 243 640 l 1,9,-1
 296 640 l 1,10,-1
 296 462 l 1,11,-1
 474 462 l 1,0,-1
65 123 m 1,12,-1
 474 124 l 1,13,-1
 474 72 l 1,14,-1
 65 71 l 1,15,-1
 65 123 l 1,12,-1
EndSplineSet
EndChar

StartChar: uni00B2
Encoding: 178 178 116
Width: 373
GlyphClass: 2
Flags: W
LayerCount: 2
Fore
SplineSet
15 424 m 1,0,-1
 164 573 l 2,1,2
 216 624 216 624 237 655.5 c 128,-1,3
 258 687 258 687 258 721 c 0,4,5
 258 765 258 765 228.5 786 c 128,-1,6
 199 807 199 807 161 807 c 0,7,8
 126 807 126 807 96.5 792 c 128,-1,9
 67 777 67 777 49 744 c 1,10,-1
 14 758 l 1,11,12
 35 801 35 801 73.5 823 c 128,-1,13
 112 845 112 845 163 845 c 0,14,15
 222 845 222 845 261 812.5 c 128,-1,16
 300 780 300 780 300 722 c 0,17,18
 300 681 300 681 278.5 646.5 c 128,-1,19
 257 612 257 612 199 554 c 2,20,-1
 68 422 l 1,21,-1
 305 422 l 1,22,-1
 305 384 l 1,23,-1
 15 384 l 1,24,-1
 15 424 l 1,0,-1
EndSplineSet
EndChar

StartChar: uni00B3
Encoding: 179 179 117
Width: 388
GlyphClass: 2
Flags: W
LayerCount: 2
Fore
SplineSet
100.5 826 m 128,-1,1
 141 845 141 845 189 845 c 0,2,3
 255 845 255 845 296.5 812.5 c 128,-1,4
 338 780 338 780 338 731 c 0,5,6
 338 657 338 657 249 626 c 1,7,8
 297 613 297 613 324.5 582 c 128,-1,9
 352 551 352 551 352 508 c 0,10,11
 352 452 352 452 306 415 c 128,-1,12
 260 378 260 378 182 378 c 0,13,14
 128 378 128 378 91 395.5 c 128,-1,15
 54 413 54 413 27 454 c 1,16,-1
 62 470 l 1,17,18
 105 414 105 414 183 414 c 0,19,20
 240 414 240 414 273.5 440 c 128,-1,21
 307 466 307 466 307 507 c 0,22,23
 307 552 307 552 270 578 c 128,-1,24
 233 604 233 604 183 604 c 2,25,-1
 122 605 l 1,26,-1
 122 640 l 1,27,-1
 173 641 l 2,28,29
 224 641 224 641 259 666 c 128,-1,30
 294 691 294 691 294 729 c 0,31,32
 294 764 294 764 264.5 786.5 c 128,-1,33
 235 809 235 809 189 809 c 0,34,35
 151 809 151 809 124 795.5 c 128,-1,36
 97 782 97 782 77 754 c 1,37,-1
 43 770 l 1,38,0
 60 807 60 807 100.5 826 c 128,-1,1
EndSplineSet
EndChar

StartChar: acute
Encoding: 180 180 118
Width: 276
GlyphClass: 2
Flags: W
LayerCount: 2
Fore
SplineSet
266 675 m 1,0,-1
 21 599 l 1,1,-1
 9 637 l 1,2,-1
 248 732 l 1,3,-1
 266 675 l 1,0,-1
EndSplineSet
EndChar

StartChar: paragraph
Encoding: 182 182 119
Width: 551
GlyphClass: 2
Flags: W
LayerCount: 2
Fore
SplineSet
406 680 m 1,0,-1
 406 -83 l 1,1,-1
 360 -83 l 1,2,-1
 360 680 l 1,3,-1
 314 680 l 1,4,-1
 314 -83 l 1,5,-1
 267 -83 l 1,6,-1
 267 297 l 1,7,8
 202 298 202 298 153.5 326 c 128,-1,9
 105 354 105 354 79.5 401 c 128,-1,10
 54 448 54 448 54 503 c 0,11,12
 54 560 54 560 80 610.5 c 128,-1,13
 106 661 106 661 157.5 692 c 128,-1,14
 209 723 209 723 282 723 c 2,15,-1
 466 723 l 1,16,-1
 466 680 l 1,17,-1
 406 680 l 1,0,-1
EndSplineSet
EndChar

StartChar: periodcentered
Encoding: 183 183 120
Width: 189
GlyphClass: 2
Flags: W
LayerCount: 2
Fore
SplineSet
141 318 m 1,0,-1
 45 318 l 1,1,-1
 45 411 l 1,2,-1
 141 411 l 1,3,-1
 141 318 l 1,0,-1
EndSplineSet
EndChar

StartChar: cedilla
Encoding: 184 184 121
Width: 209
GlyphClass: 2
Flags: W
LayerCount: 2
Fore
SplineSet
167 -182.5 m 128,-1,1
 138 -202 138 -202 94 -202 c 0,2,3
 46 -202 46 -202 10 -178 c 1,4,-1
 23 -145 l 1,5,6
 50 -168 50 -168 87 -168 c 0,7,8
 143 -168 143 -168 143 -128 c 0,9,10
 143 -106 143 -106 124.5 -95.5 c 128,-1,11
 106 -85 106 -85 66 -83 c 0,12,13
 58 -83 58 -83 61 -78 c 2,14,-1
 97 5 l 1,15,-1
 137 5 l 1,16,-1
 113 -56 l 1,17,18
 157 -59 157 -59 176.5 -79 c 128,-1,19
 196 -99 196 -99 196 -127 c 0,20,0
 196 -163 196 -163 167 -182.5 c 128,-1,1
EndSplineSet
EndChar

StartChar: uni00B9
Encoding: 185 185 122
Width: 291
GlyphClass: 2
Flags: W
LayerCount: 2
Fore
SplineSet
91 785 m 1,0,-1
 -1 750 l 1,1,-1
 -1 784 l 1,2,-1
 101 835 l 1,3,-1
 132 835 l 1,4,-1
 132 380 l 1,5,-1
 91 380 l 1,6,-1
 91 785 l 1,0,-1
EndSplineSet
EndChar

StartChar: ordmasculine
Encoding: 186 186 123
Width: 414
GlyphClass: 2
Flags: W
LayerCount: 2
Fore
SplineSet
318.5 685.5 m 128,-1,1
 360 639 360 639 360 563 c 0,2,3
 360 489 360 489 319 443 c 128,-1,4
 278 397 278 397 207 397 c 0,5,6
 135 397 135 397 94.5 443 c 128,-1,7
 54 489 54 489 54 563 c 0,8,9
 54 639 54 639 96 685.5 c 128,-1,10
 138 732 138 732 207 732 c 0,11,0
 277 732 277 732 318.5 685.5 c 128,-1,1
133 658 m 128,-1,13
 107 624 107 624 107 566 c 0,14,15
 107 505 107 505 132.5 470.5 c 128,-1,16
 158 436 158 436 207 436 c 128,-1,17
 256 436 256 436 281.5 470.5 c 128,-1,18
 307 505 307 505 307 566 c 0,19,20
 307 624 307 624 281 658 c 128,-1,21
 255 692 255 692 207 692 c 128,-1,12
 159 692 159 692 133 658 c 128,-1,13
EndSplineSet
EndChar

StartChar: guillemotright
Encoding: 187 187 124
Width: 428
GlyphClass: 2
Flags: W
LayerCount: 2
Fore
SplineSet
46 437 m 1,0,-1
 84 437 l 1,1,-1
 223 251 l 1,2,-1
 85 73 l 1,3,-1
 48 73 l 1,4,-1
 157 251 l 1,5,-1
 46 437 l 1,0,-1
215 437 m 1,6,-1
 254 437 l 1,7,-1
 392 251 l 1,8,-1
 254 73 l 1,9,-1
 217 73 l 1,10,-1
 326 251 l 1,11,-1
 215 437 l 1,6,-1
EndSplineSet
EndChar

StartChar: onequarter
Encoding: 188 188 125
Width: 943
GlyphClass: 2
Flags: W
LayerCount: 2
Fore
SplineSet
91 681 m 1,0,-1
 -1 646 l 1,1,-1
 -1 680 l 1,2,-1
 101 731 l 1,3,-1
 132 731 l 1,4,-1
 132 276 l 1,5,-1
 91 276 l 1,6,-1
 91 681 l 1,0,-1
194 -4 m 1,7,-1
 145 -4 l 1,8,-1
 632 731 l 1,9,-1
 680 731 l 1,10,-1
 194 -4 l 1,7,-1
816 455 m 1,11,-1
 816 162 l 1,12,-1
 888 162 l 1,13,-1
 888 125 l 1,14,-1
 816 125 l 1,15,-1
 816 0 l 1,16,-1
 776 0 l 1,17,-1
 776 125 l 1,18,-1
 560 125 l 1,19,-1
 560 166 l 1,20,-1
 774 455 l 1,21,-1
 816 455 l 1,11,-1
774 162 m 1,22,-1
 774 393 l 1,23,-1
 603 162 l 1,24,-1
 774 162 l 1,22,-1
EndSplineSet
EndChar

StartChar: onehalf
Encoding: 189 189 126
Width: 911
GlyphClass: 2
Flags: W
LayerCount: 2
Fore
SplineSet
91 681 m 1,0,-1
 -1 646 l 1,1,-1
 -1 680 l 1,2,-1
 101 731 l 1,3,-1
 132 731 l 1,4,-1
 132 276 l 1,5,-1
 91 276 l 1,6,-1
 91 681 l 1,0,-1
194 -4 m 1,7,-1
 145 -4 l 1,8,-1
 632 731 l 1,9,-1
 680 731 l 1,10,-1
 194 -4 l 1,7,-1
553 40 m 1,11,-1
 702 189 l 2,12,13
 755 240 755 240 775.5 271.5 c 128,-1,14
 796 303 796 303 796 336 c 0,15,16
 796 367 796 367 781.5 386.5 c 128,-1,17
 767 406 767 406 744.5 414.5 c 128,-1,18
 722 423 722 423 699 423 c 0,19,20
 665 423 665 423 635 407.5 c 128,-1,21
 605 392 605 392 587 360 c 1,22,-1
 552 374 l 1,23,24
 573 417 573 417 611.5 439 c 128,-1,25
 650 461 650 461 701 461 c 0,26,27
 740 461 740 461 771 446.5 c 128,-1,28
 802 432 802 432 820 404 c 128,-1,29
 838 376 838 376 838 337 c 0,30,31
 838 309 838 309 828.5 285.5 c 128,-1,32
 819 262 819 262 797.5 235.5 c 128,-1,33
 776 209 776 209 737 170 c 2,34,-1
 606 38 l 1,35,-1
 843 38 l 1,36,-1
 843 0 l 1,37,-1
 553 0 l 1,38,-1
 553 40 l 1,11,-1
EndSplineSet
EndChar

StartChar: threequarters
Encoding: 190 190 127
Width: 1040
GlyphClass: 2
Flags: W
LayerCount: 2
Fore
SplineSet
100.5 721 m 128,-1,1
 141 740 141 740 189 740 c 0,2,3
 255 740 255 740 296.5 707.5 c 128,-1,4
 338 675 338 675 338 626 c 0,5,6
 338 552 338 552 249 521 c 1,7,8
 297 508 297 508 324.5 477 c 128,-1,9
 352 446 352 446 352 403 c 0,10,11
 352 347 352 347 306 310 c 128,-1,12
 260 273 260 273 182 273 c 0,13,14
 128 273 128 273 91 290.5 c 128,-1,15
 54 308 54 308 27 349 c 1,16,-1
 62 365 l 1,17,18
 105 309 105 309 183 309 c 0,19,20
 240 309 240 309 273.5 335 c 128,-1,21
 307 361 307 361 307 402 c 0,22,23
 307 447 307 447 270 473 c 128,-1,24
 233 499 233 499 183 499 c 2,25,-1
 122 500 l 1,26,-1
 122 535 l 1,27,-1
 173 536 l 2,28,29
 224 536 224 536 259 561 c 128,-1,30
 294 586 294 586 294 624 c 0,31,32
 294 659 294 659 264.5 681.5 c 128,-1,33
 235 704 235 704 189 704 c 0,34,35
 151 704 151 704 124 690.5 c 128,-1,36
 97 677 97 677 77 649 c 1,37,-1
 43 665 l 1,38,0
 60 702 60 702 100.5 721 c 128,-1,1
291 -4 m 1,39,-1
 242 -4 l 1,40,-1
 729 731 l 1,41,-1
 777 731 l 1,42,-1
 291 -4 l 1,39,-1
913 455 m 1,43,-1
 913 162 l 1,44,-1
 985 162 l 1,45,-1
 985 125 l 1,46,-1
 913 125 l 1,47,-1
 913 0 l 1,48,-1
 873 0 l 1,49,-1
 873 125 l 1,50,-1
 657 125 l 1,51,-1
 657 166 l 1,52,-1
 871 455 l 1,53,-1
 913 455 l 1,43,-1
871 162 m 1,54,-1
 871 393 l 1,55,-1
 700 162 l 1,56,-1
 871 162 l 1,54,-1
EndSplineSet
EndChar

StartChar: questiondown
Encoding: 191 191 128
Width: 503
GlyphClass: 2
Flags: W
LayerCount: 2
Fore
SplineSet
220 517 m 1,0,-1
 303 517 l 1,1,-1
 303 422 l 1,2,-1
 220 422 l 1,3,-1
 220 517 l 1,0,-1
378.5 -135 m 128,-1,5
 318 -171 318 -171 243 -171 c 0,6,7
 144 -171 144 -171 86.5 -123 c 128,-1,8
 29 -75 29 -75 29 5 c 0,9,10
 29 43 29 43 42.5 72 c 128,-1,11
 56 101 56 101 75.5 122.5 c 128,-1,12
 95 144 95 144 128 172 c 0,13,14
 163 203 163 203 183 225 c 128,-1,15
 203 247 203 247 217.5 279.5 c 128,-1,16
 232 312 232 312 232 354 c 1,17,-1
 291 354 l 1,18,19
 291 304 291 304 276 267 c 128,-1,20
 261 230 261 230 239.5 205.5 c 128,-1,21
 218 181 218 181 182 148 c 0,22,23
 139 110 139 110 118 80.5 c 128,-1,24
 97 51 97 51 97 7 c 0,25,26
 97 -49 97 -49 137 -82.5 c 128,-1,27
 177 -116 177 -116 243 -116 c 0,28,29
 296 -116 296 -116 345 -86 c 128,-1,30
 394 -56 394 -56 411 -15 c 1,31,-1
 471 -37 l 1,32,4
 439 -99 439 -99 378.5 -135 c 128,-1,5
EndSplineSet
EndChar

StartChar: Agrave
Encoding: 192 192 129
Width: 690
GlyphClass: 2
Flags: W
AnchorPoint: "Anchor-5" 0 0 basechar 0
AnchorPoint: "Anchor-4" 0 0 basechar 0
AnchorPoint: "Anchor-3" 347 723 basechar 0
AnchorPoint: "Anchor-2" 639 11 basechar 0
LayerCount: 2
Fore
SplineSet
307 723 m 1,0,-1
 384 723 l 1,1,-1
 647 0 l 1,2,-1
 581 0 l 1,3,-1
 503 214 l 1,4,-1
 188 214 l 1,5,-1
 109 0 l 1,6,-1
 43 0 l 1,7,-1
 307 723 l 1,0,-1
484 276 m 1,8,-1
 346 659 l 1,9,-1
 207 276 l 1,10,-1
 484 276 l 1,8,-1
461 843 m 1,11,-1
 448 805 l 1,12,-1
 203 881 l 1,13,-1
 222 938 l 1,14,-1
 461 843 l 1,11,-1
EndSplineSet
EndChar

StartChar: Aacute
Encoding: 193 193 130
Width: 690
GlyphClass: 2
Flags: W
AnchorPoint: "Anchor-5" 0 0 basechar 0
AnchorPoint: "Anchor-4" 0 0 basechar 0
AnchorPoint: "Anchor-3" 347 723 basechar 0
AnchorPoint: "Anchor-2" 639 11 basechar 0
LayerCount: 2
Fore
SplineSet
307 723 m 1,0,-1
 384 723 l 1,1,-1
 647 0 l 1,2,-1
 581 0 l 1,3,-1
 503 214 l 1,4,-1
 188 214 l 1,5,-1
 109 0 l 1,6,-1
 43 0 l 1,7,-1
 307 723 l 1,0,-1
484 276 m 1,8,-1
 346 659 l 1,9,-1
 207 276 l 1,10,-1
 484 276 l 1,8,-1
475 881 m 1,11,-1
 230 805 l 1,12,-1
 218 843 l 1,13,-1
 457 938 l 1,14,-1
 475 881 l 1,11,-1
EndSplineSet
EndChar

StartChar: Acircumflex
Encoding: 194 194 131
Width: 690
GlyphClass: 2
Flags: W
AnchorPoint: "Anchor-5" 0 0 basechar 0
AnchorPoint: "Anchor-4" 0 0 basechar 0
AnchorPoint: "Anchor-3" 347 723 basechar 0
AnchorPoint: "Anchor-2" 639 11 basechar 0
LayerCount: 2
Fore
SplineSet
307 723 m 1,0,-1
 384 723 l 1,1,-1
 647 0 l 1,2,-1
 581 0 l 1,3,-1
 503 214 l 1,4,-1
 188 214 l 1,5,-1
 109 0 l 1,6,-1
 43 0 l 1,7,-1
 307 723 l 1,0,-1
484 276 m 1,8,-1
 346 659 l 1,9,-1
 207 276 l 1,10,-1
 484 276 l 1,8,-1
347 890 m 1,11,-1
 270 827 l 1,12,-1
 202 827 l 1,13,-1
 324 931 l 1,14,-1
 372 931 l 1,15,-1
 491 827 l 1,16,-1
 419 827 l 1,17,-1
 347 890 l 1,11,-1
EndSplineSet
EndChar

StartChar: Atilde
Encoding: 195 195 132
Width: 690
GlyphClass: 2
Flags: W
AnchorPoint: "Anchor-5" 0 0 basechar 0
AnchorPoint: "Anchor-4" 0 0 basechar 0
AnchorPoint: "Anchor-3" 347 723 basechar 0
AnchorPoint: "Anchor-2" 639 11 basechar 0
LayerCount: 2
Fore
SplineSet
307 723 m 1,0,-1
 384 723 l 1,1,-1
 647 0 l 1,2,-1
 581 0 l 1,3,-1
 503 214 l 1,4,-1
 188 214 l 1,5,-1
 109 0 l 1,6,-1
 43 0 l 1,7,-1
 307 723 l 1,0,-1
484 276 m 1,8,-1
 346 659 l 1,9,-1
 207 276 l 1,10,-1
 484 276 l 1,8,-1
407 852 m 0,11,12
 389 852 389 852 375 855.5 c 128,-1,13
 361 859 361 859 342 865 c 0,14,15
 329 870 329 870 315.5 873.5 c 128,-1,16
 302 877 302 877 289 877 c 0,17,18
 273 877 273 877 263 873 c 128,-1,19
 253 869 253 869 244.5 864 c 128,-1,20
 236 859 236 859 232 857 c 0,21,22
 228 854 228 854 225 854 c 0,23,24
 221 854 221 854 220 861 c 2,25,-1
 211 883 l 2,26,27
 209 889 209 889 214 893 c 0,28,29
 232 907 232 907 247.5 914.5 c 128,-1,30
 263 922 263 922 285 922 c 0,31,32
 309 922 309 922 349 908 c 0,33,34
 352 907 352 907 370.5 901 c 128,-1,35
 389 895 389 895 408 895 c 0,36,37
 423 895 423 895 434 899 c 128,-1,38
 445 903 445 903 461 913 c 0,39,40
 466 916 466 916 469 916 c 128,-1,41
 472 916 472 916 475 909 c 2,42,-1
 484 884 l 2,43,44
 485 883 485 883 485 881 c 0,45,46
 485 877 485 877 478 873 c 0,47,48
 445 852 445 852 407 852 c 0,11,12
EndSplineSet
EndChar

StartChar: Adieresis
Encoding: 196 196 133
Width: 690
GlyphClass: 2
Flags: W
AnchorPoint: "Anchor-5" 0 0 basechar 0
AnchorPoint: "Anchor-4" 0 0 basechar 0
AnchorPoint: "Anchor-3" 347 723 basechar 0
AnchorPoint: "Anchor-2" 639 11 basechar 0
LayerCount: 2
Fore
SplineSet
307 723 m 1,0,-1
 384 723 l 1,1,-1
 647 0 l 1,2,-1
 581 0 l 1,3,-1
 503 214 l 1,4,-1
 188 214 l 1,5,-1
 109 0 l 1,6,-1
 43 0 l 1,7,-1
 307 723 l 1,0,-1
484 276 m 1,8,-1
 346 659 l 1,9,-1
 207 276 l 1,10,-1
 484 276 l 1,8,-1
316 827 m 1,11,-1
 249 827 l 1,12,-1
 249 929 l 1,13,-1
 316 929 l 1,14,-1
 316 827 l 1,11,-1
444 827 m 1,15,-1
 377 827 l 1,16,-1
 377 929 l 1,17,-1
 444 929 l 1,18,-1
 444 827 l 1,15,-1
EndSplineSet
EndChar

StartChar: Aring
Encoding: 197 197 134
Width: 690
GlyphClass: 2
Flags: W
AnchorPoint: "Anchor-5" 0 0 basechar 0
AnchorPoint: "Anchor-4" 0 0 basechar 0
AnchorPoint: "Anchor-3" 347 723 basechar 0
AnchorPoint: "Anchor-2" 639 11 basechar 0
LayerCount: 2
Fore
SplineSet
307 723 m 1,0,-1
 384 723 l 1,1,-1
 647 0 l 1,2,-1
 581 0 l 1,3,-1
 503 214 l 1,4,-1
 188 214 l 1,5,-1
 109 0 l 1,6,-1
 43 0 l 1,7,-1
 307 723 l 1,0,-1
484 276 m 1,8,-1
 346 659 l 1,9,-1
 207 276 l 1,10,-1
 484 276 l 1,8,-1
418 816.5 m 128,-1,12
 389 788 389 788 347 788 c 128,-1,13
 305 788 305 788 276 817.5 c 128,-1,14
 247 847 247 847 247 890 c 0,15,16
 247 930 247 930 276.5 958 c 128,-1,17
 306 986 306 986 347 986 c 0,18,19
 389 986 389 986 418 957.5 c 128,-1,20
 447 929 447 929 447 888 c 0,21,11
 447 845 447 845 418 816.5 c 128,-1,12
385 927.5 m 128,-1,23
 369 943 369 943 346 943 c 128,-1,24
 323 943 323 943 306.5 927.5 c 128,-1,25
 290 912 290 912 290 888 c 0,26,27
 290 865 290 865 307 848 c 128,-1,28
 324 831 324 831 346 831 c 0,29,30
 369 831 369 831 385 848 c 128,-1,31
 401 865 401 865 401 888 c 0,32,22
 401 912 401 912 385 927.5 c 128,-1,23
EndSplineSet
EndChar

StartChar: AE
Encoding: 198 198 135
Width: 985
GlyphClass: 2
Flags: W
AnchorPoint: "Anchor-5" 0 0 basechar 0
AnchorPoint: "Anchor-4" 0 0 basechar 0
AnchorPoint: "Anchor-3" 672 723 basechar 0
AnchorPoint: "Anchor-2" 0 0 basechar 0
LayerCount: 2
Fore
SplineSet
918 0 m 1,0,-1
 487 0 l 1,1,-1
 487 218 l 1,2,-1
 232 218 l 1,3,-1
 109 0 l 1,4,-1
 43 0 l 1,5,-1
 450 723 l 1,6,-1
 905 723 l 1,7,-1
 904 665 l 1,8,-1
 558 665 l 1,9,-1
 558 394 l 1,10,-1
 826 394 l 1,11,-1
 826 336 l 1,12,-1
 558 336 l 1,13,-1
 558 58 l 1,14,-1
 918 58 l 1,15,-1
 918 0 l 1,0,-1
487 672 m 1,16,-1
 259 276 l 1,17,-1
 487 276 l 1,18,-1
 487 672 l 1,16,-1
EndSplineSet
EndChar

StartChar: Ccedilla
Encoding: 199 199 136
Width: 670
GlyphClass: 2
Flags: W
AnchorPoint: "Anchor-5" 0 0 basechar 0
AnchorPoint: "Anchor-4" 355 0 basechar 0
AnchorPoint: "Anchor-3" 355 723 basechar 0
AnchorPoint: "Anchor-2" 0 0 basechar 0
LayerCount: 2
Fore
SplineSet
480 705 m 128,-1,1
 538 677 538 677 573 629.5 c 128,-1,2
 608 582 608 582 614 525 c 1,3,-1
 546 519 l 1,4,5
 532 590 532 590 482 632 c 128,-1,6
 432 674 432 674 349 674 c 0,7,8
 239 674 239 674 183 595 c 128,-1,9
 127 516 127 516 127 360 c 0,10,11
 127 207 127 207 184 128 c 128,-1,12
 241 49 241 49 356 49 c 0,13,14
 427 49 427 49 477.5 88.5 c 128,-1,15
 528 128 528 128 544 197 c 1,16,-1
 611 188 l 1,17,18
 605 133 605 133 569.5 87.5 c 128,-1,19
 534 42 534 42 478 16 c 128,-1,20
 422 -10 422 -10 355 -10 c 0,21,22
 212 -10 212 -10 134 88 c 128,-1,23
 56 186 56 186 56 361 c 128,-1,24
 56 536 56 536 132.5 634.5 c 128,-1,25
 209 733 209 733 348 733 c 0,26,0
 422 733 422 733 480 705 c 128,-1,1
407 -182.5 m 128,-1,28
 378 -202 378 -202 334 -202 c 0,29,30
 286 -202 286 -202 250 -178 c 1,31,-1
 263 -145 l 1,32,33
 290 -168 290 -168 327 -168 c 0,34,35
 383 -168 383 -168 383 -128 c 0,36,37
 383 -106 383 -106 364.5 -95.5 c 128,-1,38
 346 -85 346 -85 306 -83 c 0,39,40
 298 -83 298 -83 301 -78 c 2,41,-1
 337 5 l 1,42,-1
 377 5 l 1,43,-1
 353 -56 l 1,44,45
 397 -59 397 -59 416.5 -79 c 128,-1,46
 436 -99 436 -99 436 -127 c 0,47,27
 436 -163 436 -163 407 -182.5 c 128,-1,28
EndSplineSet
EndChar

StartChar: Egrave
Encoding: 200 200 137
Width: 615
GlyphClass: 2
Flags: W
AnchorPoint: "Anchor-5" 0 0 basechar 0
AnchorPoint: "Anchor-4" 346 0 basechar 0
AnchorPoint: "Anchor-3" 330 723 basechar 0
AnchorPoint: "Anchor-2" 539 10 basechar 0
LayerCount: 2
Fore
SplineSet
101 723 m 1,0,-1
 535 723 l 1,1,-1
 535 664 l 1,2,-1
 165 664 l 1,3,-1
 165 395 l 1,4,-1
 504 395 l 1,5,-1
 504 336 l 1,6,-1
 165 336 l 1,7,-1
 165 61 l 1,8,-1
 547 60 l 1,9,-1
 547 0 l 1,10,-1
 101 0 l 1,11,-1
 101 723 l 1,0,-1
444 843 m 1,12,-1
 431 805 l 1,13,-1
 186 881 l 1,14,-1
 205 938 l 1,15,-1
 444 843 l 1,12,-1
EndSplineSet
EndChar

StartChar: Eacute
Encoding: 201 201 138
Width: 615
GlyphClass: 2
Flags: W
AnchorPoint: "Anchor-5" 0 0 basechar 0
AnchorPoint: "Anchor-4" 346 0 basechar 0
AnchorPoint: "Anchor-3" 330 723 basechar 0
AnchorPoint: "Anchor-2" 539 10 basechar 0
LayerCount: 2
Fore
SplineSet
101 723 m 1,0,-1
 535 723 l 1,1,-1
 535 664 l 1,2,-1
 165 664 l 1,3,-1
 165 395 l 1,4,-1
 504 395 l 1,5,-1
 504 336 l 1,6,-1
 165 336 l 1,7,-1
 165 61 l 1,8,-1
 547 60 l 1,9,-1
 547 0 l 1,10,-1
 101 0 l 1,11,-1
 101 723 l 1,0,-1
458 881 m 1,12,-1
 213 805 l 1,13,-1
 201 843 l 1,14,-1
 440 938 l 1,15,-1
 458 881 l 1,12,-1
EndSplineSet
EndChar

StartChar: Ecircumflex
Encoding: 202 202 139
Width: 615
GlyphClass: 2
Flags: W
AnchorPoint: "Anchor-5" 0 0 basechar 0
AnchorPoint: "Anchor-4" 346 0 basechar 0
AnchorPoint: "Anchor-3" 330 723 basechar 0
AnchorPoint: "Anchor-2" 539 10 basechar 0
LayerCount: 2
Fore
SplineSet
101 723 m 1,0,-1
 535 723 l 1,1,-1
 535 664 l 1,2,-1
 165 664 l 1,3,-1
 165 395 l 1,4,-1
 504 395 l 1,5,-1
 504 336 l 1,6,-1
 165 336 l 1,7,-1
 165 61 l 1,8,-1
 547 60 l 1,9,-1
 547 0 l 1,10,-1
 101 0 l 1,11,-1
 101 723 l 1,0,-1
330 890 m 1,12,-1
 253 827 l 1,13,-1
 185 827 l 1,14,-1
 307 931 l 1,15,-1
 355 931 l 1,16,-1
 474 827 l 1,17,-1
 402 827 l 1,18,-1
 330 890 l 1,12,-1
EndSplineSet
EndChar

StartChar: Edieresis
Encoding: 203 203 140
Width: 615
GlyphClass: 2
Flags: W
AnchorPoint: "Anchor-5" 0 0 basechar 0
AnchorPoint: "Anchor-4" 346 0 basechar 0
AnchorPoint: "Anchor-3" 330 723 basechar 0
AnchorPoint: "Anchor-2" 539 10 basechar 0
LayerCount: 2
Fore
SplineSet
101 723 m 1,0,-1
 535 723 l 1,1,-1
 535 664 l 1,2,-1
 165 664 l 1,3,-1
 165 395 l 1,4,-1
 504 395 l 1,5,-1
 504 336 l 1,6,-1
 165 336 l 1,7,-1
 165 61 l 1,8,-1
 547 60 l 1,9,-1
 547 0 l 1,10,-1
 101 0 l 1,11,-1
 101 723 l 1,0,-1
299 827 m 1,12,-1
 232 827 l 1,13,-1
 232 929 l 1,14,-1
 299 929 l 1,15,-1
 299 827 l 1,12,-1
427 827 m 1,16,-1
 360 827 l 1,17,-1
 360 929 l 1,18,-1
 427 929 l 1,19,-1
 427 827 l 1,16,-1
EndSplineSet
EndChar

StartChar: Igrave
Encoding: 204 204 141
Width: 266
GlyphClass: 2
Flags: W
AnchorPoint: "Anchor-5" 0 0 basechar 0
AnchorPoint: "Anchor-4" 136 0 basechar 0
AnchorPoint: "Anchor-3" 137 723 basechar 0
AnchorPoint: "Anchor-2" 155 9 basechar 0
LayerCount: 2
Fore
SplineSet
165 723 m 1,0,-1
 165 0 l 1,1,-1
 101 0 l 1,2,-1
 101 723 l 1,3,-1
 165 723 l 1,0,-1
251 843 m 1,4,-1
 238 805 l 1,5,-1
 -7 881 l 1,6,-1
 12 938 l 1,7,-1
 251 843 l 1,4,-1
EndSplineSet
EndChar

StartChar: Iacute
Encoding: 205 205 142
Width: 266
GlyphClass: 2
Flags: W
AnchorPoint: "Anchor-5" 0 0 basechar 0
AnchorPoint: "Anchor-4" 136 0 basechar 0
AnchorPoint: "Anchor-3" 137 723 basechar 0
AnchorPoint: "Anchor-2" 155 9 basechar 0
LayerCount: 2
Fore
SplineSet
165 723 m 1,0,-1
 165 0 l 1,1,-1
 101 0 l 1,2,-1
 101 723 l 1,3,-1
 165 723 l 1,0,-1
265 881 m 1,4,-1
 20 805 l 1,5,-1
 8 843 l 1,6,-1
 247 938 l 1,7,-1
 265 881 l 1,4,-1
EndSplineSet
EndChar

StartChar: Icircumflex
Encoding: 206 206 143
Width: 266
GlyphClass: 2
Flags: W
AnchorPoint: "Anchor-5" 0 0 basechar 0
AnchorPoint: "Anchor-4" 136 0 basechar 0
AnchorPoint: "Anchor-3" 137 723 basechar 0
AnchorPoint: "Anchor-2" 155 9 basechar 0
LayerCount: 2
Fore
SplineSet
165 723 m 1,0,-1
 165 0 l 1,1,-1
 101 0 l 1,2,-1
 101 723 l 1,3,-1
 165 723 l 1,0,-1
137 890 m 1,4,-1
 60 827 l 1,5,-1
 -8 827 l 1,6,-1
 114 931 l 1,7,-1
 162 931 l 1,8,-1
 281 827 l 1,9,-1
 209 827 l 1,10,-1
 137 890 l 1,4,-1
EndSplineSet
EndChar

StartChar: Idieresis
Encoding: 207 207 144
Width: 266
GlyphClass: 2
Flags: W
AnchorPoint: "Anchor-5" 0 0 basechar 0
AnchorPoint: "Anchor-4" 136 0 basechar 0
AnchorPoint: "Anchor-3" 137 723 basechar 0
AnchorPoint: "Anchor-2" 155 9 basechar 0
LayerCount: 2
Fore
SplineSet
165 723 m 1,0,-1
 165 0 l 1,1,-1
 101 0 l 1,2,-1
 101 723 l 1,3,-1
 165 723 l 1,0,-1
106 827 m 1,4,-1
 39 827 l 1,5,-1
 39 929 l 1,6,-1
 106 929 l 1,7,-1
 106 827 l 1,4,-1
234 827 m 1,8,-1
 167 827 l 1,9,-1
 167 929 l 1,10,-1
 234 929 l 1,11,-1
 234 827 l 1,8,-1
EndSplineSet
EndChar

StartChar: Eth
Encoding: 208 208 145
Width: 679
GlyphClass: 2
Flags: W
AnchorPoint: "Anchor-5" 0 0 basechar 0
AnchorPoint: "Anchor-4" 0 0 basechar 0
AnchorPoint: "Anchor-3" 334 723 basechar 0
AnchorPoint: "Anchor-2" 0 0 basechar 0
LayerCount: 2
Fore
SplineSet
534 633.5 m 128,-1,1
 624 546 624 546 624 367 c 0,2,3
 624 180 624 180 529 90 c 128,-1,4
 434 0 434 0 235 0 c 2,5,-1
 105 0 l 1,6,-1
 105 335 l 1,7,-1
 46 335 l 2,8,9
 33 335 33 335 33 347 c 2,10,-1
 33 380 l 2,11,12
 33 391 33 391 42 391 c 2,13,-1
 105 391 l 1,14,-1
 105 723 l 1,15,-1
 247 722 l 2,16,0
 444 721 444 721 534 633.5 c 128,-1,1
476.5 130 m 128,-1,18
 557 201 557 201 557 364 c 0,19,20
 557 477 557 477 520.5 543 c 128,-1,21
 484 609 484 609 414.5 637 c 128,-1,22
 345 665 345 665 239 665 c 2,23,-1
 172 665 l 1,24,-1
 172 391 l 1,25,-1
 340 391 l 2,26,27
 348 391 348 391 348 381 c 2,28,-1
 348 348 l 2,29,30
 348 335 348 335 333 335 c 2,31,-1
 172 335 l 1,32,-1
 172 59 l 1,33,-1
 234 59 l 2,34,17
 396 59 396 59 476.5 130 c 128,-1,18
EndSplineSet
EndChar

StartChar: Ntilde
Encoding: 209 209 146
Width: 735
GlyphClass: 2
Flags: W
AnchorPoint: "Anchor-5" 0 0 basechar 0
AnchorPoint: "Anchor-4" 347 0 basechar 0
AnchorPoint: "Anchor-3" 379 723 basechar 0
AnchorPoint: "Anchor-2" 0 0 basechar 0
LayerCount: 2
Fore
SplineSet
633 723 m 1,0,-1
 633 0 l 1,1,-1
 577 0 l 1,2,-1
 165 610 l 1,3,-1
 165 0 l 1,4,-1
 101 0 l 1,5,-1
 101 723 l 1,6,-1
 159 723 l 1,7,-1
 570 116 l 1,8,-1
 570 723 l 1,9,-1
 633 723 l 1,0,-1
439 852 m 0,10,11
 421 852 421 852 407 855.5 c 128,-1,12
 393 859 393 859 374 865 c 0,13,14
 361 870 361 870 347.5 873.5 c 128,-1,15
 334 877 334 877 321 877 c 0,16,17
 305 877 305 877 295 873 c 128,-1,18
 285 869 285 869 276.5 864 c 128,-1,19
 268 859 268 859 264 857 c 0,20,21
 260 854 260 854 257 854 c 0,22,23
 253 854 253 854 252 861 c 2,24,-1
 243 883 l 2,25,26
 241 889 241 889 246 893 c 0,27,28
 264 907 264 907 279.5 914.5 c 128,-1,29
 295 922 295 922 317 922 c 0,30,31
 341 922 341 922 381 908 c 0,32,33
 384 907 384 907 402.5 901 c 128,-1,34
 421 895 421 895 440 895 c 0,35,36
 455 895 455 895 466 899 c 128,-1,37
 477 903 477 903 493 913 c 0,38,39
 498 916 498 916 501 916 c 128,-1,40
 504 916 504 916 507 909 c 2,41,-1
 516 884 l 2,42,43
 517 883 517 883 517 881 c 0,44,45
 517 877 517 877 510 873 c 0,46,47
 477 852 477 852 439 852 c 0,10,11
EndSplineSet
EndChar

StartChar: Ograve
Encoding: 210 210 147
Width: 717
GlyphClass: 2
Flags: W
AnchorPoint: "Anchor-5" 0 0 basechar 0
AnchorPoint: "Anchor-4" 361 0 basechar 0
AnchorPoint: "Anchor-3" 361 723 basechar 0
AnchorPoint: "Anchor-2" 432 9 basechar 0
LayerCount: 2
Fore
SplineSet
136 86 m 128,-1,1
 56 182 56 182 56 358 c 0,2,3
 56 477 56 477 93 561.5 c 128,-1,4
 130 646 130 646 198 689.5 c 128,-1,5
 266 733 266 733 360 733 c 0,6,7
 453 733 453 733 520.5 689.5 c 128,-1,8
 588 646 588 646 624.5 562.5 c 128,-1,9
 661 479 661 479 661 360 c 0,10,11
 661 183 661 183 581 86.5 c 128,-1,12
 501 -10 501 -10 359 -10 c 0,13,0
 216 -10 216 -10 136 86 c 128,-1,1
532.5 126 m 128,-1,15
 591 203 591 203 591 360 c 0,16,17
 591 518 591 518 532 596 c 128,-1,18
 473 674 473 674 360 674 c 128,-1,19
 247 674 247 674 187 595.5 c 128,-1,20
 127 517 127 517 127 360 c 0,21,22
 127 204 127 204 187 126.5 c 128,-1,23
 247 49 247 49 361 49 c 0,24,14
 474 49 474 49 532.5 126 c 128,-1,15
475 843 m 1,25,-1
 462 805 l 1,26,-1
 217 881 l 1,27,-1
 236 938 l 1,28,-1
 475 843 l 1,25,-1
EndSplineSet
EndChar

StartChar: Oacute
Encoding: 211 211 148
Width: 717
GlyphClass: 2
Flags: W
AnchorPoint: "Anchor-5" 0 0 basechar 0
AnchorPoint: "Anchor-4" 361 0 basechar 0
AnchorPoint: "Anchor-3" 361 723 basechar 0
AnchorPoint: "Anchor-2" 432 9 basechar 0
LayerCount: 2
Fore
SplineSet
136 86 m 128,-1,1
 56 182 56 182 56 358 c 0,2,3
 56 477 56 477 93 561.5 c 128,-1,4
 130 646 130 646 198 689.5 c 128,-1,5
 266 733 266 733 360 733 c 0,6,7
 453 733 453 733 520.5 689.5 c 128,-1,8
 588 646 588 646 624.5 562.5 c 128,-1,9
 661 479 661 479 661 360 c 0,10,11
 661 183 661 183 581 86.5 c 128,-1,12
 501 -10 501 -10 359 -10 c 0,13,0
 216 -10 216 -10 136 86 c 128,-1,1
532.5 126 m 128,-1,15
 591 203 591 203 591 360 c 0,16,17
 591 518 591 518 532 596 c 128,-1,18
 473 674 473 674 360 674 c 128,-1,19
 247 674 247 674 187 595.5 c 128,-1,20
 127 517 127 517 127 360 c 0,21,22
 127 204 127 204 187 126.5 c 128,-1,23
 247 49 247 49 361 49 c 0,24,14
 474 49 474 49 532.5 126 c 128,-1,15
489 881 m 1,25,-1
 244 805 l 1,26,-1
 232 843 l 1,27,-1
 471 938 l 1,28,-1
 489 881 l 1,25,-1
EndSplineSet
EndChar

StartChar: Ocircumflex
Encoding: 212 212 149
Width: 717
GlyphClass: 2
Flags: W
AnchorPoint: "Anchor-5" 0 0 basechar 0
AnchorPoint: "Anchor-4" 361 0 basechar 0
AnchorPoint: "Anchor-3" 361 723 basechar 0
AnchorPoint: "Anchor-2" 432 9 basechar 0
LayerCount: 2
Fore
SplineSet
136 86 m 128,-1,1
 56 182 56 182 56 358 c 0,2,3
 56 477 56 477 93 561.5 c 128,-1,4
 130 646 130 646 198 689.5 c 128,-1,5
 266 733 266 733 360 733 c 0,6,7
 453 733 453 733 520.5 689.5 c 128,-1,8
 588 646 588 646 624.5 562.5 c 128,-1,9
 661 479 661 479 661 360 c 0,10,11
 661 183 661 183 581 86.5 c 128,-1,12
 501 -10 501 -10 359 -10 c 0,13,0
 216 -10 216 -10 136 86 c 128,-1,1
532.5 126 m 128,-1,15
 591 203 591 203 591 360 c 0,16,17
 591 518 591 518 532 596 c 128,-1,18
 473 674 473 674 360 674 c 128,-1,19
 247 674 247 674 187 595.5 c 128,-1,20
 127 517 127 517 127 360 c 0,21,22
 127 204 127 204 187 126.5 c 128,-1,23
 247 49 247 49 361 49 c 0,24,14
 474 49 474 49 532.5 126 c 128,-1,15
361 890 m 1,25,-1
 284 827 l 1,26,-1
 216 827 l 1,27,-1
 338 931 l 1,28,-1
 386 931 l 1,29,-1
 505 827 l 1,30,-1
 433 827 l 1,31,-1
 361 890 l 1,25,-1
EndSplineSet
EndChar

StartChar: Otilde
Encoding: 213 213 150
Width: 717
GlyphClass: 2
Flags: W
AnchorPoint: "Anchor-5" 0 0 basechar 0
AnchorPoint: "Anchor-4" 361 0 basechar 0
AnchorPoint: "Anchor-3" 361 723 basechar 0
AnchorPoint: "Anchor-2" 432 9 basechar 0
LayerCount: 2
Fore
SplineSet
136 86 m 128,-1,1
 56 182 56 182 56 358 c 0,2,3
 56 477 56 477 93 561.5 c 128,-1,4
 130 646 130 646 198 689.5 c 128,-1,5
 266 733 266 733 360 733 c 0,6,7
 453 733 453 733 520.5 689.5 c 128,-1,8
 588 646 588 646 624.5 562.5 c 128,-1,9
 661 479 661 479 661 360 c 0,10,11
 661 183 661 183 581 86.5 c 128,-1,12
 501 -10 501 -10 359 -10 c 0,13,0
 216 -10 216 -10 136 86 c 128,-1,1
532.5 126 m 128,-1,15
 591 203 591 203 591 360 c 0,16,17
 591 518 591 518 532 596 c 128,-1,18
 473 674 473 674 360 674 c 128,-1,19
 247 674 247 674 187 595.5 c 128,-1,20
 127 517 127 517 127 360 c 0,21,22
 127 204 127 204 187 126.5 c 128,-1,23
 247 49 247 49 361 49 c 0,24,14
 474 49 474 49 532.5 126 c 128,-1,15
421 852 m 0,25,26
 403 852 403 852 389 855.5 c 128,-1,27
 375 859 375 859 356 865 c 0,28,29
 343 870 343 870 329.5 873.5 c 128,-1,30
 316 877 316 877 303 877 c 0,31,32
 287 877 287 877 277 873 c 128,-1,33
 267 869 267 869 258.5 864 c 128,-1,34
 250 859 250 859 246 857 c 0,35,36
 242 854 242 854 239 854 c 0,37,38
 235 854 235 854 234 861 c 2,39,-1
 225 883 l 2,40,41
 223 889 223 889 228 893 c 0,42,43
 246 907 246 907 261.5 914.5 c 128,-1,44
 277 922 277 922 299 922 c 0,45,46
 323 922 323 922 363 908 c 0,47,48
 366 907 366 907 384.5 901 c 128,-1,49
 403 895 403 895 422 895 c 0,50,51
 437 895 437 895 448 899 c 128,-1,52
 459 903 459 903 475 913 c 0,53,54
 480 916 480 916 483 916 c 128,-1,55
 486 916 486 916 489 909 c 2,56,-1
 498 884 l 2,57,58
 499 883 499 883 499 881 c 0,59,60
 499 877 499 877 492 873 c 0,61,62
 459 852 459 852 421 852 c 0,25,26
EndSplineSet
EndChar

StartChar: Odieresis
Encoding: 214 214 151
Width: 717
GlyphClass: 2
Flags: W
AnchorPoint: "Anchor-5" 0 0 basechar 0
AnchorPoint: "Anchor-4" 361 0 basechar 0
AnchorPoint: "Anchor-3" 361 723 basechar 0
AnchorPoint: "Anchor-2" 432 9 basechar 0
LayerCount: 2
Fore
SplineSet
136 86 m 128,-1,1
 56 182 56 182 56 358 c 0,2,3
 56 477 56 477 93 561.5 c 128,-1,4
 130 646 130 646 198 689.5 c 128,-1,5
 266 733 266 733 360 733 c 0,6,7
 453 733 453 733 520.5 689.5 c 128,-1,8
 588 646 588 646 624.5 562.5 c 128,-1,9
 661 479 661 479 661 360 c 0,10,11
 661 183 661 183 581 86.5 c 128,-1,12
 501 -10 501 -10 359 -10 c 0,13,0
 216 -10 216 -10 136 86 c 128,-1,1
532.5 126 m 128,-1,15
 591 203 591 203 591 360 c 0,16,17
 591 518 591 518 532 596 c 128,-1,18
 473 674 473 674 360 674 c 128,-1,19
 247 674 247 674 187 595.5 c 128,-1,20
 127 517 127 517 127 360 c 0,21,22
 127 204 127 204 187 126.5 c 128,-1,23
 247 49 247 49 361 49 c 0,24,14
 474 49 474 49 532.5 126 c 128,-1,15
330 827 m 1,25,-1
 263 827 l 1,26,-1
 263 929 l 1,27,-1
 330 929 l 1,28,-1
 330 827 l 1,25,-1
458 827 m 1,29,-1
 391 827 l 1,30,-1
 391 929 l 1,31,-1
 458 929 l 1,32,-1
 458 827 l 1,29,-1
EndSplineSet
EndChar

StartChar: multiply
Encoding: 215 215 152
Width: 520
GlyphClass: 2
Flags: W
LayerCount: 2
Fore
SplineSet
296 363 m 1,0,-1
 455 205 l 1,1,-1
 417 167 l 1,2,-1
 259 325 l 1,3,-1
 102 167 l 1,4,-1
 64 205 l 1,5,-1
 221 363 l 1,6,-1
 63 521 l 1,7,-1
 101 558 l 1,8,-1
 259 401 l 1,9,-1
 417 560 l 1,10,-1
 455 523 l 1,11,-1
 296 363 l 1,0,-1
EndSplineSet
EndChar

StartChar: Oslash
Encoding: 216 216 153
Width: 706
GlyphClass: 2
Flags: W
AnchorPoint: "Anchor-5" 0 0 basechar 0
AnchorPoint: "Anchor-4" 0 0 basechar 0
AnchorPoint: "Anchor-3" 353 723 basechar 0
AnchorPoint: "Anchor-2" 0 0 basechar 0
LayerCount: 2
Fore
SplineSet
683 689 m 2,0,-1
 601 597 l 1,1,2
 655 504 655 504 655 360 c 0,3,4
 655 242 655 242 618.5 159 c 128,-1,5
 582 76 582 76 514 33 c 128,-1,6
 446 -10 446 -10 352 -10 c 0,7,8
 216 -10 216 -10 139 76 c 1,9,-1
 70 -1 l 2,10,11
 64 -9 64 -9 59 -9 c 128,-1,12
 54 -9 54 -9 48 -3 c 2,13,-1
 28 16 l 2,14,15
 22 23 22 23 21 26.5 c 128,-1,16
 20 30 20 30 24 34 c 2,17,-1
 103 124 l 1,18,19
 50 213 50 213 50 358 c 0,20,21
 50 478 50 478 86.5 562 c 128,-1,22
 123 646 123 646 191 689.5 c 128,-1,23
 259 733 259 733 353 733 c 0,24,25
 487 733 487 733 566 645 c 1,26,-1
 638 726 l 2,27,28
 646 736 646 736 653 729 c 2,29,-1
 682 703 l 2,30,31
 689 696 689 696 683 689 c 2,0,-1
158 183 m 1,32,-1
 520 596 l 1,33,34
 466 674 466 674 353 674 c 0,35,36
 128 674 128 674 128 360 c 0,37,38
 128 251 128 251 158 183 c 1,32,-1
546 539 m 1,39,-1
 184 126 l 1,40,41
 242 49 242 49 354 49 c 128,-1,42
 466 49 466 49 521 125.5 c 128,-1,43
 576 202 576 202 576 360 c 0,44,45
 576 469 576 469 546 539 c 1,39,-1
EndSplineSet
EndChar

StartChar: Ugrave
Encoding: 217 217 154
Width: 704
GlyphClass: 2
Flags: W
AnchorPoint: "Anchor-5" 0 0 basechar 0
AnchorPoint: "Anchor-4" 0 0 basechar 0
AnchorPoint: "Anchor-3" 351 723 basechar 0
AnchorPoint: "Anchor-2" 423 9 basechar 0
LayerCount: 2
Fore
SplineSet
541.5 52 m 128,-1,1
 480 -10 480 -10 352 -10 c 0,2,3
 222 -10 222 -10 161.5 53.5 c 128,-1,4
 101 117 101 117 101 248 c 2,5,-1
 101 723 l 1,6,-1
 168 723 l 1,7,-1
 168 233 l 2,8,9
 168 141 168 141 214.5 94.5 c 128,-1,10
 261 48 261 48 352 48 c 0,11,12
 444 48 444 48 491.5 94.5 c 128,-1,13
 539 141 539 141 539 233 c 2,14,-1
 539 723 l 1,15,-1
 603 723 l 1,16,-1
 603 236 l 2,17,0
 603 114 603 114 541.5 52 c 128,-1,1
465 843 m 1,18,-1
 452 805 l 1,19,-1
 207 881 l 1,20,-1
 226 938 l 1,21,-1
 465 843 l 1,18,-1
EndSplineSet
EndChar

StartChar: Uacute
Encoding: 218 218 155
Width: 704
GlyphClass: 2
Flags: W
AnchorPoint: "Anchor-5" 0 0 basechar 0
AnchorPoint: "Anchor-4" 0 0 basechar 0
AnchorPoint: "Anchor-3" 351 723 basechar 0
AnchorPoint: "Anchor-2" 423 9 basechar 0
LayerCount: 2
Fore
SplineSet
541.5 52 m 128,-1,1
 480 -10 480 -10 352 -10 c 0,2,3
 222 -10 222 -10 161.5 53.5 c 128,-1,4
 101 117 101 117 101 248 c 2,5,-1
 101 723 l 1,6,-1
 168 723 l 1,7,-1
 168 233 l 2,8,9
 168 141 168 141 214.5 94.5 c 128,-1,10
 261 48 261 48 352 48 c 0,11,12
 444 48 444 48 491.5 94.5 c 128,-1,13
 539 141 539 141 539 233 c 2,14,-1
 539 723 l 1,15,-1
 603 723 l 1,16,-1
 603 236 l 2,17,0
 603 114 603 114 541.5 52 c 128,-1,1
479 881 m 1,18,-1
 234 805 l 1,19,-1
 222 843 l 1,20,-1
 461 938 l 1,21,-1
 479 881 l 1,18,-1
EndSplineSet
EndChar

StartChar: Ucircumflex
Encoding: 219 219 156
Width: 704
GlyphClass: 2
Flags: W
AnchorPoint: "Anchor-5" 0 0 basechar 0
AnchorPoint: "Anchor-4" 0 0 basechar 0
AnchorPoint: "Anchor-3" 351 723 basechar 0
AnchorPoint: "Anchor-2" 423 9 basechar 0
LayerCount: 2
Fore
SplineSet
541.5 52 m 128,-1,1
 480 -10 480 -10 352 -10 c 0,2,3
 222 -10 222 -10 161.5 53.5 c 128,-1,4
 101 117 101 117 101 248 c 2,5,-1
 101 723 l 1,6,-1
 168 723 l 1,7,-1
 168 233 l 2,8,9
 168 141 168 141 214.5 94.5 c 128,-1,10
 261 48 261 48 352 48 c 0,11,12
 444 48 444 48 491.5 94.5 c 128,-1,13
 539 141 539 141 539 233 c 2,14,-1
 539 723 l 1,15,-1
 603 723 l 1,16,-1
 603 236 l 2,17,0
 603 114 603 114 541.5 52 c 128,-1,1
351 890 m 1,18,-1
 274 827 l 1,19,-1
 206 827 l 1,20,-1
 328 931 l 1,21,-1
 376 931 l 1,22,-1
 495 827 l 1,23,-1
 423 827 l 1,24,-1
 351 890 l 1,18,-1
EndSplineSet
EndChar

StartChar: Udieresis
Encoding: 220 220 157
Width: 704
GlyphClass: 2
Flags: W
AnchorPoint: "Anchor-5" 0 0 basechar 0
AnchorPoint: "Anchor-4" 0 0 basechar 0
AnchorPoint: "Anchor-3" 351 723 basechar 0
AnchorPoint: "Anchor-2" 423 9 basechar 0
LayerCount: 2
Fore
SplineSet
541.5 52 m 128,-1,1
 480 -10 480 -10 352 -10 c 0,2,3
 222 -10 222 -10 161.5 53.5 c 128,-1,4
 101 117 101 117 101 248 c 2,5,-1
 101 723 l 1,6,-1
 168 723 l 1,7,-1
 168 233 l 2,8,9
 168 141 168 141 214.5 94.5 c 128,-1,10
 261 48 261 48 352 48 c 0,11,12
 444 48 444 48 491.5 94.5 c 128,-1,13
 539 141 539 141 539 233 c 2,14,-1
 539 723 l 1,15,-1
 603 723 l 1,16,-1
 603 236 l 2,17,0
 603 114 603 114 541.5 52 c 128,-1,1
320 827 m 1,18,-1
 253 827 l 1,19,-1
 253 929 l 1,20,-1
 320 929 l 1,21,-1
 320 827 l 1,18,-1
448 827 m 1,22,-1
 381 827 l 1,23,-1
 381 929 l 1,24,-1
 448 929 l 1,25,-1
 448 827 l 1,22,-1
EndSplineSet
EndChar

StartChar: Yacute
Encoding: 221 221 158
Width: 566
GlyphClass: 2
Flags: W
AnchorPoint: "Anchor-5" 0 0 basechar 0
AnchorPoint: "Anchor-4" 0 0 basechar 0
AnchorPoint: "Anchor-3" 284 723 basechar 0
AnchorPoint: "Anchor-2" 0 0 basechar 0
LayerCount: 2
Fore
SplineSet
316 309 m 1,0,-1
 316 0 l 1,1,-1
 253 0 l 1,2,-1
 253 310 l 1,3,-1
 9 723 l 1,4,-1
 79 723 l 1,5,-1
 285 369 l 1,6,-1
 488 723 l 1,7,-1
 557 723 l 1,8,-1
 316 309 l 1,0,-1
412 881 m 1,9,-1
 167 805 l 1,10,-1
 155 843 l 1,11,-1
 394 938 l 1,12,-1
 412 881 l 1,9,-1
EndSplineSet
EndChar

StartChar: Thorn
Encoding: 222 222 159
Width: 645
GlyphClass: 2
Flags: W
LayerCount: 2
Fore
SplineSet
542.5 221.5 m 128,-1,1
 473 171 473 171 356 171 c 2,2,-1
 174 171 l 1,3,-1
 174 0 l 1,4,-1
 101 0 l 1,5,-1
 101 723 l 1,6,-1
 174 723 l 1,7,-1
 174 569 l 1,8,-1
 346 569 l 2,9,10
 468 569 468 569 540 521 c 128,-1,11
 612 473 612 473 612 377 c 0,12,0
 612 272 612 272 542.5 221.5 c 128,-1,1
487 480.5 m 128,-1,14
 437 512 437 512 344 512 c 2,15,-1
 174 512 l 1,16,-1
 174 228 l 1,17,-1
 350 228 l 2,18,19
 439 228 439 228 488 264.5 c 128,-1,20
 537 301 537 301 537 378 c 0,21,13
 537 449 537 449 487 480.5 c 128,-1,14
EndSplineSet
EndChar

StartChar: germandbls
Encoding: 223 223 160
Width: 585
GlyphClass: 2
Flags: W
LayerCount: 2
Fore
SplineSet
430.5 684.5 m 128,-1,1
 469 646 469 646 469 590 c 0,2,3
 469 553 469 553 454 529.5 c 128,-1,4
 439 506 439 506 417.5 491.5 c 128,-1,5
 396 477 396 477 355 457 c 0,6,7
 313 434 313 434 300 422.5 c 128,-1,8
 287 411 287 411 287 391 c 128,-1,9
 287 371 287 371 300 362 c 128,-1,10
 313 353 313 353 353 340 c 0,11,12
 408 321 408 321 442.5 304 c 128,-1,13
 477 287 477 287 505.5 251 c 128,-1,14
 534 215 534 215 534 157 c 0,15,16
 534 78 534 78 480.5 34 c 128,-1,17
 427 -10 427 -10 345 -10 c 0,18,19
 309 -10 309 -10 270.5 -0.5 c 128,-1,20
 232 9 232 9 207 25 c 1,21,-1
 234 71 l 1,22,23
 261 55 261 55 284 47.5 c 128,-1,24
 307 40 307 40 338 40 c 0,25,26
 400 40 400 40 436.5 69.5 c 128,-1,27
 473 99 473 99 473 151 c 0,28,29
 473 189 473 189 454.5 213 c 128,-1,30
 436 237 436 237 409 250 c 128,-1,31
 382 263 382 263 337 278 c 0,32,33
 304 289 304 289 282.5 299.5 c 128,-1,34
 261 310 261 310 246 330.5 c 128,-1,35
 231 351 231 351 231 383 c 0,36,37
 231 418 231 418 252 442 c 128,-1,38
 273 466 273 466 323 493 c 0,39,40
 329 496 329 496 355 510.5 c 128,-1,41
 381 525 381 525 394.5 545 c 128,-1,42
 408 565 408 565 408 590 c 0,43,44
 408 629 408 629 380 651 c 128,-1,45
 352 673 352 673 301 673 c 0,46,47
 237 673 237 673 199 634.5 c 128,-1,48
 161 596 161 596 161 522 c 2,49,-1
 161 0 l 1,50,-1
 98 0 l 1,51,-1
 98 463 l 1,52,-1
 27 463 l 1,53,-1
 27 512 l 1,54,-1
 97 512 l 1,55,56
 98 608 98 608 154.5 665.5 c 128,-1,57
 211 723 211 723 309 723 c 0,58,0
 392 723 392 723 430.5 684.5 c 128,-1,1
EndSplineSet
EndChar

StartChar: agrave
Encoding: 224 224 161
Width: 554
GlyphClass: 2
Flags: W
AnchorPoint: "Anchor-5" 0 0 basechar 0
AnchorPoint: "Anchor-4" 0 0 basechar 0
AnchorPoint: "Anchor-3" 276 517 basechar 0
AnchorPoint: "Anchor-2" 460 13 basechar 0
LayerCount: 2
Fore
SplineSet
100.5 29 m 128,-1,1
 55 68 55 68 55 136 c 0,2,3
 55 194 55 194 80 228.5 c 128,-1,4
 105 263 105 263 158 281 c 128,-1,5
 211 299 211 299 301 305 c 2,6,-1
 408 313 l 1,7,-1
 408 354 l 2,8,9
 408 410 408 410 372.5 442.5 c 128,-1,10
 337 475 337 475 276 475 c 0,11,12
 182 475 182 475 121 387 c 1,13,-1
 69 404 l 1,14,15
 97 461 97 461 151 494 c 128,-1,16
 205 527 205 527 279 527 c 0,17,18
 369 527 369 527 419 482.5 c 128,-1,19
 469 438 469 438 469 359 c 2,20,-1
 469 0 l 1,21,-1
 414 0 l 1,22,-1
 410 77 l 1,23,24
 332 -10 332 -10 223 -10 c 0,25,0
 146 -10 146 -10 100.5 29 c 128,-1,1
316.5 58.5 m 128,-1,27
 356 77 356 77 382 107 c 128,-1,28
 408 137 408 137 408 168 c 2,29,-1
 408 268 l 1,30,-1
 318 261 l 2,31,32
 243 256 243 256 200.5 243.5 c 128,-1,33
 158 231 158 231 138 207 c 128,-1,34
 118 183 118 183 118 141 c 0,35,36
 118 94 118 94 150.5 67 c 128,-1,37
 183 40 183 40 238 40 c 0,38,26
 277 40 277 40 316.5 58.5 c 128,-1,27
390 637 m 1,39,-1
 377 599 l 1,40,-1
 132 675 l 1,41,-1
 151 732 l 1,42,-1
 390 637 l 1,39,-1
EndSplineSet
EndChar

StartChar: aacute
Encoding: 225 225 162
Width: 554
GlyphClass: 2
Flags: W
AnchorPoint: "Anchor-5" 0 0 basechar 0
AnchorPoint: "Anchor-4" 0 0 basechar 0
AnchorPoint: "Anchor-3" 276 517 basechar 0
AnchorPoint: "Anchor-2" 460 13 basechar 0
LayerCount: 2
Fore
SplineSet
100.5 29 m 128,-1,1
 55 68 55 68 55 136 c 0,2,3
 55 194 55 194 80 228.5 c 128,-1,4
 105 263 105 263 158 281 c 128,-1,5
 211 299 211 299 301 305 c 2,6,-1
 408 313 l 1,7,-1
 408 354 l 2,8,9
 408 410 408 410 372.5 442.5 c 128,-1,10
 337 475 337 475 276 475 c 0,11,12
 182 475 182 475 121 387 c 1,13,-1
 69 404 l 1,14,15
 97 461 97 461 151 494 c 128,-1,16
 205 527 205 527 279 527 c 0,17,18
 369 527 369 527 419 482.5 c 128,-1,19
 469 438 469 438 469 359 c 2,20,-1
 469 0 l 1,21,-1
 414 0 l 1,22,-1
 410 77 l 1,23,24
 332 -10 332 -10 223 -10 c 0,25,0
 146 -10 146 -10 100.5 29 c 128,-1,1
316.5 58.5 m 128,-1,27
 356 77 356 77 382 107 c 128,-1,28
 408 137 408 137 408 168 c 2,29,-1
 408 268 l 1,30,-1
 318 261 l 2,31,32
 243 256 243 256 200.5 243.5 c 128,-1,33
 158 231 158 231 138 207 c 128,-1,34
 118 183 118 183 118 141 c 0,35,36
 118 94 118 94 150.5 67 c 128,-1,37
 183 40 183 40 238 40 c 0,38,26
 277 40 277 40 316.5 58.5 c 128,-1,27
404 675 m 1,39,-1
 159 599 l 1,40,-1
 147 637 l 1,41,-1
 386 732 l 1,42,-1
 404 675 l 1,39,-1
EndSplineSet
EndChar

StartChar: acircumflex
Encoding: 226 226 163
Width: 554
GlyphClass: 2
Flags: W
AnchorPoint: "Anchor-5" 0 0 basechar 0
AnchorPoint: "Anchor-4" 0 0 basechar 0
AnchorPoint: "Anchor-3" 276 517 basechar 0
AnchorPoint: "Anchor-2" 460 13 basechar 0
LayerCount: 2
Fore
SplineSet
100.5 29 m 128,-1,1
 55 68 55 68 55 136 c 0,2,3
 55 194 55 194 80 228.5 c 128,-1,4
 105 263 105 263 158 281 c 128,-1,5
 211 299 211 299 301 305 c 2,6,-1
 408 313 l 1,7,-1
 408 354 l 2,8,9
 408 410 408 410 372.5 442.5 c 128,-1,10
 337 475 337 475 276 475 c 0,11,12
 182 475 182 475 121 387 c 1,13,-1
 69 404 l 1,14,15
 97 461 97 461 151 494 c 128,-1,16
 205 527 205 527 279 527 c 0,17,18
 369 527 369 527 419 482.5 c 128,-1,19
 469 438 469 438 469 359 c 2,20,-1
 469 0 l 1,21,-1
 414 0 l 1,22,-1
 410 77 l 1,23,24
 332 -10 332 -10 223 -10 c 0,25,0
 146 -10 146 -10 100.5 29 c 128,-1,1
316.5 58.5 m 128,-1,27
 356 77 356 77 382 107 c 128,-1,28
 408 137 408 137 408 168 c 2,29,-1
 408 268 l 1,30,-1
 318 261 l 2,31,32
 243 256 243 256 200.5 243.5 c 128,-1,33
 158 231 158 231 138 207 c 128,-1,34
 118 183 118 183 118 141 c 0,35,36
 118 94 118 94 150.5 67 c 128,-1,37
 183 40 183 40 238 40 c 0,38,26
 277 40 277 40 316.5 58.5 c 128,-1,27
276 684 m 1,39,-1
 199 621 l 1,40,-1
 131 621 l 1,41,-1
 253 725 l 1,42,-1
 301 725 l 1,43,-1
 420 621 l 1,44,-1
 348 621 l 1,45,-1
 276 684 l 1,39,-1
EndSplineSet
EndChar

StartChar: atilde
Encoding: 227 227 164
Width: 554
GlyphClass: 2
Flags: W
AnchorPoint: "Anchor-5" 0 0 basechar 0
AnchorPoint: "Anchor-4" 0 0 basechar 0
AnchorPoint: "Anchor-3" 276 517 basechar 0
AnchorPoint: "Anchor-2" 460 13 basechar 0
LayerCount: 2
Fore
SplineSet
100.5 29 m 128,-1,1
 55 68 55 68 55 136 c 0,2,3
 55 194 55 194 80 228.5 c 128,-1,4
 105 263 105 263 158 281 c 128,-1,5
 211 299 211 299 301 305 c 2,6,-1
 408 313 l 1,7,-1
 408 354 l 2,8,9
 408 410 408 410 372.5 442.5 c 128,-1,10
 337 475 337 475 276 475 c 0,11,12
 182 475 182 475 121 387 c 1,13,-1
 69 404 l 1,14,15
 97 461 97 461 151 494 c 128,-1,16
 205 527 205 527 279 527 c 0,17,18
 369 527 369 527 419 482.5 c 128,-1,19
 469 438 469 438 469 359 c 2,20,-1
 469 0 l 1,21,-1
 414 0 l 1,22,-1
 410 77 l 1,23,24
 332 -10 332 -10 223 -10 c 0,25,0
 146 -10 146 -10 100.5 29 c 128,-1,1
316.5 58.5 m 128,-1,27
 356 77 356 77 382 107 c 128,-1,28
 408 137 408 137 408 168 c 2,29,-1
 408 268 l 1,30,-1
 318 261 l 2,31,32
 243 256 243 256 200.5 243.5 c 128,-1,33
 158 231 158 231 138 207 c 128,-1,34
 118 183 118 183 118 141 c 0,35,36
 118 94 118 94 150.5 67 c 128,-1,37
 183 40 183 40 238 40 c 0,38,26
 277 40 277 40 316.5 58.5 c 128,-1,27
336 646 m 0,39,40
 318 646 318 646 304 649.5 c 128,-1,41
 290 653 290 653 271 659 c 0,42,43
 258 664 258 664 244.5 667.5 c 128,-1,44
 231 671 231 671 218 671 c 0,45,46
 202 671 202 671 192 667 c 128,-1,47
 182 663 182 663 173.5 658 c 128,-1,48
 165 653 165 653 161 651 c 0,49,50
 157 648 157 648 154 648 c 0,51,52
 150 648 150 648 149 655 c 2,53,-1
 140 677 l 2,54,55
 138 683 138 683 143 687 c 0,56,57
 161 701 161 701 176.5 708.5 c 128,-1,58
 192 716 192 716 214 716 c 0,59,60
 238 716 238 716 278 702 c 0,61,62
 281 701 281 701 299.5 695 c 128,-1,63
 318 689 318 689 337 689 c 0,64,65
 352 689 352 689 363 693 c 128,-1,66
 374 697 374 697 390 707 c 0,67,68
 395 710 395 710 398 710 c 128,-1,69
 401 710 401 710 404 703 c 2,70,-1
 413 678 l 2,71,72
 414 677 414 677 414 675 c 0,73,74
 414 671 414 671 407 667 c 0,75,76
 374 646 374 646 336 646 c 0,39,40
EndSplineSet
EndChar

StartChar: adieresis
Encoding: 228 228 165
Width: 554
GlyphClass: 2
Flags: W
AnchorPoint: "Anchor-5" 0 0 basechar 0
AnchorPoint: "Anchor-4" 0 0 basechar 0
AnchorPoint: "Anchor-3" 276 517 basechar 0
AnchorPoint: "Anchor-2" 460 13 basechar 0
LayerCount: 2
Fore
SplineSet
100.5 29 m 128,-1,1
 55 68 55 68 55 136 c 0,2,3
 55 194 55 194 80 228.5 c 128,-1,4
 105 263 105 263 158 281 c 128,-1,5
 211 299 211 299 301 305 c 2,6,-1
 408 313 l 1,7,-1
 408 354 l 2,8,9
 408 410 408 410 372.5 442.5 c 128,-1,10
 337 475 337 475 276 475 c 0,11,12
 182 475 182 475 121 387 c 1,13,-1
 69 404 l 1,14,15
 97 461 97 461 151 494 c 128,-1,16
 205 527 205 527 279 527 c 0,17,18
 369 527 369 527 419 482.5 c 128,-1,19
 469 438 469 438 469 359 c 2,20,-1
 469 0 l 1,21,-1
 414 0 l 1,22,-1
 410 77 l 1,23,24
 332 -10 332 -10 223 -10 c 0,25,0
 146 -10 146 -10 100.5 29 c 128,-1,1
316.5 58.5 m 128,-1,27
 356 77 356 77 382 107 c 128,-1,28
 408 137 408 137 408 168 c 2,29,-1
 408 268 l 1,30,-1
 318 261 l 2,31,32
 243 256 243 256 200.5 243.5 c 128,-1,33
 158 231 158 231 138 207 c 128,-1,34
 118 183 118 183 118 141 c 0,35,36
 118 94 118 94 150.5 67 c 128,-1,37
 183 40 183 40 238 40 c 0,38,26
 277 40 277 40 316.5 58.5 c 128,-1,27
245 621 m 1,39,-1
 178 621 l 1,40,-1
 178 723 l 1,41,-1
 245 723 l 1,42,-1
 245 621 l 1,39,-1
373 621 m 1,43,-1
 306 621 l 1,44,-1
 306 723 l 1,45,-1
 373 723 l 1,46,-1
 373 621 l 1,43,-1
EndSplineSet
EndChar

StartChar: aring
Encoding: 229 229 166
Width: 554
GlyphClass: 2
Flags: W
AnchorPoint: "Anchor-5" 0 0 basechar 0
AnchorPoint: "Anchor-4" 0 0 basechar 0
AnchorPoint: "Anchor-3" 276 517 basechar 0
AnchorPoint: "Anchor-2" 460 13 basechar 0
LayerCount: 2
Fore
SplineSet
100.5 29 m 128,-1,1
 55 68 55 68 55 136 c 0,2,3
 55 194 55 194 80 228.5 c 128,-1,4
 105 263 105 263 158 281 c 128,-1,5
 211 299 211 299 301 305 c 2,6,-1
 408 313 l 1,7,-1
 408 354 l 2,8,9
 408 410 408 410 372.5 442.5 c 128,-1,10
 337 475 337 475 276 475 c 0,11,12
 182 475 182 475 121 387 c 1,13,-1
 69 404 l 1,14,15
 97 461 97 461 151 494 c 128,-1,16
 205 527 205 527 279 527 c 0,17,18
 369 527 369 527 419 482.5 c 128,-1,19
 469 438 469 438 469 359 c 2,20,-1
 469 0 l 1,21,-1
 414 0 l 1,22,-1
 410 77 l 1,23,24
 332 -10 332 -10 223 -10 c 0,25,0
 146 -10 146 -10 100.5 29 c 128,-1,1
316.5 58.5 m 128,-1,27
 356 77 356 77 382 107 c 128,-1,28
 408 137 408 137 408 168 c 2,29,-1
 408 268 l 1,30,-1
 318 261 l 2,31,32
 243 256 243 256 200.5 243.5 c 128,-1,33
 158 231 158 231 138 207 c 128,-1,34
 118 183 118 183 118 141 c 0,35,36
 118 94 118 94 150.5 67 c 128,-1,37
 183 40 183 40 238 40 c 0,38,26
 277 40 277 40 316.5 58.5 c 128,-1,27
347 610.5 m 128,-1,40
 318 582 318 582 276 582 c 128,-1,41
 234 582 234 582 205 611.5 c 128,-1,42
 176 641 176 641 176 684 c 0,43,44
 176 724 176 724 205.5 752 c 128,-1,45
 235 780 235 780 276 780 c 0,46,47
 318 780 318 780 347 751.5 c 128,-1,48
 376 723 376 723 376 682 c 0,49,39
 376 639 376 639 347 610.5 c 128,-1,40
314 721.5 m 128,-1,51
 298 737 298 737 275 737 c 128,-1,52
 252 737 252 737 235.5 721.5 c 128,-1,53
 219 706 219 706 219 682 c 0,54,55
 219 659 219 659 236 642 c 128,-1,56
 253 625 253 625 275 625 c 0,57,58
 298 625 298 625 314 642 c 128,-1,59
 330 659 330 659 330 682 c 0,60,50
 330 706 330 706 314 721.5 c 128,-1,51
EndSplineSet
EndChar

StartChar: ae
Encoding: 230 230 167
Width: 928
GlyphClass: 2
Flags: W
AnchorPoint: "Anchor-5" 0 0 basechar 0
AnchorPoint: "Anchor-4" 0 0 basechar 0
AnchorPoint: "Anchor-3" 455 517 basechar 0
AnchorPoint: "Anchor-2" 0 0 basechar 0
LayerCount: 2
Fore
SplineSet
492 147 m 128,-1,1
 516 100 516 100 557.5 70.5 c 128,-1,2
 599 41 599 41 648 41 c 0,3,4
 711 41 711 41 747.5 66 c 128,-1,5
 784 91 784 91 816 134 c 1,6,-1
 860 108 l 1,7,8
 829 53 829 53 772.5 21.5 c 128,-1,9
 716 -10 716 -10 642 -10 c 128,-1,10
 568 -10 568 -10 522.5 21 c 128,-1,11
 477 52 477 52 442 99 c 0,12,13
 440 104 440 104 437 99 c 0,14,15
 396 50 396 50 347.5 20 c 128,-1,16
 299 -10 299 -10 218 -10 c 0,17,18
 141 -10 141 -10 98 28.5 c 128,-1,19
 55 67 55 67 55 134 c 0,20,21
 55 208 55 208 115 251 c 128,-1,22
 175 294 175 294 295 304 c 2,23,-1
 408 312 l 1,24,-1
 408 354 l 2,25,26
 408 412 408 412 373.5 444.5 c 128,-1,27
 339 477 339 477 273 477 c 0,28,29
 183 477 183 477 120 385 c 1,30,-1
 68 408 l 1,31,32
 101 466 101 466 155 496.5 c 128,-1,33
 209 527 209 527 280 527 c 128,-1,34
 351 527 351 527 393.5 501 c 128,-1,35
 436 475 436 475 453 422 c 1,36,37
 483 474 483 474 531.5 500.5 c 128,-1,38
 580 527 580 527 644 527 c 0,39,40
 713 527 713 527 765 493.5 c 128,-1,41
 817 460 817 460 845.5 396 c 128,-1,42
 874 332 874 332 874 244 c 1,43,-1
 468 243 l 1,44,0
 468 194 468 194 492 147 c 128,-1,1
555 454 m 128,-1,46
 516 431 516 431 493 388.5 c 128,-1,47
 470 346 470 346 470 290 c 1,48,-1
 809 289 l 1,49,50
 809 340 809 340 788 383 c 128,-1,51
 767 426 767 426 729 451.5 c 128,-1,52
 691 477 691 477 643 477 c 0,53,45
 594 477 594 477 555 454 c 128,-1,46
313 259 m 2,54,55
 120 244 120 244 120 138 c 0,56,57
 120 94 120 94 149 67 c 128,-1,58
 178 40 178 40 230 40 c 0,59,60
 278 40 278 40 319 57.5 c 128,-1,61
 360 75 360 75 384 105 c 128,-1,62
 408 135 408 135 408 170 c 2,63,-1
 408 266 l 1,64,-1
 313 259 l 2,54,55
EndSplineSet
EndChar

StartChar: ccedilla
Encoding: 231 231 168
Width: 538
GlyphClass: 2
Flags: W
AnchorPoint: "Anchor-5" 0 0 basechar 0
AnchorPoint: "Anchor-4" 285 0 basechar 0
AnchorPoint: "Anchor-3" 283 517 basechar 0
AnchorPoint: "Anchor-2" 0 0 basechar 0
LayerCount: 2
Fore
SplineSet
398.5 493.5 m 128,-1,1
 445 460 445 460 477 398 c 1,2,-1
 424 380 l 1,3,4
 385 432 385 432 357.5 452 c 128,-1,5
 330 472 330 472 289 472 c 0,6,7
 210 472 210 472 163.5 413.5 c 128,-1,8
 117 355 117 355 117 258 c 0,9,10
 117 159 117 159 163 100.5 c 128,-1,11
 209 42 209 42 288 42 c 0,12,13
 336 42 336 42 368.5 67 c 128,-1,14
 401 92 401 92 431 143 c 1,15,-1
 483 124 l 1,16,17
 418 -10 418 -10 284 -10 c 0,18,19
 214 -10 214 -10 162 23.5 c 128,-1,20
 110 57 110 57 82 117 c 128,-1,21
 54 177 54 177 54 256 c 128,-1,22
 54 335 54 335 82 396.5 c 128,-1,23
 110 458 110 458 162.5 492.5 c 128,-1,24
 215 527 215 527 284 527 c 0,25,0
 352 527 352 527 398.5 493.5 c 128,-1,1
337 -182.5 m 128,-1,27
 308 -202 308 -202 264 -202 c 0,28,29
 216 -202 216 -202 180 -178 c 1,30,-1
 193 -145 l 1,31,32
 220 -168 220 -168 257 -168 c 0,33,34
 313 -168 313 -168 313 -128 c 0,35,36
 313 -106 313 -106 294.5 -95.5 c 128,-1,37
 276 -85 276 -85 236 -83 c 0,38,39
 228 -83 228 -83 231 -78 c 2,40,-1
 267 5 l 1,41,-1
 307 5 l 1,42,-1
 283 -56 l 1,43,44
 327 -59 327 -59 346.5 -79 c 128,-1,45
 366 -99 366 -99 366 -127 c 0,46,26
 366 -163 366 -163 337 -182.5 c 128,-1,27
EndSplineSet
EndChar

StartChar: egrave
Encoding: 232 232 169
Width: 554
GlyphClass: 2
Flags: W
AnchorPoint: "Anchor-5" 0 0 basechar 0
AnchorPoint: "Anchor-4" 276 0 basechar 0
AnchorPoint: "Anchor-3" 283 517 basechar 0
AnchorPoint: "Anchor-2" 381 19 basechar 0
LayerCount: 2
Fore
SplineSet
164 100 m 128,-1,1
 208 44 208 44 292 44 c 0,2,3
 400 44 400 44 433 130 c 1,4,-1
 491 117 l 1,5,6
 472 57 472 57 418.5 23.5 c 128,-1,7
 365 -10 365 -10 292 -10 c 0,8,9
 222 -10 222 -10 168 21.5 c 128,-1,10
 114 53 114 53 84 112.5 c 128,-1,11
 54 172 54 172 54 254 c 0,12,13
 54 380 54 380 114.5 453.5 c 128,-1,14
 175 527 175 527 283 527 c 0,15,16
 386 527 386 527 443 460 c 128,-1,17
 500 393 500 393 500 274 c 2,18,-1
 500 243 l 1,19,-1
 120 243 l 1,20,0
 120 156 120 156 164 100 c 128,-1,1
437 293 m 1,21,22
 437 374 437 374 397.5 424 c 128,-1,23
 358 474 358 474 282 474 c 0,24,25
 228 474 228 474 191.5 448 c 128,-1,26
 155 422 155 422 137.5 380.5 c 128,-1,27
 120 339 120 339 120 293 c 1,28,-1
 437 293 l 1,21,22
397 637 m 1,29,-1
 384 599 l 1,30,-1
 139 675 l 1,31,-1
 158 732 l 1,32,-1
 397 637 l 1,29,-1
EndSplineSet
EndChar

StartChar: eacute
Encoding: 233 233 170
Width: 554
GlyphClass: 2
Flags: W
AnchorPoint: "Anchor-5" 0 0 basechar 0
AnchorPoint: "Anchor-4" 276 0 basechar 0
AnchorPoint: "Anchor-3" 283 517 basechar 0
AnchorPoint: "Anchor-2" 381 19 basechar 0
LayerCount: 2
Fore
SplineSet
164 100 m 128,-1,1
 208 44 208 44 292 44 c 0,2,3
 400 44 400 44 433 130 c 1,4,-1
 491 117 l 1,5,6
 472 57 472 57 418.5 23.5 c 128,-1,7
 365 -10 365 -10 292 -10 c 0,8,9
 222 -10 222 -10 168 21.5 c 128,-1,10
 114 53 114 53 84 112.5 c 128,-1,11
 54 172 54 172 54 254 c 0,12,13
 54 380 54 380 114.5 453.5 c 128,-1,14
 175 527 175 527 283 527 c 0,15,16
 386 527 386 527 443 460 c 128,-1,17
 500 393 500 393 500 274 c 2,18,-1
 500 243 l 1,19,-1
 120 243 l 1,20,0
 120 156 120 156 164 100 c 128,-1,1
437 293 m 1,21,22
 437 374 437 374 397.5 424 c 128,-1,23
 358 474 358 474 282 474 c 0,24,25
 228 474 228 474 191.5 448 c 128,-1,26
 155 422 155 422 137.5 380.5 c 128,-1,27
 120 339 120 339 120 293 c 1,28,-1
 437 293 l 1,21,22
411 675 m 1,29,-1
 166 599 l 1,30,-1
 154 637 l 1,31,-1
 393 732 l 1,32,-1
 411 675 l 1,29,-1
EndSplineSet
EndChar

StartChar: ecircumflex
Encoding: 234 234 171
Width: 554
GlyphClass: 2
Flags: W
AnchorPoint: "Anchor-5" 0 0 basechar 0
AnchorPoint: "Anchor-4" 276 0 basechar 0
AnchorPoint: "Anchor-3" 283 517 basechar 0
AnchorPoint: "Anchor-2" 381 19 basechar 0
LayerCount: 2
Fore
SplineSet
164 100 m 128,-1,1
 208 44 208 44 292 44 c 0,2,3
 400 44 400 44 433 130 c 1,4,-1
 491 117 l 1,5,6
 472 57 472 57 418.5 23.5 c 128,-1,7
 365 -10 365 -10 292 -10 c 0,8,9
 222 -10 222 -10 168 21.5 c 128,-1,10
 114 53 114 53 84 112.5 c 128,-1,11
 54 172 54 172 54 254 c 0,12,13
 54 380 54 380 114.5 453.5 c 128,-1,14
 175 527 175 527 283 527 c 0,15,16
 386 527 386 527 443 460 c 128,-1,17
 500 393 500 393 500 274 c 2,18,-1
 500 243 l 1,19,-1
 120 243 l 1,20,0
 120 156 120 156 164 100 c 128,-1,1
437 293 m 1,21,22
 437 374 437 374 397.5 424 c 128,-1,23
 358 474 358 474 282 474 c 0,24,25
 228 474 228 474 191.5 448 c 128,-1,26
 155 422 155 422 137.5 380.5 c 128,-1,27
 120 339 120 339 120 293 c 1,28,-1
 437 293 l 1,21,22
283 684 m 1,29,-1
 206 621 l 1,30,-1
 138 621 l 1,31,-1
 260 725 l 1,32,-1
 308 725 l 1,33,-1
 427 621 l 1,34,-1
 355 621 l 1,35,-1
 283 684 l 1,29,-1
EndSplineSet
EndChar

StartChar: edieresis
Encoding: 235 235 172
Width: 554
GlyphClass: 2
Flags: W
AnchorPoint: "Anchor-5" 0 0 basechar 0
AnchorPoint: "Anchor-4" 276 0 basechar 0
AnchorPoint: "Anchor-3" 283 517 basechar 0
AnchorPoint: "Anchor-2" 381 19 basechar 0
LayerCount: 2
Fore
SplineSet
164 100 m 128,-1,1
 208 44 208 44 292 44 c 0,2,3
 400 44 400 44 433 130 c 1,4,-1
 491 117 l 1,5,6
 472 57 472 57 418.5 23.5 c 128,-1,7
 365 -10 365 -10 292 -10 c 0,8,9
 222 -10 222 -10 168 21.5 c 128,-1,10
 114 53 114 53 84 112.5 c 128,-1,11
 54 172 54 172 54 254 c 0,12,13
 54 380 54 380 114.5 453.5 c 128,-1,14
 175 527 175 527 283 527 c 0,15,16
 386 527 386 527 443 460 c 128,-1,17
 500 393 500 393 500 274 c 2,18,-1
 500 243 l 1,19,-1
 120 243 l 1,20,0
 120 156 120 156 164 100 c 128,-1,1
437 293 m 1,21,22
 437 374 437 374 397.5 424 c 128,-1,23
 358 474 358 474 282 474 c 0,24,25
 228 474 228 474 191.5 448 c 128,-1,26
 155 422 155 422 137.5 380.5 c 128,-1,27
 120 339 120 339 120 293 c 1,28,-1
 437 293 l 1,21,22
252 621 m 1,29,-1
 185 621 l 1,30,-1
 185 723 l 1,31,-1
 252 723 l 1,32,-1
 252 621 l 1,29,-1
380 621 m 1,33,-1
 313 621 l 1,34,-1
 313 723 l 1,35,-1
 380 723 l 1,36,-1
 380 621 l 1,33,-1
EndSplineSet
EndChar

StartChar: igrave
Encoding: 236 236 173
Width: 233
GlyphClass: 2
Flags: W
AnchorPoint: "Anchor-5" 0 0 basechar 0
AnchorPoint: "Anchor-4" 0 0 basechar 0
AnchorPoint: "Anchor-3" 117 517 basechar 0
AnchorPoint: "Anchor-2" 137 12 basechar 0
LayerCount: 2
Fore
SplineSet
148 0 m 1,0,-1
 85 0 l 1,1,-1
 85 517 l 1,2,-1
 148 517 l 1,3,-1
 148 0 l 1,0,-1
231 637 m 1,4,-1
 218 599 l 1,5,-1
 -27 675 l 1,6,-1
 -8 732 l 1,7,-1
 231 637 l 1,4,-1
EndSplineSet
EndChar

StartChar: iacute
Encoding: 237 237 174
Width: 233
GlyphClass: 2
Flags: W
AnchorPoint: "Anchor-5" 0 0 basechar 0
AnchorPoint: "Anchor-4" 0 0 basechar 0
AnchorPoint: "Anchor-3" 117 517 basechar 0
AnchorPoint: "Anchor-2" 137 12 basechar 0
LayerCount: 2
Fore
SplineSet
148 0 m 1,0,-1
 85 0 l 1,1,-1
 85 517 l 1,2,-1
 148 517 l 1,3,-1
 148 0 l 1,0,-1
245 675 m 1,4,-1
 0 599 l 1,5,-1
 -12 637 l 1,6,-1
 227 732 l 1,7,-1
 245 675 l 1,4,-1
EndSplineSet
EndChar

StartChar: icircumflex
Encoding: 238 238 175
Width: 233
GlyphClass: 2
Flags: W
AnchorPoint: "Anchor-5" 0 0 basechar 0
AnchorPoint: "Anchor-4" 0 0 basechar 0
AnchorPoint: "Anchor-3" 117 517 basechar 0
AnchorPoint: "Anchor-2" 137 12 basechar 0
LayerCount: 2
Fore
SplineSet
148 0 m 1,0,-1
 85 0 l 1,1,-1
 85 517 l 1,2,-1
 148 517 l 1,3,-1
 148 0 l 1,0,-1
117 684 m 1,4,-1
 40 621 l 1,5,-1
 -28 621 l 1,6,-1
 94 725 l 1,7,-1
 142 725 l 1,8,-1
 261 621 l 1,9,-1
 189 621 l 1,10,-1
 117 684 l 1,4,-1
EndSplineSet
EndChar

StartChar: idieresis
Encoding: 239 239 176
Width: 233
GlyphClass: 2
Flags: W
AnchorPoint: "Anchor-5" 0 0 basechar 0
AnchorPoint: "Anchor-4" 0 0 basechar 0
AnchorPoint: "Anchor-3" 117 517 basechar 0
AnchorPoint: "Anchor-2" 137 12 basechar 0
LayerCount: 2
Fore
SplineSet
148 0 m 1,0,-1
 85 0 l 1,1,-1
 85 517 l 1,2,-1
 148 517 l 1,3,-1
 148 0 l 1,0,-1
86 621 m 1,4,-1
 19 621 l 1,5,-1
 19 723 l 1,6,-1
 86 723 l 1,7,-1
 86 621 l 1,4,-1
214 621 m 1,8,-1
 147 621 l 1,9,-1
 147 723 l 1,10,-1
 214 723 l 1,11,-1
 214 621 l 1,8,-1
EndSplineSet
EndChar

StartChar: eth
Encoding: 240 240 177
Width: 594
GlyphClass: 2
Flags: W
LayerCount: 2
Fore
SplineSet
509.5 116 m 128,-1,1
 480 56 480 56 425 23 c 128,-1,2
 370 -10 370 -10 295 -10 c 0,3,4
 224 -10 224 -10 169.5 23 c 128,-1,5
 115 56 115 56 84.5 114 c 128,-1,6
 54 172 54 172 54 246 c 0,7,8
 54 321 54 321 84.5 380.5 c 128,-1,9
 115 440 115 440 168.5 473.5 c 128,-1,10
 222 507 222 507 289 507 c 0,11,12
 332 507 332 507 368.5 492.5 c 128,-1,13
 405 478 405 478 431 451 c 1,14,15
 386 552 386 552 282 623 c 1,16,-1
 121 532 l 1,17,-1
 100 566 l 1,18,-1
 245 647 l 1,19,20
 201 672 201 672 128 701 c 1,21,-1
 174 734 l 1,22,23
 237 711 237 711 298 677 c 1,24,-1
 402 735 l 1,25,-1
 420 700 l 1,26,-1
 335 652 l 1,27,28
 539 513 539 513 539 253 c 0,29,0
 539 176 539 176 509.5 116 c 128,-1,1
389 68 m 128,-1,31
 429 95 429 95 451.5 142 c 128,-1,32
 474 189 474 189 474 248 c 0,33,34
 474 306 474 306 451.5 354 c 128,-1,35
 429 402 429 402 388.5 429.5 c 128,-1,36
 348 457 348 457 298 457 c 0,37,38
 247 457 247 457 206.5 429.5 c 128,-1,39
 166 402 166 402 143 354 c 128,-1,40
 120 306 120 306 120 248 c 128,-1,41
 120 190 120 190 143 142.5 c 128,-1,42
 166 95 166 95 206.5 68 c 128,-1,43
 247 41 247 41 299 41 c 0,44,30
 349 41 349 41 389 68 c 128,-1,31
EndSplineSet
EndChar

StartChar: ntilde
Encoding: 241 241 178
Width: 579
GlyphClass: 2
Flags: W
AnchorPoint: "Anchor-5" 0 0 basechar 0
AnchorPoint: "Anchor-4" 291 0 basechar 0
AnchorPoint: "Anchor-3" 299 517 basechar 0
AnchorPoint: "Anchor-2" 0 0 basechar 0
LayerCount: 2
Fore
SplineSet
85 517 m 1,0,-1
 145 517 l 1,1,-1
 145 442 l 1,2,3
 167 480 167 480 210.5 503 c 128,-1,4
 254 526 254 526 314 526 c 0,5,6
 394 526 394 526 444.5 477.5 c 128,-1,7
 495 429 495 429 495 337 c 2,8,-1
 495 0 l 1,9,-1
 431 0 l 1,10,-1
 431 333 l 2,11,12
 431 399 431 399 396.5 434.5 c 128,-1,13
 362 470 362 470 302 470 c 0,14,15
 236 470 236 470 192 440 c 128,-1,16
 148 410 148 410 148 354 c 2,17,-1
 148 0 l 1,18,-1
 85 0 l 1,19,-1
 85 517 l 1,0,-1
359 646 m 0,20,21
 341 646 341 646 327 649.5 c 128,-1,22
 313 653 313 653 294 659 c 0,23,24
 281 664 281 664 267.5 667.5 c 128,-1,25
 254 671 254 671 241 671 c 0,26,27
 225 671 225 671 215 667 c 128,-1,28
 205 663 205 663 196.5 658 c 128,-1,29
 188 653 188 653 184 651 c 0,30,31
 180 648 180 648 177 648 c 0,32,33
 173 648 173 648 172 655 c 2,34,-1
 163 677 l 2,35,36
 161 683 161 683 166 687 c 0,37,38
 184 701 184 701 199.5 708.5 c 128,-1,39
 215 716 215 716 237 716 c 0,40,41
 261 716 261 716 301 702 c 0,42,43
 304 701 304 701 322.5 695 c 128,-1,44
 341 689 341 689 360 689 c 0,45,46
 375 689 375 689 386 693 c 128,-1,47
 397 697 397 697 413 707 c 0,48,49
 418 710 418 710 421 710 c 128,-1,50
 424 710 424 710 427 703 c 2,51,-1
 436 678 l 2,52,53
 437 677 437 677 437 675 c 0,54,55
 437 671 437 671 430 667 c 0,56,57
 397 646 397 646 359 646 c 0,20,21
EndSplineSet
EndChar

StartChar: ograve
Encoding: 242 242 179
Width: 566
GlyphClass: 2
Flags: W
AnchorPoint: "Anchor-5" 0 0 basechar 0
AnchorPoint: "Anchor-4" 282 0 basechar 0
AnchorPoint: "Anchor-3" 285 517 basechar 0
AnchorPoint: "Anchor-2" 348 10 basechar 0
LayerCount: 2
Fore
SplineSet
114.5 62.5 m 128,-1,1
 54 135 54 135 54 255 c 0,2,3
 54 335 54 335 81.5 396.5 c 128,-1,4
 109 458 109 458 161 492.5 c 128,-1,5
 213 527 213 527 284 527 c 128,-1,6
 355 527 355 527 406.5 493 c 128,-1,7
 458 459 458 459 485 397.5 c 128,-1,8
 512 336 512 336 512 257 c 128,-1,9
 512 178 512 178 485 117.5 c 128,-1,10
 458 57 458 57 406 23.5 c 128,-1,11
 354 -10 354 -10 283 -10 c 0,12,0
 175 -10 175 -10 114.5 62.5 c 128,-1,1
406.5 101.5 m 128,-1,14
 448 160 448 160 448 258 c 128,-1,15
 448 356 448 356 406.5 414.5 c 128,-1,16
 365 473 365 473 284 473 c 128,-1,17
 203 473 203 473 161 414 c 128,-1,18
 119 355 119 355 119 258 c 128,-1,19
 119 161 119 161 161.5 102 c 128,-1,20
 204 43 204 43 285 43 c 0,21,13
 365 43 365 43 406.5 101.5 c 128,-1,14
399 637 m 1,22,-1
 386 599 l 1,23,-1
 141 675 l 1,24,-1
 160 732 l 1,25,-1
 399 637 l 1,22,-1
EndSplineSet
EndChar

StartChar: oacute
Encoding: 243 243 180
Width: 566
GlyphClass: 2
Flags: W
AnchorPoint: "Anchor-5" 0 0 basechar 0
AnchorPoint: "Anchor-4" 282 0 basechar 0
AnchorPoint: "Anchor-3" 285 517 basechar 0
AnchorPoint: "Anchor-2" 348 10 basechar 0
LayerCount: 2
Fore
SplineSet
114.5 62.5 m 128,-1,1
 54 135 54 135 54 255 c 0,2,3
 54 335 54 335 81.5 396.5 c 128,-1,4
 109 458 109 458 161 492.5 c 128,-1,5
 213 527 213 527 284 527 c 128,-1,6
 355 527 355 527 406.5 493 c 128,-1,7
 458 459 458 459 485 397.5 c 128,-1,8
 512 336 512 336 512 257 c 128,-1,9
 512 178 512 178 485 117.5 c 128,-1,10
 458 57 458 57 406 23.5 c 128,-1,11
 354 -10 354 -10 283 -10 c 0,12,0
 175 -10 175 -10 114.5 62.5 c 128,-1,1
406.5 101.5 m 128,-1,14
 448 160 448 160 448 258 c 128,-1,15
 448 356 448 356 406.5 414.5 c 128,-1,16
 365 473 365 473 284 473 c 128,-1,17
 203 473 203 473 161 414 c 128,-1,18
 119 355 119 355 119 258 c 128,-1,19
 119 161 119 161 161.5 102 c 128,-1,20
 204 43 204 43 285 43 c 0,21,13
 365 43 365 43 406.5 101.5 c 128,-1,14
413 675 m 1,22,-1
 168 599 l 1,23,-1
 156 637 l 1,24,-1
 395 732 l 1,25,-1
 413 675 l 1,22,-1
EndSplineSet
EndChar

StartChar: ocircumflex
Encoding: 244 244 181
Width: 566
GlyphClass: 2
Flags: W
AnchorPoint: "Anchor-5" 0 0 basechar 0
AnchorPoint: "Anchor-4" 282 0 basechar 0
AnchorPoint: "Anchor-3" 285 517 basechar 0
AnchorPoint: "Anchor-2" 348 10 basechar 0
LayerCount: 2
Fore
SplineSet
114.5 62.5 m 128,-1,1
 54 135 54 135 54 255 c 0,2,3
 54 335 54 335 81.5 396.5 c 128,-1,4
 109 458 109 458 161 492.5 c 128,-1,5
 213 527 213 527 284 527 c 128,-1,6
 355 527 355 527 406.5 493 c 128,-1,7
 458 459 458 459 485 397.5 c 128,-1,8
 512 336 512 336 512 257 c 128,-1,9
 512 178 512 178 485 117.5 c 128,-1,10
 458 57 458 57 406 23.5 c 128,-1,11
 354 -10 354 -10 283 -10 c 0,12,0
 175 -10 175 -10 114.5 62.5 c 128,-1,1
406.5 101.5 m 128,-1,14
 448 160 448 160 448 258 c 128,-1,15
 448 356 448 356 406.5 414.5 c 128,-1,16
 365 473 365 473 284 473 c 128,-1,17
 203 473 203 473 161 414 c 128,-1,18
 119 355 119 355 119 258 c 128,-1,19
 119 161 119 161 161.5 102 c 128,-1,20
 204 43 204 43 285 43 c 0,21,13
 365 43 365 43 406.5 101.5 c 128,-1,14
285 684 m 1,22,-1
 208 621 l 1,23,-1
 140 621 l 1,24,-1
 262 725 l 1,25,-1
 310 725 l 1,26,-1
 429 621 l 1,27,-1
 357 621 l 1,28,-1
 285 684 l 1,22,-1
EndSplineSet
EndChar

StartChar: otilde
Encoding: 245 245 182
Width: 566
GlyphClass: 2
Flags: W
AnchorPoint: "Anchor-5" 0 0 basechar 0
AnchorPoint: "Anchor-4" 282 0 basechar 0
AnchorPoint: "Anchor-3" 285 517 basechar 0
AnchorPoint: "Anchor-2" 348 10 basechar 0
LayerCount: 2
Fore
SplineSet
114.5 62.5 m 128,-1,1
 54 135 54 135 54 255 c 0,2,3
 54 335 54 335 81.5 396.5 c 128,-1,4
 109 458 109 458 161 492.5 c 128,-1,5
 213 527 213 527 284 527 c 128,-1,6
 355 527 355 527 406.5 493 c 128,-1,7
 458 459 458 459 485 397.5 c 128,-1,8
 512 336 512 336 512 257 c 128,-1,9
 512 178 512 178 485 117.5 c 128,-1,10
 458 57 458 57 406 23.5 c 128,-1,11
 354 -10 354 -10 283 -10 c 0,12,0
 175 -10 175 -10 114.5 62.5 c 128,-1,1
406.5 101.5 m 128,-1,14
 448 160 448 160 448 258 c 128,-1,15
 448 356 448 356 406.5 414.5 c 128,-1,16
 365 473 365 473 284 473 c 128,-1,17
 203 473 203 473 161 414 c 128,-1,18
 119 355 119 355 119 258 c 128,-1,19
 119 161 119 161 161.5 102 c 128,-1,20
 204 43 204 43 285 43 c 0,21,13
 365 43 365 43 406.5 101.5 c 128,-1,14
345 646 m 0,22,23
 327 646 327 646 313 649.5 c 128,-1,24
 299 653 299 653 280 659 c 0,25,26
 267 664 267 664 253.5 667.5 c 128,-1,27
 240 671 240 671 227 671 c 0,28,29
 211 671 211 671 201 667 c 128,-1,30
 191 663 191 663 182.5 658 c 128,-1,31
 174 653 174 653 170 651 c 0,32,33
 166 648 166 648 163 648 c 0,34,35
 159 648 159 648 158 655 c 2,36,-1
 149 677 l 2,37,38
 147 683 147 683 152 687 c 0,39,40
 170 701 170 701 185.5 708.5 c 128,-1,41
 201 716 201 716 223 716 c 0,42,43
 247 716 247 716 287 702 c 0,44,45
 290 701 290 701 308.5 695 c 128,-1,46
 327 689 327 689 346 689 c 0,47,48
 361 689 361 689 372 693 c 128,-1,49
 383 697 383 697 399 707 c 0,50,51
 404 710 404 710 407 710 c 128,-1,52
 410 710 410 710 413 703 c 2,53,-1
 422 678 l 2,54,55
 423 677 423 677 423 675 c 0,56,57
 423 671 423 671 416 667 c 0,58,59
 383 646 383 646 345 646 c 0,22,23
EndSplineSet
EndChar

StartChar: odieresis
Encoding: 246 246 183
Width: 566
GlyphClass: 2
Flags: W
AnchorPoint: "Anchor-5" 0 0 basechar 0
AnchorPoint: "Anchor-4" 282 0 basechar 0
AnchorPoint: "Anchor-3" 285 517 basechar 0
AnchorPoint: "Anchor-2" 348 10 basechar 0
LayerCount: 2
Fore
SplineSet
114.5 62.5 m 128,-1,1
 54 135 54 135 54 255 c 0,2,3
 54 335 54 335 81.5 396.5 c 128,-1,4
 109 458 109 458 161 492.5 c 128,-1,5
 213 527 213 527 284 527 c 128,-1,6
 355 527 355 527 406.5 493 c 128,-1,7
 458 459 458 459 485 397.5 c 128,-1,8
 512 336 512 336 512 257 c 128,-1,9
 512 178 512 178 485 117.5 c 128,-1,10
 458 57 458 57 406 23.5 c 128,-1,11
 354 -10 354 -10 283 -10 c 0,12,0
 175 -10 175 -10 114.5 62.5 c 128,-1,1
406.5 101.5 m 128,-1,14
 448 160 448 160 448 258 c 128,-1,15
 448 356 448 356 406.5 414.5 c 128,-1,16
 365 473 365 473 284 473 c 128,-1,17
 203 473 203 473 161 414 c 128,-1,18
 119 355 119 355 119 258 c 128,-1,19
 119 161 119 161 161.5 102 c 128,-1,20
 204 43 204 43 285 43 c 0,21,13
 365 43 365 43 406.5 101.5 c 128,-1,14
254 621 m 1,22,-1
 187 621 l 1,23,-1
 187 723 l 1,24,-1
 254 723 l 1,25,-1
 254 621 l 1,22,-1
382 621 m 1,26,-1
 315 621 l 1,27,-1
 315 723 l 1,28,-1
 382 723 l 1,29,-1
 382 621 l 1,26,-1
EndSplineSet
EndChar

StartChar: divide
Encoding: 247 247 184
Width: 540
GlyphClass: 2
Flags: W
LayerCount: 2
Fore
SplineSet
318 482 m 1,0,-1
 222 482 l 1,1,-1
 222 575 l 1,2,-1
 318 575 l 1,3,-1
 318 482 l 1,0,-1
474 337 m 1,4,-1
 65 336 l 1,5,-1
 65 389 l 1,6,-1
 474 390 l 1,7,-1
 474 337 l 1,4,-1
318 153 m 1,8,-1
 222 153 l 1,9,-1
 222 245 l 1,10,-1
 318 245 l 1,11,-1
 318 153 l 1,8,-1
EndSplineSet
EndChar

StartChar: oslash
Encoding: 248 248 185
Width: 569
GlyphClass: 2
Flags: W
AnchorPoint: "Anchor-5" 0 0 basechar 0
AnchorPoint: "Anchor-4" 281 0 basechar 0
AnchorPoint: "Anchor-3" 284 517 basechar 0
AnchorPoint: "Anchor-2" 347 10 basechar 0
LayerCount: 2
Fore
SplineSet
476 414 m 1,0,1
 511 349 511 349 511 257 c 0,2,3
 511 178 511 178 484 117.5 c 128,-1,4
 457 57 457 57 405 23.5 c 128,-1,5
 353 -10 353 -10 282 -10 c 0,6,7
 177 -10 177 -10 115 61 c 1,8,-1
 47 -5 l 1,9,-1
 15 29 l 1,10,-1
 88 100 l 1,11,12
 53 164 53 164 53 255 c 0,13,14
 53 335 53 335 80.5 396.5 c 128,-1,15
 108 458 108 458 160 492.5 c 128,-1,16
 212 527 212 527 283 527 c 0,17,18
 389 527 389 527 450 453 c 1,19,-1
 519 520 l 1,20,-1
 551 487 l 1,21,-1
 476 414 l 1,0,1
136 147 m 1,22,-1
 408 411 l 1,23,24
 363 473 363 473 283 473 c 0,25,26
 202 473 202 473 160 414 c 128,-1,27
 118 355 118 355 118 258 c 0,28,29
 118 195 118 195 136 147 c 1,22,-1
430 369 m 1,30,-1
 159 104 l 1,31,32
 202 43 202 43 284 43 c 0,33,34
 364 43 364 43 405.5 101.5 c 128,-1,35
 447 160 447 160 447 258 c 0,36,37
 447 320 447 320 430 369 c 1,30,-1
EndSplineSet
EndChar

StartChar: ugrave
Encoding: 249 249 186
Width: 579
GlyphClass: 2
Flags: W
AnchorPoint: "Anchor-5" 0 0 basechar 0
AnchorPoint: "Anchor-4" 289 0 basechar 0
AnchorPoint: "Anchor-3" 279 517 basechar 0
AnchorPoint: "Anchor-2" 482 11 basechar 0
LayerCount: 2
Fore
SplineSet
188.5 9 m 128,-1,1
 144 27 144 27 114.5 67.5 c 128,-1,2
 85 108 85 108 85 171 c 2,3,-1
 85 519 l 1,4,-1
 148 519 l 1,5,-1
 148 175 l 2,6,7
 148 106 148 106 190 75 c 128,-1,8
 232 44 232 44 287 44 c 0,9,10
 346 44 346 44 388 80 c 128,-1,11
 430 116 430 116 431 182 c 2,12,-1
 431 519 l 1,13,-1
 495 519 l 1,14,-1
 494 1 l 1,15,-1
 441 1 l 1,16,-1
 439 83 l 1,17,18
 424 48 424 48 378 19.5 c 128,-1,19
 332 -9 332 -9 281 -9 c 0,20,0
 233 -9 233 -9 188.5 9 c 128,-1,1
393 637 m 1,21,-1
 380 599 l 1,22,-1
 135 675 l 1,23,-1
 154 732 l 1,24,-1
 393 637 l 1,21,-1
EndSplineSet
EndChar

StartChar: uacute
Encoding: 250 250 187
Width: 579
GlyphClass: 2
Flags: W
AnchorPoint: "Anchor-5" 0 0 basechar 0
AnchorPoint: "Anchor-4" 289 0 basechar 0
AnchorPoint: "Anchor-3" 279 517 basechar 0
AnchorPoint: "Anchor-2" 482 11 basechar 0
LayerCount: 2
Fore
SplineSet
188.5 9 m 128,-1,1
 144 27 144 27 114.5 67.5 c 128,-1,2
 85 108 85 108 85 171 c 2,3,-1
 85 519 l 1,4,-1
 148 519 l 1,5,-1
 148 175 l 2,6,7
 148 106 148 106 190 75 c 128,-1,8
 232 44 232 44 287 44 c 0,9,10
 346 44 346 44 388 80 c 128,-1,11
 430 116 430 116 431 182 c 2,12,-1
 431 519 l 1,13,-1
 495 519 l 1,14,-1
 494 1 l 1,15,-1
 441 1 l 1,16,-1
 439 83 l 1,17,18
 424 48 424 48 378 19.5 c 128,-1,19
 332 -9 332 -9 281 -9 c 0,20,0
 233 -9 233 -9 188.5 9 c 128,-1,1
407 675 m 1,21,-1
 162 599 l 1,22,-1
 150 637 l 1,23,-1
 389 732 l 1,24,-1
 407 675 l 1,21,-1
EndSplineSet
EndChar

StartChar: ucircumflex
Encoding: 251 251 188
Width: 579
GlyphClass: 2
Flags: W
AnchorPoint: "Anchor-5" 0 0 basechar 0
AnchorPoint: "Anchor-4" 289 0 basechar 0
AnchorPoint: "Anchor-3" 279 517 basechar 0
AnchorPoint: "Anchor-2" 482 11 basechar 0
LayerCount: 2
Fore
SplineSet
188.5 9 m 128,-1,1
 144 27 144 27 114.5 67.5 c 128,-1,2
 85 108 85 108 85 171 c 2,3,-1
 85 519 l 1,4,-1
 148 519 l 1,5,-1
 148 175 l 2,6,7
 148 106 148 106 190 75 c 128,-1,8
 232 44 232 44 287 44 c 0,9,10
 346 44 346 44 388 80 c 128,-1,11
 430 116 430 116 431 182 c 2,12,-1
 431 519 l 1,13,-1
 495 519 l 1,14,-1
 494 1 l 1,15,-1
 441 1 l 1,16,-1
 439 83 l 1,17,18
 424 48 424 48 378 19.5 c 128,-1,19
 332 -9 332 -9 281 -9 c 0,20,0
 233 -9 233 -9 188.5 9 c 128,-1,1
279 684 m 1,21,-1
 202 621 l 1,22,-1
 134 621 l 1,23,-1
 256 725 l 1,24,-1
 304 725 l 1,25,-1
 423 621 l 1,26,-1
 351 621 l 1,27,-1
 279 684 l 1,21,-1
EndSplineSet
EndChar

StartChar: udieresis
Encoding: 252 252 189
Width: 579
GlyphClass: 2
Flags: W
AnchorPoint: "Anchor-5" 0 0 basechar 0
AnchorPoint: "Anchor-4" 289 0 basechar 0
AnchorPoint: "Anchor-3" 279 517 basechar 0
AnchorPoint: "Anchor-2" 482 11 basechar 0
LayerCount: 2
Fore
SplineSet
188.5 9 m 128,-1,1
 144 27 144 27 114.5 67.5 c 128,-1,2
 85 108 85 108 85 171 c 2,3,-1
 85 519 l 1,4,-1
 148 519 l 1,5,-1
 148 175 l 2,6,7
 148 106 148 106 190 75 c 128,-1,8
 232 44 232 44 287 44 c 0,9,10
 346 44 346 44 388 80 c 128,-1,11
 430 116 430 116 431 182 c 2,12,-1
 431 519 l 1,13,-1
 495 519 l 1,14,-1
 494 1 l 1,15,-1
 441 1 l 1,16,-1
 439 83 l 1,17,18
 424 48 424 48 378 19.5 c 128,-1,19
 332 -9 332 -9 281 -9 c 0,20,0
 233 -9 233 -9 188.5 9 c 128,-1,1
248 621 m 1,21,-1
 181 621 l 1,22,-1
 181 723 l 1,23,-1
 248 723 l 1,24,-1
 248 621 l 1,21,-1
376 621 m 1,25,-1
 309 621 l 1,26,-1
 309 723 l 1,27,-1
 376 723 l 1,28,-1
 376 621 l 1,25,-1
EndSplineSet
EndChar

StartChar: yacute
Encoding: 253 253 190
Width: 509
GlyphClass: 2
Flags: W
AnchorPoint: "Anchor-5" 0 0 basechar 0
AnchorPoint: "Anchor-4" 0 0 basechar 0
AnchorPoint: "Anchor-3" 260 517 basechar 0
AnchorPoint: "Anchor-2" 0 0 basechar 0
LayerCount: 2
Fore
SplineSet
62 -161 m 128,-1,1
 44 -157 44 -157 44 -155 c 2,2,-1
 44 -113 l 1,3,-1
 98 -113 l 2,4,5
 145 -114 145 -114 168 -98 c 128,-1,6
 191 -82 191 -82 203 -53 c 2,7,-1
 226 7 l 1,8,-1
 24 517 l 1,9,-1
 89 517 l 1,10,-1
 257 84 l 1,11,-1
 423 517 l 1,12,-1
 485 517 l 1,13,-1
 263 -59 l 2,14,15
 239 -117 239 -117 202.5 -141 c 128,-1,16
 166 -165 166 -165 114 -165 c 0,17,0
 80 -165 80 -165 62 -161 c 128,-1,1
388 675 m 1,18,-1
 143 599 l 1,19,-1
 131 637 l 1,20,-1
 370 732 l 1,21,-1
 388 675 l 1,18,-1
EndSplineSet
EndChar

StartChar: thorn
Encoding: 254 254 191
Width: 586
GlyphClass: 2
Flags: W
LayerCount: 2
Fore
SplineSet
147 443 m 1,0,1
 165 465 165 465 182.5 481.5 c 128,-1,2
 200 498 200 498 233.5 512.5 c 128,-1,3
 267 527 267 527 314 527 c 0,4,5
 376 527 376 527 425.5 497.5 c 128,-1,6
 475 468 475 468 503.5 409.5 c 128,-1,7
 532 351 532 351 532 267 c 128,-1,8
 532 183 532 183 503.5 120 c 128,-1,9
 475 57 475 57 423.5 23.5 c 128,-1,10
 372 -10 372 -10 303 -10 c 0,11,12
 223 -10 223 -10 162 39 c 0,13,14
 155 45 155 45 152 45 c 0,15,16
 148 45 148 45 148 32 c 2,17,-1
 148 -161 l 1,18,-1
 85 -161 l 1,19,-1
 85 723 l 1,20,-1
 147 723 l 1,21,-1
 147 443 l 1,0,1
216.5 57.5 m 128,-1,23
 251 40 251 40 290 40 c 0,24,25
 369 40 369 40 417.5 99 c 128,-1,26
 466 158 466 158 466 264 c 128,-1,27
 466 370 466 370 418 423.5 c 128,-1,28
 370 477 370 477 296 477 c 0,29,30
 254 477 254 477 220 458.5 c 128,-1,31
 186 440 186 440 167 411.5 c 128,-1,32
 148 383 148 383 148 355 c 2,33,-1
 148 108 l 1,34,22
 182 75 182 75 216.5 57.5 c 128,-1,23
EndSplineSet
EndChar

StartChar: ydieresis
Encoding: 255 255 192
Width: 509
GlyphClass: 2
Flags: W
AnchorPoint: "Anchor-5" 0 0 basechar 0
AnchorPoint: "Anchor-4" 0 0 basechar 0
AnchorPoint: "Anchor-3" 260 517 basechar 0
AnchorPoint: "Anchor-2" 0 0 basechar 0
LayerCount: 2
Fore
SplineSet
62 -161 m 128,-1,1
 44 -157 44 -157 44 -155 c 2,2,-1
 44 -113 l 1,3,-1
 98 -113 l 2,4,5
 145 -114 145 -114 168 -98 c 128,-1,6
 191 -82 191 -82 203 -53 c 2,7,-1
 226 7 l 1,8,-1
 24 517 l 1,9,-1
 89 517 l 1,10,-1
 257 84 l 1,11,-1
 423 517 l 1,12,-1
 485 517 l 1,13,-1
 263 -59 l 2,14,15
 239 -117 239 -117 202.5 -141 c 128,-1,16
 166 -165 166 -165 114 -165 c 0,17,0
 80 -165 80 -165 62 -161 c 128,-1,1
229 621 m 1,18,-1
 162 621 l 1,19,-1
 162 723 l 1,20,-1
 229 723 l 1,21,-1
 229 621 l 1,18,-1
357 621 m 1,22,-1
 290 621 l 1,23,-1
 290 723 l 1,24,-1
 357 723 l 1,25,-1
 357 621 l 1,22,-1
EndSplineSet
EndChar

StartChar: Amacron
Encoding: 256 256 193
Width: 690
GlyphClass: 2
Flags: W
AnchorPoint: "Anchor-5" 0 0 basechar 0
AnchorPoint: "Anchor-4" 0 0 basechar 0
AnchorPoint: "Anchor-3" 347 723 basechar 0
AnchorPoint: "Anchor-2" 639 11 basechar 0
LayerCount: 2
Fore
SplineSet
307 723 m 1,0,-1
 384 723 l 1,1,-1
 647 0 l 1,2,-1
 581 0 l 1,3,-1
 503 214 l 1,4,-1
 188 214 l 1,5,-1
 109 0 l 1,6,-1
 43 0 l 1,7,-1
 307 723 l 1,0,-1
484 276 m 1,8,-1
 346 659 l 1,9,-1
 207 276 l 1,10,-1
 484 276 l 1,8,-1
481 863 m 1,11,-1
 212 863 l 1,12,-1
 212 913 l 1,13,-1
 481 913 l 1,14,-1
 481 863 l 1,11,-1
EndSplineSet
EndChar

StartChar: amacron
Encoding: 257 257 194
Width: 554
GlyphClass: 2
Flags: W
AnchorPoint: "Anchor-5" 0 0 basechar 0
AnchorPoint: "Anchor-4" 0 0 basechar 0
AnchorPoint: "Anchor-3" 276 517 basechar 0
AnchorPoint: "Anchor-2" 460 13 basechar 0
LayerCount: 2
Fore
SplineSet
100.5 29 m 128,-1,1
 55 68 55 68 55 136 c 0,2,3
 55 194 55 194 80 228.5 c 128,-1,4
 105 263 105 263 158 281 c 128,-1,5
 211 299 211 299 301 305 c 2,6,-1
 408 313 l 1,7,-1
 408 354 l 2,8,9
 408 410 408 410 372.5 442.5 c 128,-1,10
 337 475 337 475 276 475 c 0,11,12
 182 475 182 475 121 387 c 1,13,-1
 69 404 l 1,14,15
 97 461 97 461 151 494 c 128,-1,16
 205 527 205 527 279 527 c 0,17,18
 369 527 369 527 419 482.5 c 128,-1,19
 469 438 469 438 469 359 c 2,20,-1
 469 0 l 1,21,-1
 414 0 l 1,22,-1
 410 77 l 1,23,24
 332 -10 332 -10 223 -10 c 0,25,0
 146 -10 146 -10 100.5 29 c 128,-1,1
316.5 58.5 m 128,-1,27
 356 77 356 77 382 107 c 128,-1,28
 408 137 408 137 408 168 c 2,29,-1
 408 268 l 1,30,-1
 318 261 l 2,31,32
 243 256 243 256 200.5 243.5 c 128,-1,33
 158 231 158 231 138 207 c 128,-1,34
 118 183 118 183 118 141 c 0,35,36
 118 94 118 94 150.5 67 c 128,-1,37
 183 40 183 40 238 40 c 0,38,26
 277 40 277 40 316.5 58.5 c 128,-1,27
410 657 m 1,39,-1
 141 657 l 1,40,-1
 141 707 l 1,41,-1
 410 707 l 1,42,-1
 410 657 l 1,39,-1
EndSplineSet
EndChar

StartChar: Abreve
Encoding: 258 258 195
Width: 690
GlyphClass: 2
Flags: W
AnchorPoint: "Anchor-5" 0 0 basechar 0
AnchorPoint: "Anchor-4" 0 0 basechar 0
AnchorPoint: "Anchor-3" 347 723 basechar 0
AnchorPoint: "Anchor-2" 639 11 basechar 0
LayerCount: 2
Fore
SplineSet
307 723 m 1,0,-1
 384 723 l 1,1,-1
 647 0 l 1,2,-1
 581 0 l 1,3,-1
 503 214 l 1,4,-1
 188 214 l 1,5,-1
 109 0 l 1,6,-1
 43 0 l 1,7,-1
 307 723 l 1,0,-1
484 276 m 1,8,-1
 346 659 l 1,9,-1
 207 276 l 1,10,-1
 484 276 l 1,8,-1
439 861 m 128,-1,12
 402 831 402 831 347 831 c 0,13,14
 291 831 291 831 255.5 859.5 c 128,-1,15
 220 888 220 888 210 929 c 1,16,-1
 266 929 l 1,17,18
 280 907 280 907 297.5 893 c 128,-1,19
 315 879 315 879 347 879 c 0,20,21
 376 879 376 879 396 894 c 128,-1,22
 416 909 416 909 429 929 c 1,23,-1
 487 929 l 1,24,11
 476 891 476 891 439 861 c 128,-1,12
EndSplineSet
EndChar

StartChar: abreve
Encoding: 259 259 196
Width: 554
GlyphClass: 2
Flags: W
AnchorPoint: "Anchor-5" 0 0 basechar 0
AnchorPoint: "Anchor-4" 0 0 basechar 0
AnchorPoint: "Anchor-3" 276 517 basechar 0
AnchorPoint: "Anchor-2" 460 13 basechar 0
LayerCount: 2
Fore
SplineSet
100.5 29 m 128,-1,1
 55 68 55 68 55 136 c 0,2,3
 55 194 55 194 80 228.5 c 128,-1,4
 105 263 105 263 158 281 c 128,-1,5
 211 299 211 299 301 305 c 2,6,-1
 408 313 l 1,7,-1
 408 354 l 2,8,9
 408 410 408 410 372.5 442.5 c 128,-1,10
 337 475 337 475 276 475 c 0,11,12
 182 475 182 475 121 387 c 1,13,-1
 69 404 l 1,14,15
 97 461 97 461 151 494 c 128,-1,16
 205 527 205 527 279 527 c 0,17,18
 369 527 369 527 419 482.5 c 128,-1,19
 469 438 469 438 469 359 c 2,20,-1
 469 0 l 1,21,-1
 414 0 l 1,22,-1
 410 77 l 1,23,24
 332 -10 332 -10 223 -10 c 0,25,0
 146 -10 146 -10 100.5 29 c 128,-1,1
316.5 58.5 m 128,-1,27
 356 77 356 77 382 107 c 128,-1,28
 408 137 408 137 408 168 c 2,29,-1
 408 268 l 1,30,-1
 318 261 l 2,31,32
 243 256 243 256 200.5 243.5 c 128,-1,33
 158 231 158 231 138 207 c 128,-1,34
 118 183 118 183 118 141 c 0,35,36
 118 94 118 94 150.5 67 c 128,-1,37
 183 40 183 40 238 40 c 0,38,26
 277 40 277 40 316.5 58.5 c 128,-1,27
368 655 m 128,-1,40
 331 625 331 625 276 625 c 0,41,42
 220 625 220 625 184.5 653.5 c 128,-1,43
 149 682 149 682 139 723 c 1,44,-1
 195 723 l 1,45,46
 209 701 209 701 226.5 687 c 128,-1,47
 244 673 244 673 276 673 c 0,48,49
 305 673 305 673 325 688 c 128,-1,50
 345 703 345 703 358 723 c 1,51,-1
 416 723 l 1,52,39
 405 685 405 685 368 655 c 128,-1,40
EndSplineSet
EndChar

StartChar: Aogonek
Encoding: 260 260 197
Width: 690
GlyphClass: 2
Flags: W
AnchorPoint: "Anchor-5" 0 0 basechar 0
AnchorPoint: "Anchor-4" 0 0 basechar 0
AnchorPoint: "Anchor-3" 347 723 basechar 0
AnchorPoint: "Anchor-2" 639 11 basechar 0
LayerCount: 2
Fore
SplineSet
307 723 m 1,0,-1
 384 723 l 1,1,-1
 647 0 l 1,2,-1
 581 0 l 1,3,-1
 503 214 l 1,4,-1
 188 214 l 1,5,-1
 109 0 l 1,6,-1
 43 0 l 1,7,-1
 307 723 l 1,0,-1
484 276 m 1,8,-1
 346 659 l 1,9,-1
 207 276 l 1,10,-1
 484 276 l 1,8,-1
516.5 -32 m 128,-1,12
 540 -8 540 -8 598 9 c 1,13,-1
 647 2 l 1,14,15
 596 -21 596 -21 573 -41 c 128,-1,16
 550 -61 550 -61 550 -86 c 0,17,18
 550 -106 550 -106 562.5 -115.5 c 128,-1,19
 575 -125 575 -125 602 -125 c 0,20,21
 622 -125 622 -125 639 -121 c 128,-1,22
 656 -117 656 -117 664 -112 c 0,23,24
 669 -110 669 -110 671 -111 c 128,-1,25
 673 -112 673 -112 673 -117 c 2,26,-1
 673 -141 l 2,27,28
 673 -148 673 -148 667 -150 c 0,29,30
 655 -156 655 -156 632.5 -161 c 128,-1,31
 610 -166 610 -166 587 -166 c 0,32,33
 540 -166 540 -166 516.5 -145.5 c 128,-1,34
 493 -125 493 -125 493 -89 c 0,35,11
 493 -56 493 -56 516.5 -32 c 128,-1,12
EndSplineSet
EndChar

StartChar: aogonek
Encoding: 261 261 198
Width: 554
GlyphClass: 2
Flags: W
AnchorPoint: "Anchor-5" 0 0 basechar 0
AnchorPoint: "Anchor-4" 0 0 basechar 0
AnchorPoint: "Anchor-3" 276 517 basechar 0
AnchorPoint: "Anchor-2" 460 13 basechar 0
LayerCount: 2
Fore
SplineSet
100.5 29 m 128,-1,1
 55 68 55 68 55 136 c 0,2,3
 55 194 55 194 80 228.5 c 128,-1,4
 105 263 105 263 158 281 c 128,-1,5
 211 299 211 299 301 305 c 2,6,-1
 408 313 l 1,7,-1
 408 354 l 2,8,9
 408 410 408 410 372.5 442.5 c 128,-1,10
 337 475 337 475 276 475 c 0,11,12
 182 475 182 475 121 387 c 1,13,-1
 69 404 l 1,14,15
 97 461 97 461 151 494 c 128,-1,16
 205 527 205 527 279 527 c 0,17,18
 369 527 369 527 419 482.5 c 128,-1,19
 469 438 469 438 469 359 c 2,20,-1
 469 0 l 1,21,-1
 414 0 l 1,22,-1
 410 77 l 1,23,24
 332 -10 332 -10 223 -10 c 0,25,0
 146 -10 146 -10 100.5 29 c 128,-1,1
316.5 58.5 m 128,-1,27
 356 77 356 77 382 107 c 128,-1,28
 408 137 408 137 408 168 c 2,29,-1
 408 268 l 1,30,-1
 318 261 l 2,31,32
 243 256 243 256 200.5 243.5 c 128,-1,33
 158 231 158 231 138 207 c 128,-1,34
 118 183 118 183 118 141 c 0,35,36
 118 94 118 94 150.5 67 c 128,-1,37
 183 40 183 40 238 40 c 0,38,26
 277 40 277 40 316.5 58.5 c 128,-1,27
337.5 -30 m 128,-1,40
 361 -6 361 -6 419 11 c 1,41,-1
 468 4 l 1,42,43
 417 -19 417 -19 394 -39 c 128,-1,44
 371 -59 371 -59 371 -84 c 0,45,46
 371 -104 371 -104 383.5 -113.5 c 128,-1,47
 396 -123 396 -123 423 -123 c 0,48,49
 443 -123 443 -123 460 -119 c 128,-1,50
 477 -115 477 -115 485 -110 c 0,51,52
 490 -108 490 -108 492 -109 c 128,-1,53
 494 -110 494 -110 494 -115 c 2,54,-1
 494 -139 l 2,55,56
 494 -146 494 -146 488 -148 c 0,57,58
 476 -154 476 -154 453.5 -159 c 128,-1,59
 431 -164 431 -164 408 -164 c 0,60,61
 361 -164 361 -164 337.5 -143.5 c 128,-1,62
 314 -123 314 -123 314 -87 c 0,63,39
 314 -54 314 -54 337.5 -30 c 128,-1,40
EndSplineSet
EndChar

StartChar: Cacute
Encoding: 262 262 199
Width: 670
GlyphClass: 2
Flags: W
AnchorPoint: "Anchor-5" 0 0 basechar 0
AnchorPoint: "Anchor-4" 355 0 basechar 0
AnchorPoint: "Anchor-3" 355 723 basechar 0
AnchorPoint: "Anchor-2" 0 0 basechar 0
LayerCount: 2
Fore
SplineSet
480 705 m 128,-1,1
 538 677 538 677 573 629.5 c 128,-1,2
 608 582 608 582 614 525 c 1,3,-1
 546 519 l 1,4,5
 532 590 532 590 482 632 c 128,-1,6
 432 674 432 674 349 674 c 0,7,8
 239 674 239 674 183 595 c 128,-1,9
 127 516 127 516 127 360 c 0,10,11
 127 207 127 207 184 128 c 128,-1,12
 241 49 241 49 356 49 c 0,13,14
 427 49 427 49 477.5 88.5 c 128,-1,15
 528 128 528 128 544 197 c 1,16,-1
 611 188 l 1,17,18
 605 133 605 133 569.5 87.5 c 128,-1,19
 534 42 534 42 478 16 c 128,-1,20
 422 -10 422 -10 355 -10 c 0,21,22
 212 -10 212 -10 134 88 c 128,-1,23
 56 186 56 186 56 361 c 128,-1,24
 56 536 56 536 132.5 634.5 c 128,-1,25
 209 733 209 733 348 733 c 0,26,0
 422 733 422 733 480 705 c 128,-1,1
483 881 m 1,27,-1
 238 805 l 1,28,-1
 226 843 l 1,29,-1
 465 938 l 1,30,-1
 483 881 l 1,27,-1
EndSplineSet
EndChar

StartChar: cacute
Encoding: 263 263 200
Width: 538
GlyphClass: 2
Flags: W
AnchorPoint: "Anchor-5" 0 0 basechar 0
AnchorPoint: "Anchor-4" 285 0 basechar 0
AnchorPoint: "Anchor-3" 283 517 basechar 0
AnchorPoint: "Anchor-2" 0 0 basechar 0
LayerCount: 2
Fore
SplineSet
398.5 493.5 m 128,-1,1
 445 460 445 460 477 398 c 1,2,-1
 424 380 l 1,3,4
 385 432 385 432 357.5 452 c 128,-1,5
 330 472 330 472 289 472 c 0,6,7
 210 472 210 472 163.5 413.5 c 128,-1,8
 117 355 117 355 117 258 c 0,9,10
 117 159 117 159 163 100.5 c 128,-1,11
 209 42 209 42 288 42 c 0,12,13
 336 42 336 42 368.5 67 c 128,-1,14
 401 92 401 92 431 143 c 1,15,-1
 483 124 l 1,16,17
 418 -10 418 -10 284 -10 c 0,18,19
 214 -10 214 -10 162 23.5 c 128,-1,20
 110 57 110 57 82 117 c 128,-1,21
 54 177 54 177 54 256 c 128,-1,22
 54 335 54 335 82 396.5 c 128,-1,23
 110 458 110 458 162.5 492.5 c 128,-1,24
 215 527 215 527 284 527 c 0,25,0
 352 527 352 527 398.5 493.5 c 128,-1,1
411 675 m 1,26,-1
 166 599 l 1,27,-1
 154 637 l 1,28,-1
 393 732 l 1,29,-1
 411 675 l 1,26,-1
EndSplineSet
EndChar

StartChar: Ccircumflex
Encoding: 264 264 201
Width: 670
GlyphClass: 2
Flags: W
AnchorPoint: "Anchor-5" 0 0 basechar 0
AnchorPoint: "Anchor-4" 355 0 basechar 0
AnchorPoint: "Anchor-3" 355 723 basechar 0
AnchorPoint: "Anchor-2" 0 0 basechar 0
LayerCount: 2
Fore
SplineSet
480 705 m 128,-1,1
 538 677 538 677 573 629.5 c 128,-1,2
 608 582 608 582 614 525 c 1,3,-1
 546 519 l 1,4,5
 532 590 532 590 482 632 c 128,-1,6
 432 674 432 674 349 674 c 0,7,8
 239 674 239 674 183 595 c 128,-1,9
 127 516 127 516 127 360 c 0,10,11
 127 207 127 207 184 128 c 128,-1,12
 241 49 241 49 356 49 c 0,13,14
 427 49 427 49 477.5 88.5 c 128,-1,15
 528 128 528 128 544 197 c 1,16,-1
 611 188 l 1,17,18
 605 133 605 133 569.5 87.5 c 128,-1,19
 534 42 534 42 478 16 c 128,-1,20
 422 -10 422 -10 355 -10 c 0,21,22
 212 -10 212 -10 134 88 c 128,-1,23
 56 186 56 186 56 361 c 128,-1,24
 56 536 56 536 132.5 634.5 c 128,-1,25
 209 733 209 733 348 733 c 0,26,0
 422 733 422 733 480 705 c 128,-1,1
355 890 m 1,27,-1
 278 827 l 1,28,-1
 210 827 l 1,29,-1
 332 931 l 1,30,-1
 380 931 l 1,31,-1
 499 827 l 1,32,-1
 427 827 l 1,33,-1
 355 890 l 1,27,-1
EndSplineSet
EndChar

StartChar: ccircumflex
Encoding: 265 265 202
Width: 538
GlyphClass: 2
Flags: W
AnchorPoint: "Anchor-5" 0 0 basechar 0
AnchorPoint: "Anchor-4" 285 0 basechar 0
AnchorPoint: "Anchor-3" 283 517 basechar 0
AnchorPoint: "Anchor-2" 0 0 basechar 0
LayerCount: 2
Fore
SplineSet
398.5 493.5 m 128,-1,1
 445 460 445 460 477 398 c 1,2,-1
 424 380 l 1,3,4
 385 432 385 432 357.5 452 c 128,-1,5
 330 472 330 472 289 472 c 0,6,7
 210 472 210 472 163.5 413.5 c 128,-1,8
 117 355 117 355 117 258 c 0,9,10
 117 159 117 159 163 100.5 c 128,-1,11
 209 42 209 42 288 42 c 0,12,13
 336 42 336 42 368.5 67 c 128,-1,14
 401 92 401 92 431 143 c 1,15,-1
 483 124 l 1,16,17
 418 -10 418 -10 284 -10 c 0,18,19
 214 -10 214 -10 162 23.5 c 128,-1,20
 110 57 110 57 82 117 c 128,-1,21
 54 177 54 177 54 256 c 128,-1,22
 54 335 54 335 82 396.5 c 128,-1,23
 110 458 110 458 162.5 492.5 c 128,-1,24
 215 527 215 527 284 527 c 0,25,0
 352 527 352 527 398.5 493.5 c 128,-1,1
283 684 m 1,26,-1
 206 621 l 1,27,-1
 138 621 l 1,28,-1
 260 725 l 1,29,-1
 308 725 l 1,30,-1
 427 621 l 1,31,-1
 355 621 l 1,32,-1
 283 684 l 1,26,-1
EndSplineSet
EndChar

StartChar: Cdotaccent
Encoding: 266 266 203
Width: 670
GlyphClass: 2
Flags: W
AnchorPoint: "Anchor-5" 0 0 basechar 0
AnchorPoint: "Anchor-4" 355 0 basechar 0
AnchorPoint: "Anchor-3" 355 723 basechar 0
AnchorPoint: "Anchor-2" 0 0 basechar 0
LayerCount: 2
Fore
SplineSet
480 705 m 128,-1,1
 538 677 538 677 573 629.5 c 128,-1,2
 608 582 608 582 614 525 c 1,3,-1
 546 519 l 1,4,5
 532 590 532 590 482 632 c 128,-1,6
 432 674 432 674 349 674 c 0,7,8
 239 674 239 674 183 595 c 128,-1,9
 127 516 127 516 127 360 c 0,10,11
 127 207 127 207 184 128 c 128,-1,12
 241 49 241 49 356 49 c 0,13,14
 427 49 427 49 477.5 88.5 c 128,-1,15
 528 128 528 128 544 197 c 1,16,-1
 611 188 l 1,17,18
 605 133 605 133 569.5 87.5 c 128,-1,19
 534 42 534 42 478 16 c 128,-1,20
 422 -10 422 -10 355 -10 c 0,21,22
 212 -10 212 -10 134 88 c 128,-1,23
 56 186 56 186 56 361 c 128,-1,24
 56 536 56 536 132.5 634.5 c 128,-1,25
 209 733 209 733 348 733 c 0,26,0
 422 733 422 733 480 705 c 128,-1,1
391 823 m 1,27,-1
 320 823 l 1,28,-1
 320 929 l 1,29,-1
 391 929 l 1,30,-1
 391 823 l 1,27,-1
EndSplineSet
EndChar

StartChar: cdotaccent
Encoding: 267 267 204
Width: 538
GlyphClass: 2
Flags: W
AnchorPoint: "Anchor-5" 0 0 basechar 0
AnchorPoint: "Anchor-4" 285 0 basechar 0
AnchorPoint: "Anchor-3" 283 517 basechar 0
AnchorPoint: "Anchor-2" 0 0 basechar 0
LayerCount: 2
Fore
SplineSet
398.5 493.5 m 128,-1,1
 445 460 445 460 477 398 c 1,2,-1
 424 380 l 1,3,4
 385 432 385 432 357.5 452 c 128,-1,5
 330 472 330 472 289 472 c 0,6,7
 210 472 210 472 163.5 413.5 c 128,-1,8
 117 355 117 355 117 258 c 0,9,10
 117 159 117 159 163 100.5 c 128,-1,11
 209 42 209 42 288 42 c 0,12,13
 336 42 336 42 368.5 67 c 128,-1,14
 401 92 401 92 431 143 c 1,15,-1
 483 124 l 1,16,17
 418 -10 418 -10 284 -10 c 0,18,19
 214 -10 214 -10 162 23.5 c 128,-1,20
 110 57 110 57 82 117 c 128,-1,21
 54 177 54 177 54 256 c 128,-1,22
 54 335 54 335 82 396.5 c 128,-1,23
 110 458 110 458 162.5 492.5 c 128,-1,24
 215 527 215 527 284 527 c 0,25,0
 352 527 352 527 398.5 493.5 c 128,-1,1
319 617 m 1,26,-1
 248 617 l 1,27,-1
 248 723 l 1,28,-1
 319 723 l 1,29,-1
 319 617 l 1,26,-1
EndSplineSet
EndChar

StartChar: Ccaron
Encoding: 268 268 205
Width: 670
GlyphClass: 2
Flags: W
AnchorPoint: "Anchor-5" 0 0 basechar 0
AnchorPoint: "Anchor-4" 355 0 basechar 0
AnchorPoint: "Anchor-3" 355 723 basechar 0
AnchorPoint: "Anchor-2" 0 0 basechar 0
LayerCount: 2
Fore
SplineSet
480 705 m 128,-1,1
 538 677 538 677 573 629.5 c 128,-1,2
 608 582 608 582 614 525 c 1,3,-1
 546 519 l 1,4,5
 532 590 532 590 482 632 c 128,-1,6
 432 674 432 674 349 674 c 0,7,8
 239 674 239 674 183 595 c 128,-1,9
 127 516 127 516 127 360 c 0,10,11
 127 207 127 207 184 128 c 128,-1,12
 241 49 241 49 356 49 c 0,13,14
 427 49 427 49 477.5 88.5 c 128,-1,15
 528 128 528 128 544 197 c 1,16,-1
 611 188 l 1,17,18
 605 133 605 133 569.5 87.5 c 128,-1,19
 534 42 534 42 478 16 c 128,-1,20
 422 -10 422 -10 355 -10 c 0,21,22
 212 -10 212 -10 134 88 c 128,-1,23
 56 186 56 186 56 361 c 128,-1,24
 56 536 56 536 132.5 634.5 c 128,-1,25
 209 733 209 733 348 733 c 0,26,0
 422 733 422 733 480 705 c 128,-1,1
499 929 m 1,27,-1
 380 825 l 1,28,-1
 332 825 l 1,29,-1
 209 929 l 1,30,-1
 278 929 l 1,31,-1
 355 866 l 1,32,-1
 427 929 l 1,33,-1
 499 929 l 1,27,-1
EndSplineSet
EndChar

StartChar: ccaron
Encoding: 269 269 206
Width: 538
GlyphClass: 2
Flags: W
AnchorPoint: "Anchor-5" 0 0 basechar 0
AnchorPoint: "Anchor-4" 285 0 basechar 0
AnchorPoint: "Anchor-3" 283 517 basechar 0
AnchorPoint: "Anchor-2" 0 0 basechar 0
LayerCount: 2
Fore
SplineSet
398.5 493.5 m 128,-1,1
 445 460 445 460 477 398 c 1,2,-1
 424 380 l 1,3,4
 385 432 385 432 357.5 452 c 128,-1,5
 330 472 330 472 289 472 c 0,6,7
 210 472 210 472 163.5 413.5 c 128,-1,8
 117 355 117 355 117 258 c 0,9,10
 117 159 117 159 163 100.5 c 128,-1,11
 209 42 209 42 288 42 c 0,12,13
 336 42 336 42 368.5 67 c 128,-1,14
 401 92 401 92 431 143 c 1,15,-1
 483 124 l 1,16,17
 418 -10 418 -10 284 -10 c 0,18,19
 214 -10 214 -10 162 23.5 c 128,-1,20
 110 57 110 57 82 117 c 128,-1,21
 54 177 54 177 54 256 c 128,-1,22
 54 335 54 335 82 396.5 c 128,-1,23
 110 458 110 458 162.5 492.5 c 128,-1,24
 215 527 215 527 284 527 c 0,25,0
 352 527 352 527 398.5 493.5 c 128,-1,1
427 723 m 1,26,-1
 308 619 l 1,27,-1
 260 619 l 1,28,-1
 137 723 l 1,29,-1
 206 723 l 1,30,-1
 283 660 l 1,31,-1
 355 723 l 1,32,-1
 427 723 l 1,26,-1
EndSplineSet
EndChar

StartChar: Dcaron
Encoding: 270 270 207
Width: 675
GlyphClass: 2
Flags: W
AnchorPoint: "Anchor-5" 0 0 basechar 0
AnchorPoint: "Anchor-4" 0 0 basechar 0
AnchorPoint: "Anchor-3" 330 723 basechar 0
AnchorPoint: "Anchor-2" 0 0 basechar 0
LayerCount: 2
Fore
SplineSet
243 722 m 2,0,1
 440 721 440 721 530 633.5 c 128,-1,2
 620 546 620 546 620 367 c 0,3,4
 620 180 620 180 525 90 c 128,-1,5
 430 0 430 0 231 0 c 2,6,-1
 101 0 l 1,7,-1
 101 723 l 1,8,-1
 243 722 l 2,0,1
168 59 m 1,9,-1
 230 59 l 2,10,11
 392 59 392 59 472.5 130 c 128,-1,12
 553 201 553 201 553 364 c 0,13,14
 553 477 553 477 516.5 543 c 128,-1,15
 480 609 480 609 410.5 637 c 128,-1,16
 341 665 341 665 235 665 c 2,17,-1
 168 665 l 1,18,-1
 168 59 l 1,9,-1
474 929 m 1,19,-1
 355 825 l 1,20,-1
 307 825 l 1,21,-1
 184 929 l 1,22,-1
 253 929 l 1,23,-1
 330 866 l 1,24,-1
 402 929 l 1,25,-1
 474 929 l 1,19,-1
EndSplineSet
EndChar

StartChar: dcaron
Encoding: 271 271 208
Width: 576
GlyphClass: 2
Flags: W
AnchorPoint: "Anchor-5" 597 691 basechar 0
AnchorPoint: "Anchor-4" 286 0 basechar 0
AnchorPoint: "Anchor-3" 0 0 basechar 0
AnchorPoint: "Anchor-2" 0 0 basechar 0
LayerCount: 2
Fore
SplineSet
111 57.5 m 128,-1,1
 54 125 54 125 54 251 c 128,-1,2
 54 377 54 377 112 452 c 128,-1,3
 170 527 170 527 273 527 c 0,4,5
 317 527 317 527 354 511 c 128,-1,6
 391 495 391 495 428 462 c 1,7,-1
 428 743 l 1,8,-1
 491 743 l 1,9,-1
 491 0 l 1,10,-1
 439 0 l 1,11,-1
 436 76 l 1,12,13
 369 -10 369 -10 266 -10 c 0,14,0
 168 -10 168 -10 111 57.5 c 128,-1,1
353.5 62.5 m 128,-1,16
 388 83 388 83 408 114.5 c 128,-1,17
 428 146 428 146 428 177 c 2,18,-1
 428 395 l 1,19,20
 366 474 366 474 284 474 c 0,21,22
 207 474 207 474 162.5 417 c 128,-1,23
 118 360 118 360 118 255 c 0,24,25
 118 149 118 149 162 95.5 c 128,-1,26
 206 42 206 42 278 42 c 0,27,15
 319 42 319 42 353.5 62.5 c 128,-1,16
530 513 m 128,-1,29
 528 516 528 516 530 518 c 2,30,-1
 559 587 l 2,31,32
 561 593 561 593 560 595 c 128,-1,33
 559 597 559 597 555 598 c 2,34,-1
 549 599 l 2,35,36
 544 600 544 600 542 602 c 128,-1,37
 540 604 540 604 540 608 c 2,38,-1
 540 684 l 2,39,40
 540 688 540 688 541.5 689.5 c 128,-1,41
 543 691 543 691 547 691 c 2,42,-1
 597 691 l 2,43,44
 603 691 603 691 603 685 c 2,45,-1
 603 599 l 1,46,-1
 602 595 l 1,47,-1
 569 518 l 2,48,49
 566 510 566 510 554 510 c 2,50,-1
 535 510 l 2,51,28
 532 510 532 510 530 513 c 128,-1,29
EndSplineSet
EndChar

StartChar: Dcroat
Encoding: 272 272 209
Width: 679
GlyphClass: 2
Flags: W
AnchorPoint: "Anchor-5" 0 0 basechar 0
AnchorPoint: "Anchor-4" 0 0 basechar 0
AnchorPoint: "Anchor-3" 334 723 basechar 0
AnchorPoint: "Anchor-2" 0 0 basechar 0
LayerCount: 2
Fore
SplineSet
534 633.5 m 128,-1,1
 624 546 624 546 624 367 c 0,2,3
 624 180 624 180 529 90 c 128,-1,4
 434 0 434 0 235 0 c 2,5,-1
 105 0 l 1,6,-1
 105 335 l 1,7,-1
 46 335 l 2,8,9
 33 335 33 335 33 347 c 2,10,-1
 33 380 l 2,11,12
 33 391 33 391 42 391 c 2,13,-1
 105 391 l 1,14,-1
 105 723 l 1,15,-1
 247 722 l 2,16,0
 444 721 444 721 534 633.5 c 128,-1,1
476.5 130 m 128,-1,18
 557 201 557 201 557 364 c 0,19,20
 557 477 557 477 520.5 543 c 128,-1,21
 484 609 484 609 414.5 637 c 128,-1,22
 345 665 345 665 239 665 c 2,23,-1
 172 665 l 1,24,-1
 172 391 l 1,25,-1
 340 391 l 2,26,27
 348 391 348 391 348 381 c 2,28,-1
 348 348 l 2,29,30
 348 335 348 335 333 335 c 2,31,-1
 172 335 l 1,32,-1
 172 59 l 1,33,-1
 234 59 l 2,34,17
 396 59 396 59 476.5 130 c 128,-1,18
EndSplineSet
EndChar

StartChar: dcroat
Encoding: 273 273 210
Width: 594
GlyphClass: 2
Flags: W
AnchorPoint: "Anchor-5" 597 691 basechar 0
AnchorPoint: "Anchor-4" 286 0 basechar 0
AnchorPoint: "Anchor-3" 0 0 basechar 0
AnchorPoint: "Anchor-2" 0 0 basechar 0
LayerCount: 2
Fore
SplineSet
568 604 m 1,0,-1
 491 604 l 1,1,-1
 491 0 l 1,2,-1
 439 0 l 1,3,-1
 436 76 l 1,4,5
 369 -10 369 -10 266 -10 c 0,6,7
 168 -10 168 -10 111 57.5 c 128,-1,8
 54 125 54 125 54 251 c 128,-1,9
 54 377 54 377 112 452 c 128,-1,10
 170 527 170 527 273 527 c 0,11,12
 317 527 317 527 354 511 c 128,-1,13
 391 495 391 495 428 462 c 1,14,-1
 428 604 l 1,15,-1
 275 604 l 1,16,-1
 275 649 l 1,17,-1
 428 649 l 1,18,-1
 428 743 l 1,19,-1
 491 743 l 1,20,-1
 491 649 l 1,21,-1
 568 649 l 1,22,-1
 568 604 l 1,0,-1
428 395 m 1,23,24
 366 474 366 474 284 474 c 0,25,26
 207 474 207 474 162.5 417 c 128,-1,27
 118 360 118 360 118 255 c 0,28,29
 118 149 118 149 162 95.5 c 128,-1,30
 206 42 206 42 278 42 c 0,31,32
 319 42 319 42 353.5 62.5 c 128,-1,33
 388 83 388 83 408 114.5 c 128,-1,34
 428 146 428 146 428 177 c 2,35,-1
 428 395 l 1,23,24
EndSplineSet
EndChar

StartChar: Emacron
Encoding: 274 274 211
Width: 615
GlyphClass: 2
Flags: W
AnchorPoint: "Anchor-5" 0 0 basechar 0
AnchorPoint: "Anchor-4" 346 0 basechar 0
AnchorPoint: "Anchor-3" 330 723 basechar 0
AnchorPoint: "Anchor-2" 539 10 basechar 0
LayerCount: 2
Fore
SplineSet
101 723 m 1,0,-1
 535 723 l 1,1,-1
 535 664 l 1,2,-1
 165 664 l 1,3,-1
 165 395 l 1,4,-1
 504 395 l 1,5,-1
 504 336 l 1,6,-1
 165 336 l 1,7,-1
 165 61 l 1,8,-1
 547 60 l 1,9,-1
 547 0 l 1,10,-1
 101 0 l 1,11,-1
 101 723 l 1,0,-1
464 863 m 1,12,-1
 195 863 l 1,13,-1
 195 913 l 1,14,-1
 464 913 l 1,15,-1
 464 863 l 1,12,-1
EndSplineSet
EndChar

StartChar: emacron
Encoding: 275 275 212
Width: 554
GlyphClass: 2
Flags: W
AnchorPoint: "Anchor-5" 0 0 basechar 0
AnchorPoint: "Anchor-4" 276 0 basechar 0
AnchorPoint: "Anchor-3" 283 517 basechar 0
AnchorPoint: "Anchor-2" 381 19 basechar 0
LayerCount: 2
Fore
SplineSet
164 100 m 128,-1,1
 208 44 208 44 292 44 c 0,2,3
 400 44 400 44 433 130 c 1,4,-1
 491 117 l 1,5,6
 472 57 472 57 418.5 23.5 c 128,-1,7
 365 -10 365 -10 292 -10 c 0,8,9
 222 -10 222 -10 168 21.5 c 128,-1,10
 114 53 114 53 84 112.5 c 128,-1,11
 54 172 54 172 54 254 c 0,12,13
 54 380 54 380 114.5 453.5 c 128,-1,14
 175 527 175 527 283 527 c 0,15,16
 386 527 386 527 443 460 c 128,-1,17
 500 393 500 393 500 274 c 2,18,-1
 500 243 l 1,19,-1
 120 243 l 1,20,0
 120 156 120 156 164 100 c 128,-1,1
437 293 m 1,21,22
 437 374 437 374 397.5 424 c 128,-1,23
 358 474 358 474 282 474 c 0,24,25
 228 474 228 474 191.5 448 c 128,-1,26
 155 422 155 422 137.5 380.5 c 128,-1,27
 120 339 120 339 120 293 c 1,28,-1
 437 293 l 1,21,22
417 657 m 1,29,-1
 148 657 l 1,30,-1
 148 707 l 1,31,-1
 417 707 l 1,32,-1
 417 657 l 1,29,-1
EndSplineSet
EndChar

StartChar: Ebreve
Encoding: 276 276 213
Width: 615
GlyphClass: 2
Flags: W
AnchorPoint: "Anchor-5" 0 0 basechar 0
AnchorPoint: "Anchor-4" 346 0 basechar 0
AnchorPoint: "Anchor-3" 330 723 basechar 0
AnchorPoint: "Anchor-2" 539 10 basechar 0
LayerCount: 2
Fore
SplineSet
101 723 m 1,0,-1
 535 723 l 1,1,-1
 535 664 l 1,2,-1
 165 664 l 1,3,-1
 165 395 l 1,4,-1
 504 395 l 1,5,-1
 504 336 l 1,6,-1
 165 336 l 1,7,-1
 165 61 l 1,8,-1
 547 60 l 1,9,-1
 547 0 l 1,10,-1
 101 0 l 1,11,-1
 101 723 l 1,0,-1
422 861 m 128,-1,13
 385 831 385 831 330 831 c 0,14,15
 274 831 274 831 238.5 859.5 c 128,-1,16
 203 888 203 888 193 929 c 1,17,-1
 249 929 l 1,18,19
 263 907 263 907 280.5 893 c 128,-1,20
 298 879 298 879 330 879 c 0,21,22
 359 879 359 879 379 894 c 128,-1,23
 399 909 399 909 412 929 c 1,24,-1
 470 929 l 1,25,12
 459 891 459 891 422 861 c 128,-1,13
EndSplineSet
EndChar

StartChar: ebreve
Encoding: 277 277 214
Width: 554
GlyphClass: 2
Flags: W
AnchorPoint: "Anchor-5" 0 0 basechar 0
AnchorPoint: "Anchor-4" 276 0 basechar 0
AnchorPoint: "Anchor-3" 283 517 basechar 0
AnchorPoint: "Anchor-2" 381 19 basechar 0
LayerCount: 2
Fore
SplineSet
164 100 m 128,-1,1
 208 44 208 44 292 44 c 0,2,3
 400 44 400 44 433 130 c 1,4,-1
 491 117 l 1,5,6
 472 57 472 57 418.5 23.5 c 128,-1,7
 365 -10 365 -10 292 -10 c 0,8,9
 222 -10 222 -10 168 21.5 c 128,-1,10
 114 53 114 53 84 112.5 c 128,-1,11
 54 172 54 172 54 254 c 0,12,13
 54 380 54 380 114.5 453.5 c 128,-1,14
 175 527 175 527 283 527 c 0,15,16
 386 527 386 527 443 460 c 128,-1,17
 500 393 500 393 500 274 c 2,18,-1
 500 243 l 1,19,-1
 120 243 l 1,20,0
 120 156 120 156 164 100 c 128,-1,1
437 293 m 1,21,22
 437 374 437 374 397.5 424 c 128,-1,23
 358 474 358 474 282 474 c 0,24,25
 228 474 228 474 191.5 448 c 128,-1,26
 155 422 155 422 137.5 380.5 c 128,-1,27
 120 339 120 339 120 293 c 1,28,-1
 437 293 l 1,21,22
375 655 m 128,-1,30
 338 625 338 625 283 625 c 0,31,32
 227 625 227 625 191.5 653.5 c 128,-1,33
 156 682 156 682 146 723 c 1,34,-1
 202 723 l 1,35,36
 216 701 216 701 233.5 687 c 128,-1,37
 251 673 251 673 283 673 c 0,38,39
 312 673 312 673 332 688 c 128,-1,40
 352 703 352 703 365 723 c 1,41,-1
 423 723 l 1,42,29
 412 685 412 685 375 655 c 128,-1,30
EndSplineSet
EndChar

StartChar: Edotaccent
Encoding: 278 278 215
Width: 615
GlyphClass: 2
Flags: W
AnchorPoint: "Anchor-5" 0 0 basechar 0
AnchorPoint: "Anchor-4" 346 0 basechar 0
AnchorPoint: "Anchor-3" 330 723 basechar 0
AnchorPoint: "Anchor-2" 539 10 basechar 0
LayerCount: 2
Fore
SplineSet
101 723 m 1,0,-1
 535 723 l 1,1,-1
 535 664 l 1,2,-1
 165 664 l 1,3,-1
 165 395 l 1,4,-1
 504 395 l 1,5,-1
 504 336 l 1,6,-1
 165 336 l 1,7,-1
 165 61 l 1,8,-1
 547 60 l 1,9,-1
 547 0 l 1,10,-1
 101 0 l 1,11,-1
 101 723 l 1,0,-1
366 823 m 1,12,-1
 295 823 l 1,13,-1
 295 929 l 1,14,-1
 366 929 l 1,15,-1
 366 823 l 1,12,-1
EndSplineSet
EndChar

StartChar: edotaccent
Encoding: 279 279 216
Width: 554
GlyphClass: 2
Flags: W
AnchorPoint: "Anchor-5" 0 0 basechar 0
AnchorPoint: "Anchor-4" 276 0 basechar 0
AnchorPoint: "Anchor-3" 283 517 basechar 0
AnchorPoint: "Anchor-2" 381 19 basechar 0
LayerCount: 2
Fore
SplineSet
164 100 m 128,-1,1
 208 44 208 44 292 44 c 0,2,3
 400 44 400 44 433 130 c 1,4,-1
 491 117 l 1,5,6
 472 57 472 57 418.5 23.5 c 128,-1,7
 365 -10 365 -10 292 -10 c 0,8,9
 222 -10 222 -10 168 21.5 c 128,-1,10
 114 53 114 53 84 112.5 c 128,-1,11
 54 172 54 172 54 254 c 0,12,13
 54 380 54 380 114.5 453.5 c 128,-1,14
 175 527 175 527 283 527 c 0,15,16
 386 527 386 527 443 460 c 128,-1,17
 500 393 500 393 500 274 c 2,18,-1
 500 243 l 1,19,-1
 120 243 l 1,20,0
 120 156 120 156 164 100 c 128,-1,1
437 293 m 1,21,22
 437 374 437 374 397.5 424 c 128,-1,23
 358 474 358 474 282 474 c 0,24,25
 228 474 228 474 191.5 448 c 128,-1,26
 155 422 155 422 137.5 380.5 c 128,-1,27
 120 339 120 339 120 293 c 1,28,-1
 437 293 l 1,21,22
319 617 m 1,29,-1
 248 617 l 1,30,-1
 248 723 l 1,31,-1
 319 723 l 1,32,-1
 319 617 l 1,29,-1
EndSplineSet
EndChar

StartChar: Eogonek
Encoding: 280 280 217
Width: 615
GlyphClass: 2
Flags: W
AnchorPoint: "Anchor-5" 0 0 basechar 0
AnchorPoint: "Anchor-4" 346 0 basechar 0
AnchorPoint: "Anchor-3" 330 723 basechar 0
AnchorPoint: "Anchor-2" 539 10 basechar 0
LayerCount: 2
Fore
SplineSet
101 723 m 1,0,-1
 535 723 l 1,1,-1
 535 664 l 1,2,-1
 165 664 l 1,3,-1
 165 395 l 1,4,-1
 504 395 l 1,5,-1
 504 336 l 1,6,-1
 165 336 l 1,7,-1
 165 61 l 1,8,-1
 547 60 l 1,9,-1
 547 0 l 1,10,-1
 101 0 l 1,11,-1
 101 723 l 1,0,-1
416.5 -33 m 128,-1,13
 440 -9 440 -9 498 8 c 1,14,-1
 547 1 l 1,15,16
 496 -22 496 -22 473 -42 c 128,-1,17
 450 -62 450 -62 450 -87 c 0,18,19
 450 -107 450 -107 462.5 -116.5 c 128,-1,20
 475 -126 475 -126 502 -126 c 0,21,22
 522 -126 522 -126 539 -122 c 128,-1,23
 556 -118 556 -118 564 -113 c 0,24,25
 569 -111 569 -111 571 -112 c 128,-1,26
 573 -113 573 -113 573 -118 c 2,27,-1
 573 -142 l 2,28,29
 573 -149 573 -149 567 -151 c 0,30,31
 555 -157 555 -157 532.5 -162 c 128,-1,32
 510 -167 510 -167 487 -167 c 0,33,34
 440 -167 440 -167 416.5 -146.5 c 128,-1,35
 393 -126 393 -126 393 -90 c 0,36,12
 393 -57 393 -57 416.5 -33 c 128,-1,13
EndSplineSet
EndChar

StartChar: eogonek
Encoding: 281 281 218
Width: 554
GlyphClass: 2
Flags: W
AnchorPoint: "Anchor-5" 0 0 basechar 0
AnchorPoint: "Anchor-4" 276 0 basechar 0
AnchorPoint: "Anchor-3" 283 517 basechar 0
AnchorPoint: "Anchor-2" 381 19 basechar 0
LayerCount: 2
Fore
SplineSet
164 100 m 128,-1,1
 208 44 208 44 292 44 c 0,2,3
 400 44 400 44 433 130 c 1,4,-1
 491 117 l 1,5,6
 472 57 472 57 418.5 23.5 c 128,-1,7
 365 -10 365 -10 292 -10 c 0,8,9
 222 -10 222 -10 168 21.5 c 128,-1,10
 114 53 114 53 84 112.5 c 128,-1,11
 54 172 54 172 54 254 c 0,12,13
 54 380 54 380 114.5 453.5 c 128,-1,14
 175 527 175 527 283 527 c 0,15,16
 386 527 386 527 443 460 c 128,-1,17
 500 393 500 393 500 274 c 2,18,-1
 500 243 l 1,19,-1
 120 243 l 1,20,0
 120 156 120 156 164 100 c 128,-1,1
437 293 m 1,21,22
 437 374 437 374 397.5 424 c 128,-1,23
 358 474 358 474 282 474 c 0,24,25
 228 474 228 474 191.5 448 c 128,-1,26
 155 422 155 422 137.5 380.5 c 128,-1,27
 120 339 120 339 120 293 c 1,28,-1
 437 293 l 1,21,22
258.5 -24 m 128,-1,30
 282 0 282 0 340 17 c 1,31,-1
 389 10 l 1,32,33
 338 -13 338 -13 315 -33 c 128,-1,34
 292 -53 292 -53 292 -78 c 0,35,36
 292 -98 292 -98 304.5 -107.5 c 128,-1,37
 317 -117 317 -117 344 -117 c 0,38,39
 364 -117 364 -117 381 -113 c 128,-1,40
 398 -109 398 -109 406 -104 c 0,41,42
 411 -102 411 -102 413 -103 c 128,-1,43
 415 -104 415 -104 415 -109 c 2,44,-1
 415 -133 l 2,45,46
 415 -140 415 -140 409 -142 c 0,47,48
 397 -148 397 -148 374.5 -153 c 128,-1,49
 352 -158 352 -158 329 -158 c 0,50,51
 282 -158 282 -158 258.5 -137.5 c 128,-1,52
 235 -117 235 -117 235 -81 c 0,53,29
 235 -48 235 -48 258.5 -24 c 128,-1,30
EndSplineSet
EndChar

StartChar: Ecaron
Encoding: 282 282 219
Width: 615
GlyphClass: 2
Flags: W
AnchorPoint: "Anchor-5" 0 0 basechar 0
AnchorPoint: "Anchor-4" 346 0 basechar 0
AnchorPoint: "Anchor-3" 330 723 basechar 0
AnchorPoint: "Anchor-2" 539 10 basechar 0
LayerCount: 2
Fore
SplineSet
101 723 m 1,0,-1
 535 723 l 1,1,-1
 535 664 l 1,2,-1
 165 664 l 1,3,-1
 165 395 l 1,4,-1
 504 395 l 1,5,-1
 504 336 l 1,6,-1
 165 336 l 1,7,-1
 165 61 l 1,8,-1
 547 60 l 1,9,-1
 547 0 l 1,10,-1
 101 0 l 1,11,-1
 101 723 l 1,0,-1
474 929 m 1,12,-1
 355 825 l 1,13,-1
 307 825 l 1,14,-1
 184 929 l 1,15,-1
 253 929 l 1,16,-1
 330 866 l 1,17,-1
 402 929 l 1,18,-1
 474 929 l 1,12,-1
EndSplineSet
EndChar

StartChar: ecaron
Encoding: 283 283 220
Width: 554
GlyphClass: 2
Flags: W
AnchorPoint: "Anchor-5" 0 0 basechar 0
AnchorPoint: "Anchor-4" 276 0 basechar 0
AnchorPoint: "Anchor-3" 283 517 basechar 0
AnchorPoint: "Anchor-2" 381 19 basechar 0
LayerCount: 2
Fore
SplineSet
164 100 m 128,-1,1
 208 44 208 44 292 44 c 0,2,3
 400 44 400 44 433 130 c 1,4,-1
 491 117 l 1,5,6
 472 57 472 57 418.5 23.5 c 128,-1,7
 365 -10 365 -10 292 -10 c 0,8,9
 222 -10 222 -10 168 21.5 c 128,-1,10
 114 53 114 53 84 112.5 c 128,-1,11
 54 172 54 172 54 254 c 0,12,13
 54 380 54 380 114.5 453.5 c 128,-1,14
 175 527 175 527 283 527 c 0,15,16
 386 527 386 527 443 460 c 128,-1,17
 500 393 500 393 500 274 c 2,18,-1
 500 243 l 1,19,-1
 120 243 l 1,20,0
 120 156 120 156 164 100 c 128,-1,1
437 293 m 1,21,22
 437 374 437 374 397.5 424 c 128,-1,23
 358 474 358 474 282 474 c 0,24,25
 228 474 228 474 191.5 448 c 128,-1,26
 155 422 155 422 137.5 380.5 c 128,-1,27
 120 339 120 339 120 293 c 1,28,-1
 437 293 l 1,21,22
427 723 m 1,29,-1
 308 619 l 1,30,-1
 260 619 l 1,31,-1
 137 723 l 1,32,-1
 206 723 l 1,33,-1
 283 660 l 1,34,-1
 355 723 l 1,35,-1
 427 723 l 1,29,-1
EndSplineSet
EndChar

StartChar: Gcircumflex
Encoding: 284 284 221
Width: 715
GlyphClass: 2
Flags: W
AnchorPoint: "Anchor-5" 0 0 basechar 0
AnchorPoint: "Anchor-4" 358 0 basechar 0
AnchorPoint: "Anchor-3" 354 723 basechar 0
AnchorPoint: "Anchor-2" 0 0 basechar 0
LayerCount: 2
Fore
SplineSet
194 34 m 128,-1,1
 127 78 127 78 91.5 161 c 128,-1,2
 56 244 56 244 56 359 c 0,3,4
 56 476 56 476 93 560.5 c 128,-1,5
 130 645 130 645 197 689 c 128,-1,6
 264 733 264 733 355 733 c 0,7,8
 420 733 420 733 477.5 705 c 128,-1,9
 535 677 535 677 572 629.5 c 128,-1,10
 609 582 609 582 614 527 c 1,11,-1
 544 520 l 1,12,13
 533 586 533 586 480 629.5 c 128,-1,14
 427 673 427 673 355 673 c 0,15,16
 246 673 246 673 185 592.5 c 128,-1,17
 124 512 124 512 124 365 c 0,18,19
 124 210 124 210 185 129.5 c 128,-1,20
 246 49 246 49 356 49 c 0,21,22
 421 49 421 49 467 79.5 c 128,-1,23
 513 110 513 110 536.5 155.5 c 128,-1,24
 560 201 560 201 561 246 c 2,25,-1
 563 321 l 1,26,-1
 373 321 l 1,27,-1
 373 371 l 1,28,-1
 628 370 l 1,29,-1
 628 0 l 1,30,-1
 575 0 l 1,31,-1
 575 119 l 1,32,33
 543 61 543 61 487.5 25.5 c 128,-1,34
 432 -10 432 -10 353 -10 c 0,35,0
 261 -10 261 -10 194 34 c 128,-1,1
354 890 m 1,36,-1
 277 827 l 1,37,-1
 209 827 l 1,38,-1
 331 931 l 1,39,-1
 379 931 l 1,40,-1
 498 827 l 1,41,-1
 426 827 l 1,42,-1
 354 890 l 1,36,-1
EndSplineSet
EndChar

StartChar: gcircumflex
Encoding: 285 285 222
Width: 591
GlyphClass: 2
Flags: W
AnchorPoint: "Anchor-5" 0 0 basechar 0
AnchorPoint: "Anchor-4" 0 0 basechar 0
AnchorPoint: "Anchor-3" 291 517 basechar 0
AnchorPoint: "Anchor-2" 0 0 basechar 0
LayerCount: 2
Fore
SplineSet
103.5 -133.5 m 128,-1,1
 40 -96 40 -96 40 -30 c 0,2,3
 40 11 40 11 65 37 c 128,-1,4
 90 63 90 63 110.5 75 c 128,-1,5
 131 87 131 87 136 90 c 1,6,7
 132 93 132 93 118 101 c 128,-1,8
 104 109 104 109 96 121 c 128,-1,9
 88 133 88 133 88 149 c 0,10,11
 88 172 88 172 110 191 c 128,-1,12
 132 210 132 210 172 220 c 1,13,14
 122 246 122 246 100.5 279 c 128,-1,15
 79 312 79 312 79 361 c 0,16,17
 79 438 79 438 137 481.5 c 128,-1,18
 195 525 195 525 294 525 c 0,19,20
 341 525 341 525 376 513.5 c 128,-1,21
 411 502 411 502 441 478 c 1,22,-1
 562 529 l 1,23,-1
 562 458 l 1,24,-1
 471 440 l 1,25,26
 479 424 479 424 485 401 c 128,-1,27
 491 378 491 378 491 361 c 0,28,29
 491 291 491 291 439 246 c 128,-1,30
 387 201 387 201 286 201 c 1,31,-1
 266 202 l 1,32,33
 205 201 205 201 177.5 189 c 128,-1,34
 150 177 150 177 150 160 c 0,35,36
 150 145 150 145 172 138 c 128,-1,37
 194 131 194 131 254 127 c 2,38,-1
 369 120 l 2,39,40
 527 110 527 110 527 -16 c 0,41,42
 527 -89 527 -89 463.5 -130 c 128,-1,43
 400 -171 400 -171 285 -171 c 0,44,0
 167 -171 167 -171 103.5 -133.5 c 128,-1,1
394 277.5 m 128,-1,46
 430 306 430 306 430 361 c 0,47,48
 430 418 430 418 393.5 448.5 c 128,-1,49
 357 479 357 479 288 479 c 128,-1,50
 219 479 219 479 181 448 c 128,-1,51
 143 417 143 417 143 361 c 0,52,53
 143 306 143 306 180.5 277.5 c 128,-1,54
 218 249 218 249 288 249 c 128,-1,45
 358 249 358 249 394 277.5 c 128,-1,46
464 -22 m 0,55,56
 464 16 464 16 440 37 c 128,-1,57
 416 58 416 58 361 62 c 2,58,-1
 201 72 l 2,59,60
 183 73 183 73 160 60.5 c 128,-1,61
 137 48 137 48 120.5 26 c 128,-1,62
 104 4 104 4 104 -23 c 0,63,64
 104 -72 104 -72 154 -98 c 128,-1,65
 204 -124 204 -124 297 -124 c 0,66,67
 464 -124 464 -124 464 -22 c 0,55,56
291 684 m 1,68,-1
 214 621 l 1,69,-1
 146 621 l 1,70,-1
 268 725 l 1,71,-1
 316 725 l 1,72,-1
 435 621 l 1,73,-1
 363 621 l 1,74,-1
 291 684 l 1,68,-1
EndSplineSet
EndChar

StartChar: Gbreve
Encoding: 286 286 223
Width: 715
GlyphClass: 2
Flags: W
AnchorPoint: "Anchor-5" 0 0 basechar 0
AnchorPoint: "Anchor-4" 358 0 basechar 0
AnchorPoint: "Anchor-3" 354 723 basechar 0
AnchorPoint: "Anchor-2" 0 0 basechar 0
LayerCount: 2
Fore
SplineSet
194 34 m 128,-1,1
 127 78 127 78 91.5 161 c 128,-1,2
 56 244 56 244 56 359 c 0,3,4
 56 476 56 476 93 560.5 c 128,-1,5
 130 645 130 645 197 689 c 128,-1,6
 264 733 264 733 355 733 c 0,7,8
 420 733 420 733 477.5 705 c 128,-1,9
 535 677 535 677 572 629.5 c 128,-1,10
 609 582 609 582 614 527 c 1,11,-1
 544 520 l 1,12,13
 533 586 533 586 480 629.5 c 128,-1,14
 427 673 427 673 355 673 c 0,15,16
 246 673 246 673 185 592.5 c 128,-1,17
 124 512 124 512 124 365 c 0,18,19
 124 210 124 210 185 129.5 c 128,-1,20
 246 49 246 49 356 49 c 0,21,22
 421 49 421 49 467 79.5 c 128,-1,23
 513 110 513 110 536.5 155.5 c 128,-1,24
 560 201 560 201 561 246 c 2,25,-1
 563 321 l 1,26,-1
 373 321 l 1,27,-1
 373 371 l 1,28,-1
 628 370 l 1,29,-1
 628 0 l 1,30,-1
 575 0 l 1,31,-1
 575 119 l 1,32,33
 543 61 543 61 487.5 25.5 c 128,-1,34
 432 -10 432 -10 353 -10 c 0,35,0
 261 -10 261 -10 194 34 c 128,-1,1
446 861 m 128,-1,37
 409 831 409 831 354 831 c 0,38,39
 298 831 298 831 262.5 859.5 c 128,-1,40
 227 888 227 888 217 929 c 1,41,-1
 273 929 l 1,42,43
 287 907 287 907 304.5 893 c 128,-1,44
 322 879 322 879 354 879 c 0,45,46
 383 879 383 879 403 894 c 128,-1,47
 423 909 423 909 436 929 c 1,48,-1
 494 929 l 1,49,36
 483 891 483 891 446 861 c 128,-1,37
EndSplineSet
EndChar

